<svg xmlns="http://www.w3.org/2000/svg" width="40" height="40.004" viewBox="0 0 40 40.004">
  <g id="Group_2372" data-name="Group 2372" transform="translate(-76.821 -58.62)">
    <path id="Path_25767" data-name="Path 25767" d="M116.222,83.462a20,20,0,1,1-14.566-24.243,20,20,0,0,1,14.566,24.243Z" transform="translate(0 0)" fill="#f7931a"/>
    <path id="Path_25768" data-name="Path 25768" d="M113.824,81.634c.4-2.661-1.629-4.092-4.4-5.047l.9-3.605-2.2-.547-.875,3.51c-.576-.144-1.169-.279-1.758-.414L106.377,72l-2.194-.547-.9,3.6c-.478-.109-.946-.217-1.4-.33l0-.011-3.026-.756L98.274,76.3s1.628.373,1.594.4a1.167,1.167,0,0,1,1.022,1.276L99.864,82.1l-1.436,5.754a.8.8,0,0,1-1.006.521c.022.032-1.6-.4-1.6-.4l-1.089,2.513,2.856.712c.531.133,1.052.272,1.564.4l-.908,3.647,2.192.547.9-3.608c.6.162,1.179.313,1.749.454l-.9,3.591,2.194.547.908-3.64c3.742.708,6.557.422,7.741-2.962.954-2.725-.047-4.3-2.016-5.323a3.5,3.5,0,0,0,2.8-3.224Zm-5.015,7.032c-.679,2.725-5.267,1.253-6.755.883l1.2-4.832c1.488.372,6.257,1.107,5.551,3.949Zm.678-7.071c-.619,2.479-4.438,1.22-5.677.91l1.092-4.382C106.142,78.432,110.133,79.008,109.487,81.595Z" transform="translate(-8.184 -5.861)" fill="#fff"/>
  </g>
</svg>
