<svg id="tether-seeklogo.com" xmlns="http://www.w3.org/2000/svg" width="50" height="50" viewBox="0 0 50 50">
  <path id="Path_285" data-name="Path 285" d="M25,0A25,25,0,1,1,0,25,25,25,0,0,1,25,0" fill="#53ae94"/>
  <path id="Path_286" data-name="Path 286" d="M411.358,500.726v-3.719h8.5V491.34H396.7v5.667h8.506v3.716c-6.913.317-12.11,1.686-12.11,3.326s5.2,3.009,12.11,3.328V519.29h6.15V507.377c6.9-.319,12.087-1.687,12.087-3.325s-5.187-3.006-12.087-3.325m0,5.641v0c-.173.011-1.065.065-3.05.065-1.587,0-2.7-.045-3.1-.066v.005c-6.107-.271-10.666-1.334-10.666-2.607s4.559-2.335,10.666-2.606v4.153c.4.027,1.544.095,3.123.095,1.9,0,2.85-.079,3.025-.095v-4.153c6.1.272,10.643,1.336,10.643,2.6s-4.55,2.333-10.643,2.6" transform="translate(-383.272 -479.056)" fill="#fff"/>
</svg>
