<svg xmlns="http://www.w3.org/2000/svg" width="44.951" height="40.143" viewBox="0 0 44.951 40.143">
  <g id="_74263ff26820cd0d895968e3b55e8902" data-name="74263ff26820cd0d895968e3b55e8902" transform="translate(-0.563 -0.563)">
    <path id="Path_1079" data-name="Path 1079" d="M60.75,169.712l5.889,1.563v-2.043l.481-.481h3.365v4.086H66.88l-4.447-1.923Z" transform="translate(-47.327 -132.251)" fill="#cdbdb2" fill-rule="evenodd"/>
    <path id="Path_1080" data-name="Path 1080" d="M0,3.125,5.769,1.562V3.606l.481.481H9.615V0H6.009L1.563,1.923Z" transform="translate(32.654 40.586) rotate(180)" fill="#cdbdb2" fill-rule="evenodd"/>
    <path id="Path_1081" data-name="Path 1081" d="M88.794,150.226l-.481,3.966.6-.481h6.25l.721.481-.481-3.966-.962-.6-4.808.12Z" transform="translate(-69 -117.212)" fill="#393939" fill-rule="evenodd"/>
    <path id="Path_1082" data-name="Path 1082" d="M75.375,27l2.885,6.731,1.322,19.591h4.687l1.442-19.591L88.355,27Z" transform="translate(-58.827 -20.789)" fill="#f89c35" fill-rule="evenodd"/>
    <path id="Path_1083" data-name="Path 1083" d="M3.928,82.919.563,92.654l8.413-.481h5.408V87.967l-.24-8.654-1.2.962Z" transform="translate(0 -61.924)" fill="#f89d35" fill-rule="evenodd"/>
    <path id="Path_1084" data-name="Path 1084" d="M46.125,101.25l9.856.24L54.9,106.538l-4.687-1.2Z" transform="translate(-35.827 -79.174)" fill="#d87c30" fill-rule="evenodd"/>
    <path id="Path_1085" data-name="Path 1085" d="M46.125,101.813l4.086,3.846v3.846Z" transform="translate(-35.827 -79.616)" fill="#ea8d3a" fill-rule="evenodd"/>
    <path id="Path_1086" data-name="Path 1086" d="M65.25,120.375l4.808,1.2,1.563,5.168-1.082.6-5.288-3.125Z" transform="translate(-50.865 -94.212)" fill="#f89d35" fill-rule="evenodd"/>
    <path id="Path_1087" data-name="Path 1087" d="M61.712,138.375l-.962,7.452,6.37-4.447Z" transform="translate(-47.327 -108.366)" fill="#eb8f35" fill-rule="evenodd"/>
    <path id="Path_1088" data-name="Path 1088" d="M87.827,102.375l.6,10.216-1.8-5.228Z" transform="translate(-67.673 -80.058)" fill="#ea8e3a" fill-rule="evenodd"/>
    <path id="Path_1089" data-name="Path 1089" d="M39.375,138.5l5.529-.12-.962,7.452Z" transform="translate(-30.519 -108.366)" fill="#d87c30" fill-rule="evenodd"/>
    <path id="Path_1090" data-name="Path 1090" d="M3.207,149.515l10.216-3.245-4.567-7.331-8.293.6Z" transform="translate(0 -108.809)" fill="#eb8f35" fill-rule="evenodd"/>
    <path id="Path_1091" data-name="Path 1091" d="M55.259,58.5l-5.168,4.327-3.966,4.808L55.981,68Z" transform="translate(-35.827 -45.558)" fill="#e8821e" fill-rule="evenodd"/>
    <path id="Path_1092" data-name="Path 1092" d="M60.75,156.885l6.37-4.447-.481,3.846v2.163l-4.327-.841Z" transform="translate(-47.327 -119.424)" fill="#dfcec3" fill-rule="evenodd"/>
    <path id="Path_1093" data-name="Path 1093" d="M0,1.563,6.25,6.009,5.769,2.163V0L1.442.841Z" transform="translate(32.654 39.023) rotate(180)" fill="#dfcec3" fill-rule="evenodd"/>
    <path id="Path_1094" data-name="Path 1094" d="M1.322,2.764,0,0,4.688,1.2Z" transform="translate(18.832 27.245) rotate(180)" fill="#393939" fill-rule="evenodd"/>
    <path id="Path_1095" data-name="Path 1095" d="M12.375.563,28.721,12.942,25.957,6.212Z" transform="translate(-9.288 0)" fill="#e88f35" fill-rule="evenodd"/>
    <path id="Path_1096" data-name="Path 1096" d="M4.413.563,2.25,7.173l1.2,7.211-.841.481,1.2,1.082-.962.841,1.322,1.2-.841.721,1.923,2.4,9.014-2.764q6.61-5.288,6.49-5.409T4.413.563Z" transform="translate(-1.327 0)" fill="#8e5a30" fill-rule="evenodd"/>
    <g id="Group_503" data-name="Group 503" transform="translate(45.514 40.706) rotate(180)">
      <path id="Path_1097" data-name="Path 1097" d="M3.365,9.735,0,0,8.413.481h5.408V4.687l-.24,8.654-1.2-.962Z" transform="translate(0 9.976)" fill="#f89d35" fill-rule="evenodd"/>
      <path id="Path_1098" data-name="Path 1098" d="M0,5.288l9.856-.24L8.774,0,4.086,1.2Z" transform="translate(9.735 13.341)" fill="#d87c30" fill-rule="evenodd"/>
      <path id="Path_1099" data-name="Path 1099" d="M0,7.692,4.086,3.846V0Z" transform="translate(9.735 10.817)" fill="#ea8d3a" fill-rule="evenodd"/>
      <path id="Path_1100" data-name="Path 1100" d="M0,6.971l4.808-1.2L6.37.6,5.288,0,0,3.125Z" transform="translate(13.822 7.572)" fill="#f89d35" fill-rule="evenodd"/>
      <path id="Path_1101" data-name="Path 1101" d="M.962,7.452,0,0,6.25,4.327Z" transform="translate(12.86 3.245)" fill="#eb8f35" fill-rule="evenodd"/>
      <path id="Path_1102" data-name="Path 1102" d="M1.2,10.216,1.8,0,0,5.228Z" transform="translate(18.389 8.173)" fill="#ea8e3a" fill-rule="evenodd"/>
      <path id="Path_1103" data-name="Path 1103" d="M0,7.331l5.529.12L4.567,0Z" transform="translate(8.293 3.245)" fill="#d87c30" fill-rule="evenodd"/>
      <path id="Path_1104" data-name="Path 1104" d="M2.644,0,12.86,3.245,8.293,10.577,0,9.976Z" transform="translate(0 0)" fill="#eb8f35" fill-rule="evenodd"/>
      <path id="Path_1105" data-name="Path 1105" d="M9.134,9.5,3.966,5.168,0,.361,9.856,0Z" transform="translate(9.735 18.269)" fill="#e8821e" fill-rule="evenodd"/>
      <path id="Path_1106" data-name="Path 1106" d="M1.322,0,0,2.764l4.688-1.2Z" transform="translate(18.269 16.226) rotate(180)" fill="#393939" fill-rule="evenodd"/>
      <path id="Path_1107" data-name="Path 1107" d="M0,12.379,16.346,0,13.582,6.731Z" transform="translate(2.524 27.764)" fill="#e88f35" fill-rule="evenodd"/>
      <path id="Path_1108" data-name="Path 1108" d="M2.163,20.552,0,13.942,1.2,6.731.361,6.25l1.2-1.082L.6,4.327l1.322-1.2L1.082,2.4,3,0l9.014,2.764q6.61,5.288,6.49,5.409T2.163,20.552Z" transform="translate(0.36 19.591)" fill="#8e5a30" fill-rule="evenodd"/>
    </g>
  </g>
</svg>
