<svg id="_9cc18b0cbe765b0a28791d253207f0c0" data-name="9cc18b0cbe765b0a28791d253207f0c0" xmlns="http://www.w3.org/2000/svg" width="40" height="40" viewBox="0 0 40 40">
  <circle id="Ellipse_5" data-name="Ellipse 5" cx="20" cy="20" r="20" fill="#8247e5"/>
  <path id="Path_1075" data-name="Path 1075" d="M198.819,237.121a1.693,1.693,0,0,0-1.631,0l-3.742,2.14-2.542,1.4-3.742,2.14a1.693,1.693,0,0,1-1.631,0l-2.974-1.674a1.6,1.6,0,0,1-.815-1.349v-3.3a1.5,1.5,0,0,1,.815-1.349l2.926-1.628a1.693,1.693,0,0,1,1.631,0l2.926,1.628a1.6,1.6,0,0,1,.816,1.349v2.14l2.542-1.442v-2.14a1.5,1.5,0,0,0-.815-1.349l-5.421-3.07a1.693,1.693,0,0,0-1.631,0l-5.517,3.07a1.5,1.5,0,0,0-.816,1.349v6.186a1.5,1.5,0,0,0,.816,1.349l5.517,3.07a1.693,1.693,0,0,0,1.631,0l3.742-2.093,2.542-1.442L197.188,240a1.693,1.693,0,0,1,1.631,0l2.926,1.628a1.6,1.6,0,0,1,.816,1.349v3.3a1.5,1.5,0,0,1-.816,1.349l-2.926,1.674a1.693,1.693,0,0,1-1.631,0l-2.926-1.628a1.6,1.6,0,0,1-.816-1.349v-2.14l-2.542,1.442v2.14a1.5,1.5,0,0,0,.816,1.349l5.517,3.07a1.693,1.693,0,0,0,1.631,0l5.517-3.07a1.6,1.6,0,0,0,.816-1.349v-6.186a1.5,1.5,0,0,0-.816-1.349Z" transform="translate(-172.199 -221.4)" fill="#fff"/>
</svg>
