<svg xmlns="http://www.w3.org/2000/svg" width="40" height="40" viewBox="0 0 40 40">
  <g id="c5b7bda06ddfe2b3f59b37ed6bb65ab4" transform="translate(-0.848 -0.876)">
    <path id="Path_1071" data-name="Path 1071" d="M40.848,20.876a20,20,0,1,1-20-20,20,20,0,0,1,20,20" transform="translate(0 0)" fill="#bebebe"/>
    <path id="Path_1072" data-name="Path 1072" d="M67.307,51.582A15.754,15.754,0,1,1,51.553,35.828,15.754,15.754,0,0,1,67.307,51.582" transform="translate(-30.705 -30.706)" fill="#bebebe"/>
    <path id="Path_1073" data-name="Path 1073" d="M98.435,93.284l1.3-4.892,3.076-1.124.765-2.875-.026-.071-3.027,1.106,2.181-8.213H96.516L93.664,87.934l-2.382.87-.787,2.964,2.38-.869-1.681,6.317h16.464l1.055-3.932H98.435" transform="translate(-78.756 -67.065)" fill="#fff"/>
  </g>
</svg>
