<svg xmlns="http://www.w3.org/2000/svg" width="24.813" height="21.712" viewBox="0 0 24.813 21.712">
  <g id="crown" transform="translate(-0.027)">
    <path id="Path_14339" data-name="Path 14339" d="M23.29,4.652h-.048l.048,10.759v.1a1.572,1.572,0,0,1-1.551,1.551H3.129a1.479,1.479,0,0,1-1.1-.46,1.51,1.51,0,0,1-.448-1.09v-.1L1.627,4.652H1.578A1.5,1.5,0,0,1,.476,4.2,1.5,1.5,0,0,1,.027,3.1,1.5,1.5,0,0,1,.476,2a1.484,1.484,0,0,1,1.09-.448A1.525,1.525,0,0,1,2.669,2a1.479,1.479,0,0,1,.46,1.1,1.46,1.46,0,0,1-.654,1.26l5.307,7.512L11.8,2.956a1.44,1.44,0,0,1-.666-.557,1.515,1.515,0,0,1-.254-.848,1.5,1.5,0,0,1,.448-1.1A1.484,1.484,0,0,1,12.422,0a1.525,1.525,0,0,1,1.1.448,1.479,1.479,0,0,1,.46,1.1,1.515,1.515,0,0,1-.254.848,1.44,1.44,0,0,1-.666.557l4.022,8.917,5.307-7.512a1.46,1.46,0,0,1-.654-1.26A1.5,1.5,0,0,1,22.187,2a1.484,1.484,0,0,1,1.09-.448A1.525,1.525,0,0,1,24.38,2a1.479,1.479,0,0,1,.46,1.1,1.479,1.479,0,0,1-.46,1.1,1.51,1.51,0,0,1-1.09.448ZM1.578,18.61H23.29a1.51,1.51,0,0,1,1.09.448,1.465,1.465,0,0,1,.46,1.09,1.572,1.572,0,0,1-1.551,1.563H1.578a1.49,1.49,0,0,1-1.09-.46,1.5,1.5,0,0,1-.46-1.1,1.484,1.484,0,0,1,.448-1.09,1.5,1.5,0,0,1,1.1-.448Z" fill="#f8e71c"/>
  </g>
</svg>
