<svg xmlns="http://www.w3.org/2000/svg" width="21.158" height="20.778" viewBox="0 0 21.158 20.778">
  <path id="f5a56b60e99940ae92fa28d398132ed8" d="M36.813,36.314H17.145a.745.745,0,1,0,0,1.489H36.813a.745.745,0,1,0,0-1.489ZM16.431,29.8,16.4,33.3a.68.68,0,0,0,.217.527.88.88,0,0,0,.527.217l3.506-.031a.88.88,0,0,0,.527-.217L33.214,21.764a.769.769,0,0,0,0-1.055L29.74,17.234a.769.769,0,0,0-1.055,0l-2.42,2.42-9.617,9.617A.727.727,0,0,0,16.431,29.8Zm15.2-8.562L30.267,22.6l-2.42-2.42,1.365-1.365ZM17.92,30.109l8.873-8.873,2.42,2.42L20.34,32.529H17.92Z" transform="translate(-16.4 -17.025)" fill="#f2f2f2"/>
</svg>
