<svg xmlns="http://www.w3.org/2000/svg" width="44" height="44" viewBox="0 0 44 44">
  <g id="Group_15236" data-name="Group 15236" transform="translate(-162.5 -6385)">
    <g id="_42940239036e2637f3dd15b7dd6d230f" data-name="42940239036e2637f3dd15b7dd6d230f" transform="translate(169 6392)">
      <path id="Path_25741" data-name="Path 25741" d="M18,7.3a2.587,2.587,0,0,0-1.484-1.483,4.322,4.322,0,0,0-1.45-.269c-.823-.037-1.07-.047-3.156-.047s-2.333.009-3.156.047A4.322,4.322,0,0,0,7.3,5.816,2.588,2.588,0,0,0,5.816,7.3a4.322,4.322,0,0,0-.269,1.45c-.037.823-.047,1.07-.047,3.156s.009,2.333.047,3.156a4.322,4.322,0,0,0,.269,1.452A2.588,2.588,0,0,0,7.3,18a4.322,4.322,0,0,0,1.45.269c.823.038,1.07.047,3.156.047s2.333-.009,3.156-.047A4.322,4.322,0,0,0,16.514,18,2.587,2.587,0,0,0,18,16.513a4.322,4.322,0,0,0,.269-1.45c.038-.823.047-1.07.047-3.156S18.3,9.573,18.266,8.75A4.322,4.322,0,0,0,18,7.3Zm-6.091,8.62a4.013,4.013,0,1,1,4.012-4.013,4.013,4.013,0,0,1-4.012,4.013Zm4.17-7.245a.938.938,0,1,1,.938-.937.937.937,0,0,1-.938.938Z" transform="translate(3.094 3.094)" fill="#edecec"/>
      <circle id="Ellipse_39" data-name="Ellipse 39" cx="2.605" cy="2.605" r="2.605" transform="translate(12.395 12.395)" fill="#edecec"/>
      <path id="Path_25742" data-name="Path 25742" d="M15,0A15,15,0,1,0,30,15,15,15,0,0,0,15,0Zm7.766,18.222a5.734,5.734,0,0,1-.364,1.9A3.994,3.994,0,0,1,20.117,22.4a5.734,5.734,0,0,1-1.9.364c-.834.038-1.1.047-3.222.047s-2.387-.009-3.222-.047a5.734,5.734,0,0,1-1.9-.364A3.994,3.994,0,0,1,7.6,20.117a5.734,5.734,0,0,1-.364-1.9c-.038-.834-.047-1.1-.047-3.222s.009-2.387.047-3.222a5.734,5.734,0,0,1,.364-1.9A3.994,3.994,0,0,1,9.883,7.6a5.734,5.734,0,0,1,1.9-.364c.834-.038,1.1-.047,3.222-.047s2.387.009,3.222.047a5.734,5.734,0,0,1,1.9.364A3.994,3.994,0,0,1,22.4,9.883a5.734,5.734,0,0,1,.364,1.9c.038.834.047,1.1.047,3.222S22.8,17.387,22.766,18.222Z" fill="#edecec"/>
    </g>
    <rect id="Rectangle_749" data-name="Rectangle 749" width="44" height="44" transform="translate(162.5 6385)" fill="none"/>
  </g>
</svg>
