<svg xmlns="http://www.w3.org/2000/svg" width="31.501" height="21" viewBox="0 0 31.501 21">
  <g id="Group_15205" data-name="Group 15205" transform="translate(-149.75)">
    <g id="Group_2" data-name="Group 2" transform="translate(147.504 -7.125)">
      <path id="Path_2" data-name="Path 2" d="M18.3,24.321a6.322,6.322,0,0,1-6.012-9.028L8.529,11.531a49.321,49.321,0,0,0-5.984,5.716,1.112,1.112,0,0,0-.007,1.5c4.563,5.041,8.585,9.38,15.448,9.38a13.538,13.538,0,0,0,5.787-1.35l-3.059-3.059A6.389,6.389,0,0,1,18.3,24.321Z" fill="#404a55"/>
      <path id="Path_3" data-name="Path 3" d="M33.455,18.7a1.1,1.1,0,0,0,.035-1.455c-3.677-4.465-8.775-9.373-15.5-9.373A13.162,13.162,0,0,0,12.22,9.211l3.073,3.073a6.2,6.2,0,0,1,2.412-.6,6.322,6.322,0,0,1,6.012,9.028l3.762,3.762A46.51,46.51,0,0,0,33.455,18.7Z" fill="#404a55"/>
      <path id="Path_4" data-name="Path 4" d="M13.514,18.345a4.518,4.518,0,0,0,4.141,4.141A4.4,4.4,0,0,0,19.3,22.3L13.69,16.692A4.6,4.6,0,0,0,13.514,18.345Z" fill="#404a55"/>
      <path id="Path_5" data-name="Path 5" d="M22.5,18c0-.091-.007-.183-.007-.274a3.118,3.118,0,0,1-1.28.274c-.077,0-.148,0-.218-.007L22.3,19.308A4.5,4.5,0,0,0,22.5,18Z" fill="#404a55"/>
      <path id="Path_6" data-name="Path 6" d="M18,14.7a3.3,3.3,0,0,1,.218-1.188c-.07,0-.141-.007-.218-.007a4.448,4.448,0,0,0-1.3.2l1.315,1.315C18.007,14.906,18,14.8,18,14.7Z" fill="#404a55"/>
    </g>
    <g id="eye-sharp" transform="translate(148.625 -6.75)">
      <path id="Path_26" data-name="Path 26" d="M22.5,18A4.5,4.5,0,1,1,18,13.5,4.5,4.5,0,0,1,22.5,18Z" transform="translate(-1.125 -0.75)" fill="#404a55"/>
      <path id="Path_27" data-name="Path 27" d="M25.985,9.715A15.947,15.947,0,0,0,16.859,6.75,15.4,15.4,0,0,0,8.552,9.276c-2.667,1.689-5.283,4.759-7.427,7.974A25.329,25.329,0,0,0,7.7,24.809a15.71,15.71,0,0,0,18.3,0,25.165,25.165,0,0,0,6.624-7.561A25.5,25.5,0,0,0,25.985,9.715ZM16.875,23.55a6.3,6.3,0,1,1,6.3-6.3A6.3,6.3,0,0,1,16.875,23.55Z" fill="#404a55"/>
    </g>
  </g>
</svg>
