<svg id="Group_15143" data-name="Group 15143" xmlns="http://www.w3.org/2000/svg" width="92.647" height="88.742" viewBox="0 0 92.647 88.742">
  <path id="Ellipse_12" data-name="Ellipse 12" d="M44.625,1.11A46.638,46.638,0,0,1,61.863,4.884a48.066,48.066,0,0,1,14.29,9.465,47.174,47.174,0,0,1,9.987,13.8A44.473,44.473,0,0,1,90.41,44.975a41.816,41.816,0,0,1-2.576,16.887,40.754,40.754,0,0,1-8.748,13.891A41.534,41.534,0,0,1,65.4,85.194a43.771,43.771,0,0,1-17.317,3.471A46.528,46.528,0,0,1,30.328,85.1a48.05,48.05,0,0,1-14.81-9.679A47.134,47.134,0,0,1,5.29,61.125,44.338,44.338,0,0,1,1.21,43.776a41.668,41.668,0,0,1,3.1-17.1A40.744,40.744,0,0,1,13.574,13,41.681,41.681,0,0,1,27.5,4.061,43.974,43.974,0,0,1,44.625,1.11Z" fill="#29c1e1"/>
  <g id="Group_2325" data-name="Group 2325" transform="translate(25.601 11.408)">
    <path id="Path_25757" data-name="Path 25757" d="M0,0,.957,23.995,22.09,33.414Z" transform="translate(20.824 0.459)" fill="rgba(255,255,255,0.6)"/>
    <path id="Path_25758" data-name="Path 25758" d="M20.824.459,1.145,33.318l20.636-8.864Z" fill="#fff"/>
    <path id="Path_25759" data-name="Path 25759" d="M.478,11.968l.666,16.7L20.8.255Z" transform="translate(22.298 37.418)" fill="rgba(255,255,255,0.6)"/>
    <path id="Path_25760" data-name="Path 25760" d="M22.165,28.923l-.666-16.7L0,0Z" transform="translate(1.277 37.16)" fill="#fff"/>
    <path id="Path_25761" data-name="Path 25761" d="M.841,21.082,21.133,9.413,0,0Z" transform="translate(21.781 24.459)" fill="rgba(255,255,255,0.2)"/>
    <path id="Path_25762" data-name="Path 25762" d="M.316,9.187,21.793,21.411,20.952.329Z" transform="translate(0.829 24.131)" fill="rgba(255,255,255,0.6)"/>
  </g>
</svg>
