<svg xmlns="http://www.w3.org/2000/svg" xmlns:xlink="http://www.w3.org/1999/xlink" width="73.746" height="80" viewBox="0 0 73.746 80">
  <defs>
    <clipPath id="clip-path">
      <rect id="Rectangle_1567" data-name="Rectangle 1567" width="73.746" height="80" fill="#f2f2f2"/>
    </clipPath>
  </defs>
  <g id="Group_15865" data-name="Group 15865" transform="translate(0 0)">
    <g id="Group_15864" data-name="Group 15864" transform="translate(0 0)" clip-path="url(#clip-path)">
      <path id="Path_28593" data-name="Path 28593" d="M5.121,59.223A5.129,5.129,0,0,1,0,54.1V32.334a5.122,5.122,0,1,1,10.244,0V54.1a5.13,5.13,0,0,1-5.123,5.123m0-29.58A2.694,2.694,0,0,0,2.43,32.334V54.1a2.691,2.691,0,1,0,5.382,0V32.334a2.694,2.694,0,0,0-2.691-2.691" transform="translate(0 20.778)" fill="#f2f2f2"/>
      <path id="Path_28594" data-name="Path 28594" d="M31.751,39.634a6.667,6.667,0,0,0,6.839-6.462,6.667,6.667,0,0,0-6.839-6.462,4.238,4.238,0,0,1-4.409-4.031,4.237,4.237,0,0,1,4.409-4.03,4.236,4.236,0,0,1,4.407,4.03,1.216,1.216,0,1,0,2.432,0,6.667,6.667,0,0,0-6.839-6.462,6.667,6.667,0,0,0-6.839,6.462,6.666,6.666,0,0,0,6.839,6.462,4.237,4.237,0,0,1,4.407,4.031A4.237,4.237,0,0,1,31.751,37.2a4.239,4.239,0,0,1-4.409-4.031,1.215,1.215,0,1,0-2.43,0,6.667,6.667,0,0,0,6.839,6.462" transform="translate(19.022 12.384)" fill="#29c1e1"/>
      <path id="Path_28595" data-name="Path 28595" d="M29.316,42.675a1.214,1.214,0,0,0,1.215-1.215V16.23a1.215,1.215,0,1,0-2.43,0V41.459a1.214,1.214,0,0,0,1.215,1.215" transform="translate(21.457 11.465)" fill="#29c1e1"/>
      <path id="Path_28596" data-name="Path 28596" d="M21.69,35.512a1.215,1.215,0,0,1-1.136-.783,16.433,16.433,0,0,1,6.3-19.556A1.215,1.215,0,0,1,28.2,17.2a14,14,0,0,0-5.372,16.662,1.219,1.219,0,0,1-.7,1.57,1.248,1.248,0,0,1-.434.079" transform="translate(14.874 11.432)" fill="#29c1e1"/>
      <path id="Path_28597" data-name="Path 28597" d="M34.063,42.783a1.215,1.215,0,0,1-.672-2.229,13.984,13.984,0,0,0,0-23.353,1.216,1.216,0,1,1,1.342-2.028,16.418,16.418,0,0,1,0,27.409,1.219,1.219,0,0,1-.67.2" transform="translate(25.08 11.432)" fill="#29c1e1"/>
      <path id="Path_28599" data-name="Path 28599" d="M37.989,53.308c-.459,0-.914-.018-1.365-.048l-.111-.009c-.492-.037-.922-.079-1.351-.136a1.216,1.216,0,0,1-1.03-.966l-.316-1.561a8.478,8.478,0,0,1-.15-1.966v-.4c-.072-2.686-1.8-3.021-2.367-3.13L20.512,43.381a1.214,1.214,0,0,1-.857-.584,21.248,21.248,0,1,1,37.98-2.633c-.023.055-.852,1.811-.852,1.811-.249.469-.483.876-.73,1.275s-.5.765-.748,1.118l-.09.127a21.415,21.415,0,0,1-1.709,2.074l-.078.081c-.321.339-.61.626-.906.9l-.921-.8.827.891q-.5.463-1.025.892c-.367.3-.7.545-1.033.787l-.21.15c-.342.24-.695.474-1.056.7-.4.247-.785.464-1.176.672l-.146.074-.088.046q-.479.246-.97.467l-.263.12c-.4.173-.8.339-1.217.489l-.093.03c-.377.136-.758.257-1.143.37l-.4.115c-.284.078-.577.148-.869.217l-.369.085c-.421.09-.854.164-1.289.229l-.312.039c-.347.046-.695.083-1.046.111l-.383.028c-.443.028-.894.048-1.349.048M36.338,50.8l.3.025.067,1.224.083-1.213a18.5,18.5,0,0,0,2.4,0l.256-.019c.39-.03.7-.063,1-.1l.279-.035c.384-.056.767-.123,1.145-.2l.309-.072c.261-.062.524-.123.783-.2l.354-.1c.342-.1.679-.21,1.012-.328.448-.16.808-.307,1.16-.46l.155-.071c.367-.166.654-.305.936-.45l.206-.106c.344-.183.686-.374,1.019-.578s.654-.421.963-.637l.182-.129c.3-.213.591-.436.875-.665.351-.286.654-.55.949-.824l.914.809-.834-.885c.265-.249.52-.5.771-.765l.993.72-.889-.829a19.059,19.059,0,0,0,1.517-1.841l.076-.108c.224-.314.439-.633.642-.959.242-.386.45-.748.645-1.116L55.4,39.21a18.822,18.822,0,1,0-33.927,1.862L31.721,42.7c2.716.524,4.3,2.522,4.375,5.49v.466a1.355,1.355,0,0,1-.007.146,5.97,5.97,0,0,0,.109,1.31Z" transform="translate(12.782 8.253)" fill="#29c1e1"/>
      <path id="Path_28600" data-name="Path 28600" d="M33.516,35.857H20.321a1.216,1.216,0,0,1,0-2.432H33.516a1.216,1.216,0,0,1,0,2.432" transform="translate(14.588 25.522)" fill="#f2f2f2"/>
      <path id="Path_28601" data-name="Path 28601" d="M4.111,43.621H1.217a1.216,1.216,0,1,1,0-2.432H4.111a1.216,1.216,0,0,1,0,2.432" transform="translate(0 31.45)" fill="#f2f2f2"/>
      <path id="Path_28602" data-name="Path 28602" d="M4.111,39.893H1.217a1.216,1.216,0,1,1,0-2.432H4.111a1.216,1.216,0,0,1,0,2.432" transform="translate(0 28.604)" fill="#f2f2f2"/>
      <path id="Path_28603" data-name="Path 28603" d="M4.111,36.165H1.217a1.215,1.215,0,1,1,0-2.43H4.111a1.215,1.215,0,1,1,0,2.43" transform="translate(0 25.759)" fill="#f2f2f2"/>
      <path id="Path_28604" data-name="Path 28604" d="M4.111,32.438H1.217a1.216,1.216,0,1,1,0-2.432H4.111a1.216,1.216,0,0,1,0,2.432" transform="translate(0 22.912)" fill="#f2f2f2"/>
      <path id="Path_28605" data-name="Path 28605" d="M25.093,40.793H8.607a1.215,1.215,0,1,1,0-2.43H25.093a1.215,1.215,0,0,1,0,2.43" transform="translate(5.644 29.293)" fill="#f2f2f2"/>
      <path id="Path_28606" data-name="Path 28606" d="M29.315,14.17A1.214,1.214,0,0,1,28.1,12.957V1.217a1.215,1.215,0,1,1,2.43,0v11.74a1.214,1.214,0,0,1-1.215,1.213" transform="translate(21.456 0.001)" fill="#f2f2f2"/>
      <path id="Path_28607" data-name="Path 28607" d="M35.441,16.009a1.215,1.215,0,0,1-1.215-1.215V3.054a1.215,1.215,0,0,1,2.43,0v11.74a1.215,1.215,0,0,1-1.215,1.215" transform="translate(26.133 1.405)" fill="#f2f2f2"/>
      <path id="Path_28608" data-name="Path 28608" d="M23.19,16.009a1.215,1.215,0,0,1-1.215-1.215V3.054a1.215,1.215,0,0,1,2.43,0v11.74a1.215,1.215,0,0,1-1.215,1.215" transform="translate(16.779 1.405)" fill="#f2f2f2"/>
      <path id="Path_28598" data-name="Path 28598" d="M40.995,54.695H5.646a1.216,1.216,0,0,1-1.215-1.217V35a1.218,1.218,0,0,1,.674-1.09L9.7,31.633a31.308,31.308,0,0,1,18.928-2.9l12.495,1.98c2.716.524,4.3,2.522,4.375,5.49v.464a7.543,7.543,0,0,1-.085.954c.021.053.034.222.048.28l.233.912c.577.053,1.146.079,1.7.079A18.8,18.8,0,0,0,64.009,28.9a1.217,1.217,0,0,1,.825-.619A1.216,1.216,0,0,1,66.5,26.652c.13.072.289.148.462.233,1.192.578,3.411,1.654,3.4,4.107A10.1,10.1,0,0,1,67.778,37a23.794,23.794,0,0,1-2.51,2.474c-.254.226-.506.45-.757.679a25.125,25.125,0,0,1-2.4,1.968L47.426,52.63a10.986,10.986,0,0,1-6.432,2.065M6.861,52.263H40.995a8.576,8.576,0,0,0,5.017-1.61L60.694,40.145a23.112,23.112,0,0,0,2.174-1.785c.259-.238.522-.471.783-.7a21.568,21.568,0,0,0,2.264-2.22,7.547,7.547,0,0,0,2.018-4.451c0-.757-.718-1.247-1.654-1.725a1.219,1.219,0,0,1-.123.785A21.2,21.2,0,0,1,44.561,41.131a1.216,1.216,0,0,1-1.018-.9l-.421-1.654a2.541,2.541,0,0,1-.1-1.425s.03-.213.041-.52v-.393c-.072-2.686-1.8-3.019-2.367-3.129L28.246,31.135a28.9,28.9,0,0,0-17.468,2.674L6.861,35.756Z" transform="translate(3.383 20.236)" fill="#f2f2f2"/>
    </g>
  </g>
</svg>
