<svg xmlns="http://www.w3.org/2000/svg" width="44" height="44" viewBox="0 0 44 44">
  <g id="Group_15235" data-name="Group 15235" transform="translate(-212.5 -6385)">
    <path id="circletwitter" d="M15,30a14.714,14.714,0,0,1-5.83-1.187A14.677,14.677,0,0,1,1.187,20.83a14.915,14.915,0,0,1,0-11.66A14.677,14.677,0,0,1,9.17,1.187a14.915,14.915,0,0,1,11.66,0A14.677,14.677,0,0,1,28.813,9.17a14.915,14.915,0,0,1,0,11.66,14.677,14.677,0,0,1-7.983,7.983A14.714,14.714,0,0,1,15,30ZM23.818,7.5a5.416,5.416,0,0,0-.527.322l-.572.381-.542.293-.615.2A3.452,3.452,0,0,0,18.9,7.5q-3.428,0-3.428,2.871V12.1A9.267,9.267,0,0,1,8.232,8.643a2.366,2.366,0,0,0-.732,1.67,3.338,3.338,0,0,0,1.436,2.93q-.176,0-.5.029a2.221,2.221,0,0,1-.512,0,1.468,1.468,0,0,1-.425-.147,3.464,3.464,0,0,0,.717,2.241,3.308,3.308,0,0,0,1.977,1.157,1.009,1.009,0,0,1-.82.352,1.328,1.328,0,0,1-.82-.263,1.955,1.955,0,0,0,1.1,1.773,5.11,5.11,0,0,0,2.476.659,3.176,3.176,0,0,1-1.538,1.187,5.84,5.84,0,0,1-2.153.4,4.407,4.407,0,0,1-1.128-.2q-.718-.205-.747-.205a3.829,3.829,0,0,0,1.919,1.612,8.728,8.728,0,0,0,3.677.673,9.666,9.666,0,0,0,3.663-.688,9.11,9.11,0,0,0,2.9-1.831,12.029,12.029,0,0,0,2.066-2.608,12.191,12.191,0,0,0,1.289-3.033A11.844,11.844,0,0,0,22.5,11.25q0-.058.352-.249a9.454,9.454,0,0,0,.82-.512,2.592,2.592,0,0,0,.7-.674q-1.582,0-2.109.058A3.936,3.936,0,0,0,23.818,7.5Z" transform="translate(219.5 6392)" fill="#f2f2f2"/>
    <rect id="Rectangle_750" data-name="Rectangle 750" width="44" height="44" transform="translate(212.5 6385)" fill="none"/>
  </g>
</svg>
