<svg xmlns="http://www.w3.org/2000/svg" width="40" height="40" viewBox="0 0 40 40">
  <g id="Group_2388" data-name="Group 2388" transform="translate(-188.94 -158.119)">
    <circle id="Ellipse_20" data-name="Ellipse 20" cx="20" cy="20" r="20" transform="translate(188.94 158.119)" fill="#3cc8c8"/>
    <path id="Path_25779" data-name="Path 25779" d="M212.276,168.522a.872.872,0,1,1-.262,1.424.887.887,0,0,1,.262-1.424m-7.3.787a.685.685,0,1,1-.081,1.273.691.691,0,0,1,.08-1.273m14.961,1.287a.683.683,0,0,1-.126-1.3c.481-.235.923.206.993.662a.749.749,0,0,1-.867.634m-13.3,1.822a1.057,1.057,0,1,1-.148,1.745,1.066,1.066,0,0,1,.148-1.745m10.529.463a1.067,1.067,0,0,1,1.9-.045,1.119,1.119,0,0,1-.7,1.549,1.1,1.1,0,0,1-1.209-1.5M211.4,174.34a1.312,1.312,0,0,1,1.262-1.236,1.388,1.388,0,0,1,1.083.7,1.245,1.245,0,0,1-.582,1.7,1.65,1.65,0,0,1-.928.081,1.35,1.35,0,0,1-.834-1.244m-10.863.993a.872.872,0,1,1-.141,1.459.884.884,0,0,1,.141-1.459m23.326,0a.869.869,0,1,1,.1,1.5.869.869,0,0,1-.1-1.5m-9.409,1.225a2.106,2.106,0,1,1-1.3,2.734,2.116,2.116,0,0,1,1.3-2.734m-5.175.1a2.105,2.105,0,1,1-.982,2.849,2.123,2.123,0,0,1,.982-2.849m-5.182,1.772a1.323,1.323,0,0,1,1.268-1.082,1.4,1.4,0,0,1,1.232,1.233,1.314,1.314,0,0,1-1.228,1.276,1.235,1.235,0,0,1-1.272-1.427m15.307-.945a1.242,1.242,0,1,1-.093,2.149,1.251,1.251,0,0,1,.093-2.149m-12.231,3.323a2.1,2.1,0,1,1-1.356,2.937,2.123,2.123,0,0,1,1.356-2.937m9.817,0a2.107,2.107,0,1,1-1.242,3.02,2.129,2.129,0,0,1,1.242-3.02m-15.644,1.047a1.066,1.066,0,0,1,1.333,1.343,1.054,1.054,0,0,1-1.7.447,1.066,1.066,0,0,1,.371-1.79m21.212,1.126a1.2,1.2,0,0,1,1.117-1.259,1.123,1.123,0,0,1,1.015,1.1,1.056,1.056,0,0,1-1.536.932,1.425,1.425,0,0,1-.6-.774m-25.06-.746a.685.685,0,1,1-.274,1.05.7.7,0,0,1,.274-1.05Zm29.686-.011a.678.678,0,0,1,.995.32.668.668,0,0,1-.662.931c-.668.061-.885-.958-.333-1.251m-17.454,2.841a2.1,2.1,0,1,1-1.638,2.029,2.129,2.129,0,0,1,1.638-2.029m4.906,0a2.107,2.107,0,1,1-1.542,1.555,2.117,2.117,0,0,1,1.542-1.555m-9.46.785a1.242,1.242,0,1,1-.772,2.049,1.251,1.251,0,0,1,.772-2.049m14.389.039a1.241,1.241,0,1,1-.235,2.213,1.244,1.244,0,0,1,.235-2.213m4.022,4.034a.864.864,0,0,1,.877-1.212,1.069,1.069,0,0,1,.732.448c.041.336.11.736-.168.995a.865.865,0,0,1-1.44-.231m-23.053-1.054a.877.877,0,0,1,1.3.879.873.873,0,1,1-1.3-.879m11.61,1.272a1.238,1.238,0,1,1-.231,2.2,1.253,1.253,0,0,1,.231-2.2m-5.377,1.254a1.052,1.052,0,0,1,1.475.984,1.04,1.04,0,0,1-1.162,1.026,1.039,1.039,0,0,1-.313-2.01m10.892.01a1.058,1.058,0,1,1-.125,1.772,1.067,1.067,0,0,1,.125-1.772m1.894,4.683a.746.746,0,0,1,.54-1.1c.391.08.8.374.723.828a.7.7,0,0,1-1.263.276m-15.036-.394c.119-.36.408-.717.832-.624a.689.689,0,0,1,.26,1.26.738.738,0,0,1-1.092-.637m7.254.412a.864.864,0,0,1,1.26-.508c.3.129.387.464.464.749-.041.149-.078.3-.114.445a.98.98,0,0,1-.734.432.864.864,0,0,1-.877-1.119" transform="translate(-3.718 -4.714)" fill="#fff"/>
  </g>
</svg>
