<svg xmlns="http://www.w3.org/2000/svg" xmlns:xlink="http://www.w3.org/1999/xlink" width="223.396" height="65.672" viewBox="0 0 223.396 65.672">
  <defs>
    <linearGradient id="linear-gradient" y1="0.5" x2="1" y2="0.5" gradientUnits="objectBoundingBox">
      <stop offset="0" stop-color="#29c1e1"/>
      <stop offset="1" stop-color="#1ae2a0"/>
    </linearGradient>
  </defs>
  <g id="Group_15944" data-name="Group 15944" transform="translate(589.504 -927.733)">
    <g id="Group_14955" data-name="Group 14955" transform="translate(-589.504 927.733)">
      <g id="Group_14954" data-name="Group 14954">
        <path id="Path_26212" data-name="Path 26212" d="M-532.694,993.405h-37.875L-589.5,960.569l18.935-32.836h37.875l18.935,32.836Zm-35.36-4.353h32.846l16.425-28.483-16.425-28.483h-32.846l-16.425,28.483Z" transform="translate(589.504 -927.733)" fill="#fff"/>
      </g>
      <path id="Path_26213" data-name="Path 26213" d="M-519.937,983.025l8.962-15.691h-31.709l-15.854,27.461h10.456l10.626-18.405h10.973l-19.658,34.1h29.767l15.854-27.461Zm-1.664,18.405h-8.947l5.391-9.349h8.955Z" transform="translate(568.218 -954.955)" fill="url(#linear-gradient)"/>
    </g>
    <path id="Path_26214" data-name="Path 26214" d="M-298.422,986.93h-7.33v29.23h-4.1V986.93h-7.284v-3.043h18.718Z" transform="translate(-187.227 -38.601)" fill="#edecec"/>
    <path id="Path_26215" data-name="Path 26215" d="M-240.151,991.686a2.479,2.479,0,0,1,2.489-2.49,2.479,2.479,0,0,1,2.49,2.49,2.479,2.479,0,0,1-2.49,2.49A2.479,2.479,0,0,1-240.151,991.686Zm.6,4.887h3.78v23.236h-3.78Z" transform="translate(-240.151 -42.251)" fill="#edecec"/>
    <path id="Path_26216" data-name="Path 26216" d="M-181.669,983.887v32.272h-3.319l-.369-2.259a6.592,6.592,0,0,1-5.3,2.49c-4.241,0-7.607-1.107-7.607-6.869V999.47c0-5.763,3.366-6.823,7.331-6.823a7.1,7.1,0,0,1,5.486,2.028V983.887Zm-3.781,25.726v-10c0-2.214-1.429-4.057-4.518-4.057s-4.518,1.153-4.518,3.919v10.051c0,2.766,1.429,3.919,4.518,3.919S-185.449,1011.918-185.449,1009.613Z" transform="translate(-268.943 -38.601)" fill="#edecec"/>
    <path id="Path_26217" data-name="Path 26217" d="M-114.108,1024.957v3.78c0,2.766,1.475,3.919,4.564,3.919s4.472-.876,4.472-3.181v-1.014h3.781v1.014c0,5.3-3.319,6.086-8.253,6.086s-8.345-1.061-8.345-6.824v-10c0-5.763,3.319-6.823,8.253-6.823s8.345,1.061,8.345,6.823v6.224Zm0-6.224v3.319h9.036v-3.319c0-2.766-1.475-3.919-4.564-3.919S-114.108,1015.967-114.108,1018.733Z" transform="translate(-324.196 -57.865)" fill="#edecec"/>
    <path id="Path_26218" data-name="Path 26218" d="M-17.454,1005.832v3.827c0,5.532-3.6,6.5-7.976,6.5h-10.6V983.887h10.143c4.38,0,7.976.968,7.976,6.5v3.135c0,3.872-1.337,5.44-3.55,6.086C-18.976,1000.161-17.454,1001.729-17.454,1005.832Zm-8.437-18.9h-6.039v11.157h6.039c2.536,0,3.873-1.153,3.873-3.458v-4.241C-22.018,988.083-23.356,986.93-25.891,986.93Zm4.334,17.519c0-2.305-1.337-3.458-3.872-3.458h-6.5v12.125h6.5c2.535,0,3.872-1.152,3.872-3.458Z" transform="translate(-380.464 -38.601)" fill="url(#linear-gradient)"/>
    <path id="Path_26219" data-name="Path 26219" d="M50.1,991.686a2.489,2.489,0,1,1,2.489,2.49A2.479,2.479,0,0,1,50.1,991.686Zm.6,4.887h3.78v23.236H50.7Z" transform="translate(-439.673 -42.251)" fill="url(#linear-gradient)"/>
    <path id="Path_26220" data-name="Path 26220" d="M99.315,999.883H95.35v20.332H91.57V999.883H87.559v-2.9H91.57v-7.192h3.78v7.192h3.965Z" transform="translate(-465.424 -42.656)" fill="url(#linear-gradient)"/>
  </g>
</svg>
