<svg id="Group_14962" data-name="Group 14962" xmlns="http://www.w3.org/2000/svg" width="14.693" height="15" viewBox="0 0 14.693 15">
  <path id="Path_1387" data-name="Path 1387" d="M14.466,47.8h-1.4a.227.227,0,0,0-.227.227v1.993H1.856V48.031a.227.227,0,0,0-.227-.227H.227A.227.227,0,0,0,0,48.031v3.624a.227.227,0,0,0,.227.227H14.466a.227.227,0,0,0,.227-.227V48.031a.227.227,0,0,0-.227-.227" transform="translate(0 -36.883)" fill="#fff"/>
  <path id="Path_1388" data-name="Path 1388" d="M26.036,0h-4.4a.265.265,0,0,0-.265.265v1.2a.265.265,0,0,0,.265.265h4.4A.265.265,0,0,0,26.3,1.46V.265A.265.265,0,0,0,26.036,0" transform="translate(-16.491 9.805)" fill="#fff"/>
  <path id="Path_1389" data-name="Path 1389" d="M16.178,12.595,13.631,9.611a.673.673,0,0,0-.913,0l-2.546,2.984L7.626,15.579c-.2.238.051.536.457.536h2.67V18.58a.227.227,0,0,0,.227.227h4.469a.227.227,0,0,0,.227-.227V16.115h2.593c.406,0,.66-.3.457-.536Z" transform="translate(-5.828 -9.432)" fill="#fff"/>
</svg>
