<svg xmlns="http://www.w3.org/2000/svg" width="40" height="40" viewBox="0 0 40 40">
  <g id="Group_2391" data-name="Group 2391" transform="translate(-746.715 -55.798)">
    <circle id="Ellipse_21" data-name="Ellipse 21" cx="20" cy="20" r="20" transform="translate(746.715 55.798)" fill="#e84142"/>
    <path id="Path_25780" data-name="Path 25780" d="M771.052,92.863H767.17a3.118,3.118,0,0,1-1.464-.157.985.985,0,0,1-.447-.771c-.015-.29.186-.644.589-1.351l9.584-16.893c.408-.718.614-1.076.875-1.209a.991.991,0,0,1,.895,0c.26.133.467.491.875,1.209l1.97,3.439.01.017a6.454,6.454,0,0,1,.761,1.569,2.916,2.916,0,0,1,0,1.366,6.474,6.474,0,0,1-.766,1.587l-5.034,8.9-.013.023a6.377,6.377,0,0,1-.979,1.466,2.927,2.927,0,0,1-1.194.693A7.021,7.021,0,0,1,771.052,92.863Z" transform="translate(-10.004 -9.106)" fill="#fff" fill-rule="evenodd"/>
    <path id="Path_25781" data-name="Path 25781" d="M792.354,103.075h5.562a3.093,3.093,0,0,0,1.479-.162.982.982,0,0,0,.448-.776c.014-.28-.183-.62-.569-1.287l-.04-.07-2.786-4.766-.031-.054c-.392-.662-.589-1-.843-1.125a.979.979,0,0,0-.889,0c-.256.133-.462.482-.87,1.184l-2.776,4.766-.01.016c-.406.7-.609,1.052-.595,1.34a1,1,0,0,0,.447.776A3.148,3.148,0,0,0,792.354,103.075Z" transform="translate(-21.504 -19.318)" fill="#fff" fill-rule="evenodd"/>
  </g>
</svg>
