<svg xmlns="http://www.w3.org/2000/svg" width="14.693" height="15" viewBox="0 0 14.693 15">
  <g id="Group_14962" data-name="Group 14962" transform="translate(0 0)">
    <path id="Path_1387" data-name="Path 1387" d="M14.466,47.8h-1.4a.227.227,0,0,0-.227.227v1.993H1.856V48.031a.227.227,0,0,0-.227-.227H.227A.227.227,0,0,0,0,48.031v3.624a.227.227,0,0,0,.227.227H14.466a.227.227,0,0,0,.227-.227V48.031a.227.227,0,0,0-.227-.227" transform="translate(0 -36.883)" fill="#fff"/>
    <path id="Path_1388" data-name="Path 1388" d="M26.035,1.725h-4.4a.265.265,0,0,1-.265-.265V.265A.265.265,0,0,1,21.639,0h4.4A.265.265,0,0,1,26.3.265v1.2a.265.265,0,0,1-.265.265" transform="translate(-16.491 0)" fill="#fff"/>
    <path id="Path_1389" data-name="Path 1389" d="M16.177,15.645l-2.546,2.984a.673.673,0,0,1-.913,0l-2.546-2.984L7.626,12.66c-.2-.238.051-.536.457-.536h2.669V9.659a.227.227,0,0,1,.227-.227h4.468a.227.227,0,0,1,.227.227v2.465h2.593c.406,0,.66.3.457.536Z" transform="translate(-5.828 -7.277)" fill="#fff"/>
  </g>
</svg>
