<svg xmlns="http://www.w3.org/2000/svg" width="31.495" height="27.001" viewBox="0 0 31.495 27.001">
  <g id="Group_15205" data-name="Group 15205" transform="translate(-151.754 0)">
    <path id="Path_1" data-name="Path 1" d="M6.209,4.788A1,1,0,0,0,4.8,6.2l25,25.01a.991.991,0,0,0,.963.253.974.974,0,0,0,.45-.26,1,1,0,0,0,0-1.406Z" transform="translate(149.504 -4.499)" fill="#404a55"/>
    <g id="Group_2" data-name="Group 2" transform="translate(151.754 3.376)">
      <path id="Path_2" data-name="Path 2" d="M18.3,24.321a6.322,6.322,0,0,1-6.012-9.028L8.529,11.531a49.321,49.321,0,0,0-5.984,5.716,1.112,1.112,0,0,0-.007,1.5c4.563,5.041,8.585,9.38,15.448,9.38a13.538,13.538,0,0,0,5.787-1.35l-3.059-3.059A6.389,6.389,0,0,1,18.3,24.321Z" transform="translate(-2.252 -7.875)" fill="#404a55"/>
      <path id="Path_3" data-name="Path 3" d="M33.455,18.7a1.1,1.1,0,0,0,.035-1.455c-3.677-4.465-8.775-9.373-15.5-9.373A13.162,13.162,0,0,0,12.22,9.211l3.073,3.073a6.2,6.2,0,0,1,2.412-.6,6.322,6.322,0,0,1,6.012,9.028l3.762,3.762A46.51,46.51,0,0,0,33.455,18.7Z" transform="translate(-2.252 -7.875)" fill="#404a55"/>
      <path id="Path_4" data-name="Path 4" d="M13.514,18.345a4.518,4.518,0,0,0,4.141,4.141A4.4,4.4,0,0,0,19.3,22.3L13.69,16.692A4.6,4.6,0,0,0,13.514,18.345Z" transform="translate(-2.252 -7.875)" fill="#404a55"/>
      <path id="Path_5" data-name="Path 5" d="M22.5,18c0-.091-.007-.183-.007-.274a3.118,3.118,0,0,1-1.28.274c-.077,0-.148,0-.218-.007L22.3,19.308A4.5,4.5,0,0,0,22.5,18Z" transform="translate(-2.252 -7.875)" fill="#404a55"/>
      <path id="Path_6" data-name="Path 6" d="M18,14.7a3.3,3.3,0,0,1,.218-1.188c-.07,0-.141-.007-.218-.007a4.448,4.448,0,0,0-1.3.2l1.315,1.315C18.007,14.906,18,14.8,18,14.7Z" transform="translate(-2.252 -7.875)" fill="#404a55"/>
    </g>
  </g>
</svg>
