<svg xmlns="http://www.w3.org/2000/svg" xmlns:xlink="http://www.w3.org/1999/xlink" width="72.423" height="80" viewBox="0 0 72.423 80">
  <defs>
    <clipPath id="clip-path">
      <rect id="Rectangle_1568" data-name="Rectangle 1568" width="72.423" height="80" fill="#f2f2f2"/>
    </clipPath>
  </defs>
  <g id="Group_15867" data-name="Group 15867" transform="translate(0 0)">
    <g id="Group_15866" data-name="Group 15866" transform="translate(0 0)" clip-path="url(#clip-path)">
      <path id="Path_28609" data-name="Path 28609" d="M42.244,34.59H30.763A3.1,3.1,0,0,1,27.671,31.5V28.7a1.326,1.326,0,0,1,2.651,0v2.8a.441.441,0,0,0,.441.441H42.244a.441.441,0,0,0,.441-.441V22.96a.442.442,0,0,0-.441-.442H30.763a3.094,3.094,0,0,1-3.092-3.092V10.889A3.1,3.1,0,0,1,30.763,7.8H42.244a3.1,3.1,0,0,1,3.092,3.092v2.8a1.326,1.326,0,0,1-2.651,0v-2.8a.441.441,0,0,0-.441-.441H30.763a.441.441,0,0,0-.441.441v8.538a.44.44,0,0,0,.441.441H42.244a3.1,3.1,0,0,1,3.092,3.093V31.5a3.1,3.1,0,0,1-3.092,3.092" transform="translate(9.173 2.585)" fill="#29c1e1"/>
      <path id="Path_28610" data-name="Path 28610" d="M34.635,32.4A1.325,1.325,0,0,1,33.31,31.07V23.178a1.326,1.326,0,0,1,2.651,0V31.07A1.326,1.326,0,0,1,34.635,32.4" transform="translate(11.043 7.245)" fill="#29c1e1"/>
      <path id="Path_28611" data-name="Path 28611" d="M34.635,16.488a1.325,1.325,0,0,1-1.325-1.326V7.271a1.326,1.326,0,1,1,2.651,0v7.891a1.326,1.326,0,0,1-1.326,1.326" transform="translate(11.043 1.971)" fill="#29c1e1"/>
      <path id="Path_28612" data-name="Path 28612" d="M71.1,80H19.5a1.326,1.326,0,0,1-1.326-1.326V10.415a7.763,7.763,0,0,0-15.527,0V27.963h8.528a1.326,1.326,0,1,1,0,2.651H1.326A1.326,1.326,0,0,1,0,29.288V10.415A10.427,10.427,0,0,1,10.415,0H59.476A12.961,12.961,0,0,1,72.423,12.946V78.674A1.325,1.325,0,0,1,71.1,80M20.829,77.349H69.772v-64.4a10.307,10.307,0,0,0-10.3-10.294H17.35a10.389,10.389,0,0,1,3.479,7.763Z" transform="translate(0 0)" fill="#f2f2f2"/>
      <path id="Path_28613" data-name="Path 28613" d="M54.969,54.287H22.408a1.326,1.326,0,1,1,0-2.651H54.969a1.326,1.326,0,1,1,0,2.651" transform="translate(6.989 17.119)" fill="#f2f2f2"/>
      <path id="Path_28614" data-name="Path 28614" d="M54.969,48.105H22.408a1.326,1.326,0,1,1,0-2.651H54.969a1.326,1.326,0,1,1,0,2.651" transform="translate(6.989 15.069)" fill="#f2f2f2"/>
      <path id="Path_28615" data-name="Path 28615" d="M54.969,41.923H22.408a1.326,1.326,0,1,1,0-2.651H54.969a1.326,1.326,0,1,1,0,2.651" transform="translate(6.989 13.02)" fill="#f2f2f2"/>
      <path id="Path_28616" data-name="Path 28616" d="M54.969,35.742H22.408a1.326,1.326,0,1,1,0-2.651H54.969a1.326,1.326,0,1,1,0,2.651" transform="translate(6.989 10.971)" fill="#f2f2f2"/>
    </g>
  </g>
</svg>
