<svg xmlns="http://www.w3.org/2000/svg" xmlns:xlink="http://www.w3.org/1999/xlink" width="84.404" height="80" viewBox="0 0 84.404 80">
  <defs>
    <clipPath id="clip-path">
      <rect id="Rectangle_1570" data-name="Rectangle 1570" width="84.404" height="80" fill="#f2f2f2"/>
    </clipPath>
  </defs>
  <g id="Group_15870" data-name="Group 15870" clip-path="url(#clip-path)">
    <path id="Path_28628" data-name="Path 28628" d="M59.223,24.846A1.121,1.121,0,0,1,58.1,23.725V21.483a1.121,1.121,0,1,1,2.243,0v2.241a1.121,1.121,0,0,1-1.121,1.121" transform="translate(24.061 8.433)" fill="#f2f2f2"/>
    <path id="Path_28629" data-name="Path 28629" d="M61.2,20.553a1.121,1.121,0,0,1-1.12-1.121V15.056a1.121,1.121,0,0,1,2.241,0v4.375A1.121,1.121,0,0,1,61.2,20.553M58.343,8.274a1.12,1.12,0,0,1-.73-.27,7.052,7.052,0,0,0-3.37-1.594A1.121,1.121,0,0,1,54.63,4.2a9.3,9.3,0,0,1,4.443,2.1,1.121,1.121,0,0,1-.73,1.973" transform="translate(22.079 1.734)" fill="#f2f2f2"/>
    <path id="Path_28630" data-name="Path 28630" d="M48.9,6.339H46.656a1.121,1.121,0,1,1,0-2.241H48.9a1.121,1.121,0,1,1,0,2.241" transform="translate(18.856 1.698)" fill="#f2f2f2"/>
    <path id="Path_28631" data-name="Path 28631" d="M59.223,41.573A1.121,1.121,0,0,1,58.1,40.452V23.068a1.121,1.121,0,0,1,2.243,0V40.452a1.121,1.121,0,0,1-1.121,1.121" transform="translate(24.061 9.089)" fill="#f2f2f2"/>
    <path id="Path_28632" data-name="Path 28632" d="M83.283,48.419a1.121,1.121,0,0,0-1.12,1.121v3.627a7.077,7.077,0,0,1-7.069,7.068H9.349A7.077,7.077,0,0,1,2.28,53.168V15.106A7.077,7.077,0,0,1,9.349,8.036H65.511a1.121,1.121,0,1,0,0-2.241H9.322V4.661A4.661,4.661,0,0,0,0,4.661V23.177H.038v29.99c0,.232.018.458.035.686H.038V75.338a4.661,4.661,0,0,0,9.322,0V62.478H75.093a9.322,9.322,0,0,0,9.31-9.31V49.54a1.121,1.121,0,0,0-1.121-1.121M4.661,1.949A2.714,2.714,0,0,1,7.372,4.661V6.01A9.321,9.321,0,0,0,1.949,9.477V4.661A2.715,2.715,0,0,1,4.661,1.949M4.7,78.05a2.713,2.713,0,0,1-2.711-2.712V58.847a9.31,9.31,0,0,0,5.423,3.425V75.338A2.715,2.715,0,0,1,4.7,78.05" transform="translate(0 0.001)" fill="#f2f2f2"/>
    <path id="Path_28633" data-name="Path 28633" d="M27.725,44.838H23.87a1.121,1.121,0,0,1,0-2.241h3.855a1.121,1.121,0,1,1,0,2.241" transform="translate(9.421 17.64)" fill="#f2f2f2"/>
    <path id="Path_28634" data-name="Path 28634" d="M37.629,44.838H33.774a1.121,1.121,0,0,1,0-2.241h3.855a1.121,1.121,0,1,1,0,2.241" transform="translate(13.522 17.64)" fill="#f2f2f2"/>
    <path id="Path_28635" data-name="Path 28635" d="M53.1,45.416H18.642a3.306,3.306,0,0,1-2.83-5.019L33.044,11.93a3.309,3.309,0,0,1,5.659,0L55.934,40.4a3.306,3.306,0,0,1-2.83,5.019M35.873,12.577a1.046,1.046,0,0,0-.911.513L17.73,41.558a1.064,1.064,0,0,0,.912,1.616H53.1a1.064,1.064,0,0,0,.912-1.616L36.784,13.091a1.046,1.046,0,0,0-.911-.513" transform="translate(6.348 4.281)" fill="#29c1e1"/>
    <path id="Path_28636" data-name="Path 28636" d="M30.185,29.982a1.121,1.121,0,0,1-1.121-1.121V17.512a1.121,1.121,0,0,1,2.243,0V28.861a1.121,1.121,0,0,1-1.121,1.121" transform="translate(12.036 6.788)" fill="#29c1e1"/>
    <path id="Path_28637" data-name="Path 28637" d="M30.855,33.894a3.409,3.409,0,1,1,3.409-3.409,3.414,3.414,0,0,1-3.409,3.409m0-4.577a1.168,1.168,0,1,0,1.168,1.168,1.169,1.169,0,0,0-1.168-1.168" transform="translate(11.366 11.213)" fill="#29c1e1"/>
  </g>
</svg>
