<svg xmlns="http://www.w3.org/2000/svg" xmlns:xlink="http://www.w3.org/1999/xlink" width="86.41" height="80" viewBox="0 0 86.41 80">
  <defs>
    <clipPath id="clip-path">
      <rect id="Rectangle_1569" data-name="Rectangle 1569" width="86.41" height="80" fill="#f2f2f2"/>
    </clipPath>
  </defs>
  <g id="Group_15869" data-name="Group 15869" transform="translate(0 0)">
    <g id="Group_15868" data-name="Group 15868" transform="translate(0 0)" clip-path="url(#clip-path)">
      <path id="Path_28617" data-name="Path 28617" d="M61.737,66.791a1.3,1.3,0,0,1-1.3-1.3V61.6H36.212a1.3,1.3,0,0,1,0-2.6H61.737a1.3,1.3,0,0,1,1.3,1.3v2.462l9.4-7.638-9.4-7.638v2.463a1.3,1.3,0,0,1-1.3,1.3H36.212a1.3,1.3,0,0,1,0-2.6H60.44V44.762a1.3,1.3,0,0,1,2.116-1.008L75.318,54.119a1.3,1.3,0,0,1,0,2.016L62.556,66.5a1.3,1.3,0,0,1-.819.291" transform="translate(10.611 13.209)" fill="#f2f2f2"/>
      <path id="Path_28618" data-name="Path 28618" d="M43.732,54.01H32.914a1.3,1.3,0,0,1,0-2.6H43.732a1.3,1.3,0,1,1,0,2.6" transform="translate(9.609 15.625)" fill="#f2f2f2"/>
      <path id="Path_28619" data-name="Path 28619" d="M34.157,40.779a4.753,4.753,0,0,1-4.137-2.42,1.3,1.3,0,0,1,2.261-1.274,2.15,2.15,0,1,0,1.876-3.2,4.746,4.746,0,1,1,4.116-7.109,1.3,1.3,0,1,1-2.251,1.295,2.15,2.15,0,1,0-1.866,3.218,4.746,4.746,0,0,1,0,9.491" transform="translate(8.938 7.413)" fill="#29c1e1"/>
      <path id="Path_28620" data-name="Path 28620" d="M32.591,46.111H20.866a1.3,1.3,0,0,1-1.214-.838,8.682,8.682,0,0,0-3.723-4.513,1.3,1.3,0,0,1-.655-1.127V27.556a1.3,1.3,0,0,1,.655-1.128,8.684,8.684,0,0,0,3.723-4.512,1.3,1.3,0,0,1,1.214-.84H32.591a1.3,1.3,0,0,1,0,2.6H21.725a11.277,11.277,0,0,1-3.854,4.6V38.913a11.269,11.269,0,0,1,3.854,4.6H32.591a1.3,1.3,0,0,1,0,2.6" transform="translate(4.642 6.405)" fill="#f2f2f2"/>
      <path id="Path_28621" data-name="Path 28621" d="M49.575,46.111H37.851a1.3,1.3,0,1,1,0-2.6H48.715a11.277,11.277,0,0,1,3.854-4.6V28.276a11.277,11.277,0,0,1-3.854-4.6H37.851a1.3,1.3,0,1,1,0-2.6H49.575a1.3,1.3,0,0,1,1.214.84,8.684,8.684,0,0,0,3.723,4.512,1.3,1.3,0,0,1,.655,1.128V39.633a1.3,1.3,0,0,1-.655,1.127,8.684,8.684,0,0,0-3.723,4.512,1.3,1.3,0,0,1-1.214.84" transform="translate(11.108 6.405)" fill="#f2f2f2"/>
      <path id="Path_28622" data-name="Path 28622" d="M22.743,40.424a1.3,1.3,0,0,1-1.253-.965,27.757,27.757,0,0,1,0-13.879A1.3,1.3,0,1,1,24,26.246a25.175,25.175,0,0,0,0,12.546,1.3,1.3,0,0,1-.922,1.587,1.277,1.277,0,0,1-.334.044" transform="translate(6.263 7.48)" fill="#29c1e1"/>
      <path id="Path_28623" data-name="Path 28623" d="M44.159,40.424a1.277,1.277,0,0,1-.334-.044,1.3,1.3,0,0,1-.922-1.587,25.175,25.175,0,0,0,0-12.546,1.3,1.3,0,1,1,2.509-.666,27.757,27.757,0,0,1,0,13.879,1.3,1.3,0,0,1-1.253.965" transform="translate(13.025 7.48)" fill="#29c1e1"/>
      <path id="Path_28624" data-name="Path 28624" d="M66.229,49.069a1.3,1.3,0,0,1-1.3-1.3V19.492H16.573a1.3,1.3,0,0,1,0-2.6H66.229a1.3,1.3,0,0,1,1.3,1.3V47.771a1.3,1.3,0,0,1-1.3,1.3" transform="translate(4.642 5.135)" fill="#f2f2f2"/>
      <path id="Path_28625" data-name="Path 28625" d="M61.708,51.988H12.052a1.3,1.3,0,0,1-1.3-1.3V20.975a1.3,1.3,0,0,1,2.6,0V49.391H61.708a1.3,1.3,0,1,1,0,2.6" transform="translate(3.269 5.98)" fill="#f2f2f2"/>
      <path id="Path_28626" data-name="Path 28626" d="M14.061,23.326a1.3,1.3,0,0,1-.819-.291L.48,12.67a1.3,1.3,0,0,1,0-2.015L13.242.291A1.3,1.3,0,0,1,15.36,1.3V5.188H39.587a1.3,1.3,0,0,1,0,2.6H14.061a1.3,1.3,0,0,1-1.3-1.3V4.024L3.358,11.662,12.764,19.3V16.839a1.3,1.3,0,0,1,1.3-1.3H39.587a1.3,1.3,0,0,1,0,2.6H15.36v3.891a1.3,1.3,0,0,1-1.3,1.3" transform="translate(0 0)" fill="#f2f2f2"/>
      <path id="Path_28627" data-name="Path 28627" d="M36.482,10.545H25.666a1.3,1.3,0,1,1,0-2.6H36.482a1.3,1.3,0,0,1,0,2.6" transform="translate(7.405 2.416)" fill="#f2f2f2"/>
    </g>
  </g>
</svg>
