<svg xmlns="http://www.w3.org/2000/svg" width="44" height="44" viewBox="0 0 44 44">
  <g id="Group_15234" data-name="Group 15234" transform="translate(-262.5 -6385)">
    <path id="reddit" d="M18.332,19.537a.319.319,0,0,1,0,.519A4.565,4.565,0,0,1,15,21.094a4.565,4.565,0,0,1-3.332-1.038.319.319,0,0,1,0-.519.362.362,0,0,1,.5,0,3.9,3.9,0,0,0,2.829.82,3.931,3.931,0,0,0,2.829-.82.362.362,0,0,1,.5,0Zm-5.14-3.03A1.485,1.485,0,0,1,11.7,18a1.469,1.469,0,0,1-1.063-.435,1.421,1.421,0,0,1-.443-1.055,1.444,1.444,0,0,1,.443-1.072A1.46,1.46,0,0,1,11.7,15a1.427,1.427,0,0,1,1.055.443,1.463,1.463,0,0,1,.435,1.063Zm6.612,0a1.425,1.425,0,0,1-.443,1.055A1.46,1.46,0,0,1,18.3,18a1.485,1.485,0,0,1-1.49-1.49,1.463,1.463,0,0,1,.435-1.063A1.427,1.427,0,0,1,18.3,15a1.46,1.46,0,0,1,1.063.435,1.444,1.444,0,0,1,.443,1.072Zm4.2-2.009A2,2,0,0,0,22,12.505a1.969,1.969,0,0,0-1.44.6A9.5,9.5,0,0,0,15.35,11.5L16.4,6.763l3.348.753a1.485,1.485,0,0,0,1.49,1.49,1.5,1.5,0,0,0,1.064-2.569,1.452,1.452,0,0,0-1.063-.443A1.421,1.421,0,0,0,19.9,6.83l-3.7-.82q-.318-.083-.418.267L14.632,11.5a9.484,9.484,0,0,0-5.173,1.624,2.023,2.023,0,0,0-2.88-.033A1.914,1.914,0,0,0,5.992,14.5,1.952,1.952,0,0,0,6.3,15.57a2,2,0,0,0,.828.737,4.29,4.29,0,0,0-.1.938,4.925,4.925,0,0,0,2.344,4.068A9.386,9.386,0,0,0,15.016,23a9.411,9.411,0,0,0,5.658-1.691,4.928,4.928,0,0,0,2.344-4.068,3.535,3.535,0,0,0-.118-.954,1.988,1.988,0,0,0,1.1-1.792ZM30,15a14.667,14.667,0,0,1-1.188,5.826,14.736,14.736,0,0,1-7.986,7.986,14.875,14.875,0,0,1-11.652,0,14.736,14.736,0,0,1-7.986-7.986,14.88,14.88,0,0,1,0-11.652A14.736,14.736,0,0,1,9.174,1.188a14.875,14.875,0,0,1,11.652,0,14.736,14.736,0,0,1,7.986,7.986A14.686,14.686,0,0,1,30,15Z" transform="translate(269 6392)" fill="#edecec"/>
    <rect id="Rectangle_751" data-name="Rectangle 751" width="44" height="44" transform="translate(262.5 6385)" fill="none"/>
  </g>
</svg>
