<svg xmlns="http://www.w3.org/2000/svg" width="40" height="40" viewBox="0 0 40 40">
  <g id="Group_2381" data-name="Group 2381" transform="translate(-301.06 -158.119)">
    <circle id="Ellipse_15" data-name="Ellipse 15" cx="20" cy="20" r="20" transform="translate(301.06 158.119)" fill="#f30504"/>
    <g id="Group_938" data-name="Group 938" transform="translate(307.601 164.776)">
      <path id="Path_8575" data-name="Path 8575" d="M348,196.439a1.591,1.591,0,0,1-.456.465,7.849,7.849,0,0,1-2.986,1.127,3.674,3.674,0,0,1-1.545.042c-.131-.066-.15-.118-.1-.287a2.288,2.288,0,0,1,.916-1.1c.254-.183,1.282-.808,1.761-1.071a6.222,6.222,0,0,1,1.86-.751.952.952,0,0,1,.352,0c.085.033.178.282.216.582A7.738,7.738,0,0,1,348,196.439Z" transform="translate(-326.71 -181.556)"/>
      <path id="Path_8576" data-name="Path 8576" d="M327.557,198.034a.511.511,0,0,1-.329.141,5.347,5.347,0,0,1-.925-.023,9.714,9.714,0,0,1-2.822-.813,3.544,3.544,0,0,1-.972-.653l-.131-.136-.014-.179a4.883,4.883,0,0,1,.018-.972,1.28,1.28,0,0,1,.146-.413c.037-.047.037-.047.207-.047a2.036,2.036,0,0,1,.662.122,12.941,12.941,0,0,1,2.484,1.24,4.308,4.308,0,0,1,1.437,1.117A.94.94,0,0,1,327.557,198.034Z" transform="translate(-317.326 -181.597)"/>
      <path id="Path_8577" data-name="Path 8577" d="M338.412,208.962c0,.014-.056.239-.127.507s-.127.484-.127.493a.822.822,0,0,1-.15,0h-.15l-.206.489c-.113.267-.216.517-.23.554l-.028.066-.1-.16-.1-.16v-1.3l-.037.01c-.08.018-.648.093-.9.117a12.8,12.8,0,0,1-3.085-.066c-.164-.024-.305-.042-.31-.038s0,.305.009.676l.014.667-.08.122c-.042.066-.085.122-.085.127s-.061-.061-.169-.277a3.168,3.168,0,0,1-.263-.714l-.033-.136-.146.01-.146.014-.038-.173c-.018-.094-.042-.24-.052-.319l-.014-.15-.122-.108c-.07-.061-.141-.122-.155-.131a.1.1,0,0,1-.033-.08v-.056l.587,0,.587,0,.018.061.019.061.2.009c.112,0,.469.014.789.023l.587.014.15-.235.155-.235h.2l0-.489,0-.488-.259-.112a2.52,2.52,0,0,1-1.5-1.291,1.779,1.779,0,0,1-.047-.611,1.884,1.884,0,0,1,.028-.611.682.682,0,0,1,.484-.479,11.228,11.228,0,0,1,1.4-.023l1.305,0,.146.071a.815.815,0,0,1,.352.277.775.775,0,0,1,.146.554,4.135,4.135,0,0,1-.07.9,1.958,1.958,0,0,1-.273.54,2.5,2.5,0,0,1-1.052.738l-.113.042,0,.493,0,.493.1.009.1.009.141.211.136.211h.63c.347,0,.652,0,.681.01.047.009.057,0,.1-.076l.057-.084h.54A1.682,1.682,0,0,1,338.412,208.962Z" transform="translate(-321.533 -185.989)"/>
      <path id="Path_8578" data-name="Path 8578" d="M337.675,214.816c-.089.052-.15.075-.165.066s-.08-.061-.15-.113l-.127-.1-.131.141c-.286.31-.3.324-.38.329-.131.014-.16-.009-.319-.249-.085-.122-.15-.225-.15-.225s-.061-.009-.131-.014l-.131-.014-.061.127-.061.127-.108-.033a2.312,2.312,0,0,1-.249-.1l-.141-.071v-.267l1.249,0,1.249,0,0,.127C337.877,214.7,337.881,214.7,337.675,214.816Z" transform="translate(-323.274 -190.495)"/>
      <path id="Path_8579" data-name="Path 8579" d="M339.241,202.713c0-.019,0-.052-.009-.1a9.987,9.987,0,0,0-7.33,2.268s-.962-4.414-5.47-4.414-6.18,4.414-6.18,4.414a8.116,8.116,0,0,0-7.128-2.343c0,.028,0,.061,0,.089a4.1,4.1,0,0,0,.094,1.432,9.181,9.181,0,0,0,3.137,4.259,18.086,18.086,0,0,0,9.42,4.273c2.981.2,7.382-1.54,10.312-4.085a14.645,14.645,0,0,0,1.3-1.3,7.087,7.087,0,0,0,.69-.92c-.009,0,0-.009.019-.019s.028-.023.018-.033,0-.019.019-.023.023-.014.018-.024,0-.018.019-.023a.021.021,0,0,0,.014-.028.012.012,0,0,1,.009-.018c.01,0,.019-.014.019-.024s.009-.023.018-.023a.02.02,0,0,0,.019-.018.48.48,0,0,1,.061-.108c.071-.108.353-.611.39-.7a6.469,6.469,0,0,0,.517-1.685A5.642,5.642,0,0,0,339.241,202.713ZM327.5,208.442c-.089.052-.15.075-.165.066s-.08-.061-.15-.113l-.127-.1-.131.141c-.286.31-.3.324-.38.329-.131.014-.16-.009-.319-.249-.085-.122-.15-.225-.15-.225s-.061-.009-.131-.014l-.131-.014-.061.127-.061.127-.108-.033a2.311,2.311,0,0,1-.249-.1l-.141-.071v-.267l1.249,0,1.249,0,0,.127C327.7,208.329,327.709,208.324,327.5,208.442Zm2.348-.845c-.07.267-.127.483-.127.493a.82.82,0,0,1-.15,0h-.15l-.2.493c-.113.267-.216.517-.23.554l-.028.066-.1-.16-.1-.16v-1.3l-.037.01c-.08.018-.648.093-.9.117a12.8,12.8,0,0,1-3.085-.066c-.164-.024-.305-.042-.31-.038s0,.305.009.676l.014.667-.08.122c-.042.066-.085.122-.085.127s-.061-.061-.169-.277a3.167,3.167,0,0,1-.263-.714l-.033-.136-.146.01-.146.014-.038-.173c-.018-.094-.042-.24-.052-.319l-.014-.15-.122-.108c-.07-.061-.141-.122-.155-.131a.1.1,0,0,1-.033-.08v-.056l.587,0,.587,0,.018.061.019.061.2.009c.112,0,.469.014.789.023l.587.014.15-.235.155-.235h.2l0-.489,0-.488-.259-.112a2.52,2.52,0,0,1-1.5-1.291,1.779,1.779,0,0,1-.047-.611,1.885,1.885,0,0,1,.028-.611.682.682,0,0,1,.484-.479,11.228,11.228,0,0,1,1.4-.023l1.305,0,.146.071a.815.815,0,0,1,.352.277.775.775,0,0,1,.146.554,4.133,4.133,0,0,1-.07.9,1.957,1.957,0,0,1-.273.54,2.5,2.5,0,0,1-1.052.738l-.113.042,0,.493,0,.493.1.009.1.009.141.211.136.211h.63c.347,0,.652,0,.681.01.047.009.056,0,.1-.076l.057-.084h.54a2.284,2.284,0,0,1,.54.018A3.266,3.266,0,0,0,329.85,207.6Z" transform="translate(-313.102 -184.121)" fill="#fff"/>
      <path id="Path_8580" data-name="Path 8580" d="M313.125,204.276" transform="translate(-313.112 -185.862)" fill="none"/>
      <path id="Path_8582" data-name="Path 8582" d="M339.215,188.489c-.009-.211-.028-.507-.042-.653a13.766,13.766,0,0,0-1.779-5.719,1.6,1.6,0,0,1-.1-.2.223.223,0,0,1-.019-.037h0c.146-.437.742-2.263,1.216-4.353.644-2.836,1.052-6.151-.2-7.146,0,0-2.16-.16-5.053,2.676a19.432,19.432,0,0,0-2.141,2.54l-.2-.066a14.666,14.666,0,0,0-3.588-.695c-.366-.028-1.733-.028-2.179,0a12.668,12.668,0,0,0-3.554.7c-.047.018-.089.033-.131.047a19.077,19.077,0,0,0-2.212-2.521c-3.01-2.85-5.25-2.686-5.25-2.686-1.324,1.028-.873,4.494-.188,7.424.451,1.939,1,3.644,1.211,4.259a.963.963,0,0,1-.052.1,17.034,17.034,0,0,0-1.827,6.626,8.111,8.111,0,0,1,7.133,2.343s1.672-4.414,6.18-4.414,5.471,4.414,5.471,4.414a10.007,10.007,0,0,1,7.33-2.268C339.234,188.771,339.224,188.63,339.215,188.489Zm-23.324-8.2s-1.756-4.39-1.305-6.9h0a2.421,2.421,0,0,1,.437-1.075s1.991.2,5.2,3.766a9.145,9.145,0,0,0-1.427.925.018.018,0,0,1-.01,0,11.29,11.29,0,0,0-2.9,3.278Zm7.452,6.522a.512.512,0,0,1-.329.141,5.348,5.348,0,0,1-.925-.023,9.715,9.715,0,0,1-2.822-.813,3.544,3.544,0,0,1-.972-.653l-.131-.136-.014-.179a4.884,4.884,0,0,1,.018-.972,1.281,1.281,0,0,1,.146-.413c.037-.047.037-.047.207-.047a2.036,2.036,0,0,1,.662.122,12.94,12.94,0,0,1,2.484,1.24A4.308,4.308,0,0,1,323.1,186.2.939.939,0,0,1,323.343,186.813Zm11.063-1.555a1.59,1.59,0,0,1-.456.465,7.849,7.849,0,0,1-2.986,1.127,3.674,3.674,0,0,1-1.545.042c-.131-.066-.15-.118-.1-.287a2.289,2.289,0,0,1,.916-1.1c.254-.183,1.282-.808,1.761-1.071a6.222,6.222,0,0,1,1.86-.751.952.952,0,0,1,.352,0c.085.033.178.282.216.582A7.744,7.744,0,0,1,334.406,185.258Zm-.779-8.25-.01,0a8.784,8.784,0,0,0-1.38-.925c3.1-3.569,5.024-3.766,5.024-3.766a2.542,2.542,0,0,1,.423,1.075h0c.437,2.507-1.259,6.9-1.259,6.9a11.18,11.18,0,0,0-2.8-3.282Z" transform="translate(-313.112 -170.376)" fill="#ffa409"/>
      <path id="Path_8583" data-name="Path 8583" d="M346.181,179.992c-.009.01-.014.023-.023.033" transform="translate(-328.203 -174.769)" fill="none"/>
      <path id="Path_8584" data-name="Path 8584" d="M357.542,191.551c-.023.066-.033.1-.033.1" transform="translate(-333.388 -180.049)" fill="none"/>
      <g id="Group_934" data-name="Group 934" transform="translate(19.125 1.937)">
        <g id="Group_933" data-name="Group 933">
          <g id="Group_932" data-name="Group 932">
            <path id="Path_8585" data-name="Path 8585" d="M353.763,175.016c-.367-.047-2.1-.056-4.062,3.62l-.01,0a8.785,8.785,0,0,0-1.38-.925c3.1-3.569,5.024-3.766,5.024-3.766A2.491,2.491,0,0,1,353.763,175.016Z" transform="translate(-348.311 -173.941)" fill="#ff9300"/>
          </g>
          <path id="Path_8586" data-name="Path 8586" d="M353.673,182.816a11.142,11.142,0,0,0-2.8-3.282c1.962-3.677,3.691-3.667,4.062-3.62h0C355.369,178.425,353.673,182.816,353.673,182.816Z" transform="translate(-349.48 -174.838)" fill="#ff8300"/>
          <path id="Path_8587" data-name="Path 8587" d="M358.418,175.935l-.07-.014Z" transform="translate(-352.896 -174.846)" fill="#ff8300"/>
        </g>
      </g>
      <path id="Path_8588" data-name="Path 8588" d="M328.573,180.163c-.047-.066-.1-.131-.146-.2" transform="translate(-320.103 -174.757)" fill="none"/>
      <path id="Path_8589" data-name="Path 8589" d="M316.583,191.888c.052.16.085.244.085.244" transform="translate(-314.692 -180.203)" fill="none"/>
      <g id="Group_937" data-name="Group 937" transform="translate(1.398 1.937)">
        <g id="Group_936" data-name="Group 936">
          <g id="Group_935" data-name="Group 935" transform="translate(0.07)">
            <path id="Path_8590" data-name="Path 8590" d="M321.45,177.707a9.2,9.2,0,0,0-1.427.925.017.017,0,0,1-.01,0c-2.033-3.682-3.822-3.667-4.207-3.62a2.422,2.422,0,0,1,.437-1.075S318.238,174.138,321.45,177.707Z" transform="translate(-315.805 -173.941)" fill="#ff9300"/>
          </g>
          <path id="Path_8591" data-name="Path 8591" d="M319.959,179.533a11.251,11.251,0,0,0-2.9,3.282s-1.756-4.39-1.305-6.9h0C316.132,175.866,317.926,175.857,319.959,179.533Z" transform="translate(-315.677 -174.838)" fill="#ff8300"/>
          <path id="Path_8592" data-name="Path 8592" d="M315.751,175.921l-.075.014Z" transform="translate(-315.676 -174.846)" fill="#ff8300"/>
        </g>
      </g>
      <path id="Path_8593" data-name="Path 8593" d="M346.162,191.134s-1.5.094-1.315-1.08a1.552,1.552,0,0,1,1.691-1.268c.329.047,1.643.517,1.408,1.5s-.563.8-.751.845A7.4,7.4,0,0,1,346.162,191.134Z" transform="translate(-327.597 -178.783)" fill="#fff"/>
      <path id="Path_8594" data-name="Path 8594" d="M325.76,191.134s-1.5.094-1.315-1.08a1.551,1.551,0,0,1,1.69-1.268c.329.047,1.644.517,1.409,1.5s-.564.8-.751.845A7.4,7.4,0,0,1,325.76,191.134Z" transform="translate(-318.276 -178.783)" fill="#fff"/>
    </g>
  </g>
</svg>
