<svg xmlns="http://www.w3.org/2000/svg" width="40" height="40" viewBox="0 0 40 40">
  <g id="Group_2374" data-name="Group 2374" transform="translate(-76.821 -158.119)">
    <path id="Path_25769" data-name="Path 25769" d="M96.821,158.119a20,20,0,1,1-20,20,20,20,0,0,1,20-20" fill="#f0b90b"/>
    <path id="Path_25770" data-name="Path 25770" d="M101.591,181.577l3.028-3.018.638-.638,1.513-1.513,5.153,5.17,3-3.018-8.153-8.167-8.18,8.167Z" transform="translate(-9.945 -5.607)" fill="#fff"/>
    <rect id="Rectangle_728" data-name="Rectangle 728" width="4.26" height="4.26" transform="matrix(0.707, -0.707, 0.707, 0.707, 93.818, 178.114)" fill="#fff"/>
    <path id="Path_25771" data-name="Path 25771" d="M111.925,198.907l-5.155,5.155-1.81-1.81-.333-.333-3.035-3.012-3,3,8.18,8.167,8.153-8.167Z" transform="translate(-9.945 -18.633)" fill="#fff"/>
    <rect id="Rectangle_729" data-name="Rectangle 729" width="4.26" height="4.26" transform="matrix(0.707, -0.707, 0.707, 0.707, 83.488, 178.122)" fill="#fff"/>
    <rect id="Rectangle_730" data-name="Rectangle 730" width="4.26" height="4.26" transform="translate(104.131 178.121) rotate(-45)" fill="#fff"/>
  </g>
</svg>
