<svg xmlns="http://www.w3.org/2000/svg" width="44" height="38.775" viewBox="0 0 44 38.775">
  <g id="Group_2411" data-name="Group 2411" transform="translate(-92.434 -85.063)">
    <path id="Path_25919" data-name="Path 25919" d="M115.471,85.354c-3.2.136-6.2,3.316-8.463,6.832H106.6c-8.891,0-10.027,4.729-11.921,8.9a17.257,17.257,0,0,0-1.131,4.278,11.646,11.646,0,0,1-.83-7.5c1.3-5.769,15.679-13.717,21.85-12.712A6.789,6.789,0,0,1,115.471,85.354Z" fill="#f4a32b"/>
    <path id="Path_25920" data-name="Path 25920" d="M814.158,908.3c-3.263,2.4-8.769,1.656-14.412-.325,1.462-.539,3.04-1.161,4.759-1.85a33.939,33.939,0,0,0,12.183-7.784C817.285,902.607,816.692,906.438,814.158,908.3Z" transform="translate(-684.188 -786.692)" fill="#f4a32b"/>
    <path id="Path_25921" data-name="Path 25921" d="M139.96,302.922a39.237,39.237,0,0,0-2.583,4.729c-1.33,2.894-4.186,9.974-4.355,16.179A21.425,21.425,0,0,1,126.5,316.1a17.257,17.257,0,0,1,1.131-4.278c1.894-4.166,3.03-8.9,11.921-8.9Z" transform="translate(-32.952 -210.737)" fill="#f7b633"/>
    <path id="Path_25922" data-name="Path 25922" d="M132.337,723.725c-4.623,1.107-7.963.772-11.658-1.423-4.6-2.729-5.1-10.862-4.254-16.441a21.426,21.426,0,0,0,6.521,7.735c-.112,3.933.859,7.517,3.977,9.464A7.387,7.387,0,0,0,132.337,723.725Z" transform="translate(-22.878 -600.502)" fill="#f4a32b"/>
    <path id="Path_25923" data-name="Path 25923" d="M802.752,762.292a33.939,33.939,0,0,1-12.183,7.784c-1.719.69-3.3,1.311-4.759,1.85l-.471-.175c6.594-3.433,13.552-9.915,16.373-14.057A30.123,30.123,0,0,1,802.752,762.292Z" transform="translate(-670.253 -650.641)" fill="#f7b633"/>
    <path id="Path_25924" data-name="Path 25924" d="M1254.62,423.009c-.131,2.093-1.326,4.8-3.918,7.56a30.138,30.138,0,0,0-1.039-4.6,8.063,8.063,0,0,0,1.253-2.481c.592-2.671-.714-5.856-2.486-8.73C1252.27,416.536,1254.863,419.153,1254.62,423.009Z" transform="translate(-1118.202 -318.917)" fill="#f4a32b"/>
    <path id="Path_25925" data-name="Path 25925" d="M555.554,102.509a82.544,82.544,0,0,0-17.354-1.724c2.268-3.515,5.259-6.7,8.463-6.832h.01C550.062,94.919,552.437,98.017,555.554,102.509Z" transform="translate(-431.192 -8.599)" fill="#f7b633"/>
    <path id="Path_25926" data-name="Path 25926" d="M340.731,950.472a68.27,68.27,0,0,1-10.192-4.8,39.521,39.521,0,0,1-4.827-3.219c-.112,3.933.859,7.517,3.977,9.464a7.387,7.387,0,0,0,5.414.665c.7-.17,1.428-.369,2.195-.607,1.2-.364,2.5-.811,3.9-1.33Z" transform="translate(-225.644 -829.361)" fill="#f7b633"/>
    <path id="Path_25927" data-name="Path 25927" d="M357.356,317.79c-2.821,4.142-9.308,10.8-15.9,14.232a65.714,65.714,0,0,1-10.663-4.972,39.521,39.521,0,0,1-4.827-3.219c.17-6.206,3.025-13.285,4.356-16.179a39.235,39.235,0,0,1,2.583-4.729,82.542,82.542,0,0,1,17.354,1.724c.83,1.194,1.709,2.486,2.676,3.86A33.966,33.966,0,0,1,357.356,317.79Z" transform="translate(-225.895 -210.737)" fill="#f9c53d"/>
    <path id="Path_25928" data-name="Path 25928" d="M812.117,104.113a31.122,31.122,0,0,0-5.866-1.933c-3.117-4.491-5.492-7.589-8.881-8.556a13,13,0,0,1,9.808,4A49.122,49.122,0,0,1,812.117,104.113Z" transform="translate(-681.889 -8.271)" fill="#f4a32b"/>
    <path id="Path_25929" data-name="Path 25929" d="M1077.367,366.311a8.063,8.063,0,0,1-1.253,2.481,33.964,33.964,0,0,0-4.423-9.284c-.966-1.374-1.845-2.666-2.675-3.86a31.123,31.123,0,0,1,5.866,1.933C1076.653,360.455,1077.959,363.64,1077.367,366.311Z" transform="translate(-944.653 -261.739)" fill="#f7b633"/>
    <path id="Path_25930" data-name="Path 25930" d="M534.845,154.829h-1.309V129.621l-2.015-2.445-.015.012v-.012h-4.5a7.208,7.208,0,0,1-2.613,2.894c-1.6.808-4.355,2.042-4.355,2.042l2.032,4.718,3.7-1.815V154.83h-3.919v4.137h0l1.987,1.975h13.544v-3.67Zm-1.792-25.035V154.83h-1.836l.283-26.92Zm3.857,30.671H524.034l-1.5-1.5h12.316V155.49l2.064,1.984Z" transform="translate(-413.625 -40.736)" fill="#fff"/>
  </g>
</svg>
