<svg width="50" height="45" viewBox="0 0 50 45" fill="none" xmlns="http://www.w3.org/2000/svg">
<g id="iSunOne_logo" clip-path="url(#clip0_9_1368)">
<path id="Vector" d="M26.1784 0.330327C22.5368 0.484878 19.1379 4.09898 16.561 8.09388H16.0974C5.99439 8.09388 4.703 13.4682 2.55119 18.2024C2.03255 19.3393 1.57447 21.0553 1.26574 23.0637C0.0516325 20.3765 -0.345517 17.5181 0.322096 14.5441C1.80073 7.98911 18.1389 -1.04354 25.1519 0.0985017C25.5053 0.153857 25.847 0.230761 26.1781 0.330327H26.1784Z" fill="#F4A32B"/>
<path id="Vector_2" d="M42.6544 41.5317C38.9463 44.2575 32.6893 43.4134 26.2776 41.162C27.9387 40.5494 29.7316 39.8432 31.6851 39.0596C38.1134 36.4772 42.5991 33.3212 45.5292 30.2146C46.208 35.0592 45.5348 39.4126 42.6544 41.5317Z" fill="#F4A32B"/>
<path id="Vector_3" d="M16.561 8.09381C15.3967 9.90383 14.3981 11.7908 13.6257 13.4682C12.114 16.7568 8.86917 24.8016 8.67635 31.8533C5.33272 29.2379 2.71725 26.275 1.26611 23.0636C1.57521 21.0552 2.03292 19.3392 2.55156 18.2024C4.70337 13.4682 5.99476 8.09381 16.0977 8.09381H16.5614H16.561Z" fill="#F7B633"/>
<path id="Vector_4" d="M19.3474 43.3636C14.0946 44.6216 10.2984 44.2408 6.09918 41.7468C0.873816 38.6457 0.299825 29.4036 1.26576 23.0637C2.7169 26.275 5.33237 29.2382 8.67601 31.8533C8.54895 36.3227 9.65272 40.3948 13.1951 42.6076C14.8781 43.656 16.9968 43.8213 19.3474 43.3636Z" fill="#F4A32B"/>
<path id="Vector_5" d="M45.5292 30.2146C42.5994 33.3212 38.1134 36.4772 31.6851 39.0597C29.7316 39.8432 27.9383 40.5494 26.2777 41.1621C26.1012 41.0959 25.9192 41.0298 25.7423 40.9633C33.2354 37.0624 41.1424 29.696 44.3482 24.9893C44.8835 26.7439 45.2918 28.5097 45.5288 30.2146H45.5292Z" fill="#F7B633"/>
<path id="Vector_6" d="M49.9822 21.6233C49.8332 24.0014 48.4757 27.0805 45.5292 30.2146C45.2918 28.5097 44.8835 26.7439 44.3485 24.9892C45.1101 23.8691 45.6065 22.9035 45.7721 22.1698C46.4453 19.1349 44.9611 15.5152 42.9471 12.2488C47.3117 14.2684 50.2582 17.2424 49.9822 21.6237V21.6233Z" fill="#F4A32B"/>
<path id="Vector_7" d="M36.2814 10.0524C29.3843 8.43561 21.4717 8.11573 16.561 8.09344C19.1379 4.09891 22.5365 0.484812 26.1784 0.330261H26.1896C30.0411 1.42846 32.739 4.94857 36.2818 10.0528L36.2814 10.0524Z" fill="#F7B633"/>
<path id="Vector_8" d="M25.7427 40.9633C21.7203 39.501 17.6644 37.5093 14.1607 35.5116C12.1853 34.386 10.3422 33.1611 8.676 31.8533C8.54894 36.3227 9.65271 40.3948 13.1951 42.6076C14.8781 43.656 16.9968 43.8213 19.3474 43.3636C20.1421 43.1704 20.9698 42.9442 21.8414 42.6737C23.2097 42.2598 24.6831 41.7524 26.2776 41.1616C26.1012 41.0955 25.9191 41.0294 25.7423 40.9629L25.7427 40.9633Z" fill="#F7B633"/>
<path id="Vector_9" d="M44.3485 24.9892C41.1427 29.6959 33.7711 37.2607 26.2776 41.162C22.0082 39.6889 17.6644 37.5093 14.1606 35.5116C12.1853 34.3859 10.3422 33.1611 8.67596 31.8533C8.86915 24.8016 12.1136 16.7568 13.6253 13.4681C14.3977 11.7908 15.3967 9.90346 16.5606 8.09381C21.4713 8.11573 29.3839 8.43598 36.281 10.0528C37.2247 11.4103 38.2233 12.8778 39.3215 14.4393C41.3574 17.3416 43.1674 21.1269 44.3481 24.9892H44.3485Z" fill="#F9C53D"/>
<path id="Vector_10" d="M42.9468 12.2489C40.9603 11.3327 38.6814 10.6157 36.2814 10.0529C32.739 4.9486 30.0407 1.4285 26.1896 0.330297C31.4755 0.104044 35.6692 2.97326 37.3354 4.87133C38.814 6.54872 41.1041 9.25261 42.9471 12.2485L42.9468 12.2489Z" fill="#F4A32B"/>
<path id="Vector_11" d="M45.7722 22.1698C45.6065 22.9036 45.1101 23.8691 44.3485 24.9893C43.1678 21.127 41.3578 17.3416 39.3219 14.4393C38.2237 12.8779 37.2251 11.41 36.2814 10.0529C38.6818 10.6157 40.9607 11.3331 42.9468 12.2489C44.9608 15.5152 46.445 19.1349 45.7718 22.1698H45.7722Z" fill="#F7B633"/>
<path id="Vector_12" d="M32.7115 32.9887L32.7108 32.9894H31.2244V4.34264L28.9347 1.56445L28.918 1.5782V1.56445H23.8045C23.8045 1.56445 22.6498 3.93435 20.8353 4.85273C19.0208 5.77075 15.8867 7.17322 15.8867 7.17322L18.1961 12.5346L22.4024 10.4726V32.9894H17.9486V37.691H17.9501L20.2082 39.9349H35.5993V35.7639L32.7123 32.9887H32.7115ZM30.6749 4.53992V32.9894H28.5881L28.9091 2.39813L30.6749 4.54029V4.53992ZM35.0576 39.394H20.4251L18.7158 37.691H32.7115V33.7399L35.0573 35.995V39.3944L35.0576 39.394Z" fill="white"/>
</g>
<defs>
<clipPath id="clip0_9_1368">
<rect width="50" height="44.0632" fill="white"/>
</clipPath>
</defs>
</svg>
