<svg id="Layer_x0020_1" xmlns="http://www.w3.org/2000/svg" width="40" height="40" viewBox="0 0 40 40">
  <path id="Path_25782" data-name="Path 25782" d="M20,0A20,20,0,1,1,0,20,20,20,0,0,1,20,0Z" fill="#f5ac37"/>
  <path id="Path_25783" data-name="Path 25783" d="M95.057,111.165h7.6c.162,0,.239,0,.25-.212a14.527,14.527,0,0,0,0-2.325c0-.15-.075-.212-.238-.212H87.544c-.187,0-.238.062-.238.238v2.225c0,.287,0,.287.3.287Zm7-5.35a.243.243,0,0,0,0-.175,4.944,4.944,0,0,0-.452-.788,6.378,6.378,0,0,0-.925-1.163,3.067,3.067,0,0,0-.575-.563,8.985,8.985,0,0,0-3.75-1.9A9.322,9.322,0,0,0,94.231,101H87.518c-.187,0-.212.075-.212.238v4.437c0,.187,0,.238.238.238h14.424s.125-.025.15-.1h-.061Zm0,7.95a2.917,2.917,0,0,0-.639,0H87.557c-.187,0-.25,0-.25.25v4.338c0,.2,0,.25.25.25h6.4a3.2,3.2,0,0,0,.912-.062,9.527,9.527,0,0,0,2.714-.6,4.966,4.966,0,0,0,.912-.425h.087a8.121,8.121,0,0,0,3.488-3.511s.087-.189-.011-.239Zm-17.263,7.088v-6.912c0-.163,0-.187-.2-.187H81.882c-.15,0-.212,0-.212-.2v-2.375h2.9c.162,0,.225,0,.225-.212v-2.35c0-.15,0-.187-.2-.187H81.882c-.15,0-.212,0-.212-.2v-2.2c0-.138,0-.175.2-.175h2.687c.187,0,.238,0,.238-.238V98.88c0-.2,0-.25.25-.25H94.42a14.283,14.283,0,0,1,2.025.225,12.218,12.218,0,0,1,3.912,1.45,11.026,11.026,0,0,1,2.2,1.7,12.045,12.045,0,0,1,1.337,1.662,10.025,10.025,0,0,1,.977,1.913.325.325,0,0,0,.374.263h2.237c.287,0,.287,0,.3.275v2.05c0,.2-.075.25-.275.25H105.78c-.175,0-.225,0-.212.225a12.77,12.77,0,0,1,0,2.287c0,.212,0,.238.239.238h1.974c.087.112,0,.225,0,.338a2.524,2.524,0,0,1,0,.437v1.513c0,.212-.062.275-.25.275h-2.363a.313.313,0,0,0-.363.238,10,10,0,0,1-2.625,3.825,15.056,15.056,0,0,1-1.337,1.075c-.5.288-.987.588-1.5.825a13.515,13.515,0,0,1-2.95.937,15.381,15.381,0,0,1-2.925.238H84.791v-.013Z" transform="translate(-74.32 -89.753)" fill="#fefefd"/>
</svg>
