<svg id="Layer_2" data-name="Layer 2" xmlns="http://www.w3.org/2000/svg" width="40" height="40" viewBox="0 0 40 40">
  <g id="Layer_1" data-name="Layer 1">
    <g id="Layer_1-2" data-name="Layer_1">
      <circle id="Ellipse_24" data-name="Ellipse 24" cx="20" cy="20" r="20" fill="#988430"/>
      <circle id="Ellipse_25" data-name="Ellipse 25" cx="19.359" cy="19.359" r="19.359" transform="translate(0.641 0.641)" fill="#7a6a2a"/>
      <circle id="Ellipse_26" data-name="Ellipse 26" cx="18.951" cy="18.951" r="18.951" transform="translate(1.049 1.049)" fill="#ba9f33"/>
      <path id="Path_25787" data-name="Path 25787" d="M137.9,721.594c-.113-.1-.233-.207-.343-.311s-.223-.207-.336-.311l-.337-.32c-.055-.055-.113-.1-.168-.159l-.175-.152c-.447-.424-.9-.848-1.337-1.272.456.417.9.832,1.359,1.256l.159.159c.055.055.113.1.168.159l.336.311c.113.1.223.207.337.32s.223.217.337.32Zm-5.929-.064s1.625.168,2.417.281c.735.1,3.032.456,3.032.456Zm0,0c.456.039.913.087,1.369.136.233.023.456.048.68.071l.343.039.337.048,1.359.217.679.113c.223.039.447.081.68.12-.223-.023-.456-.055-.68-.087l-.679-.1-1.359-.2c-.113-.016-.223-.039-.337-.055l-.343-.039c-.223-.023-.456-.055-.68-.081-.456-.055-.913-.113-1.369-.184Zm5.288,1.161s-1.735.44-2.32.609-2.32.689-2.32.689l4.641-1.3Z" transform="translate(-129.155 -703.73)" fill="#cfb66c" fill-rule="evenodd"/>
      <path id="Path_25788" data-name="Path 25788" d="M167.558,888.8c-.385.113-.768.223-1.159.327l-1.159.311c-.385.113-.768.223-1.152.337l-.576.159c-.191.055-.385.1-.582.159.191-.064.385-.129.576-.185l.576-.184c.385-.12.768-.233,1.152-.353.391-.1.777-.2,1.168-.295.372-.094.764-.187,1.155-.275h0Zm-4.4,2.366c.191-.071,2.391-1.1,2.9-1.336.256-.12,1-.384,1-.384Z" transform="translate(-159.454 -869.839)" fill="#cfb66c" fill-rule="evenodd"/>
      <path id="Path_25789" data-name="Path 25789" d="M173.69,921.612c.168-.064.327-.142.489-.217l.479-.223.961-.463c.32-.152.631-.32.961-.463.168-.071.337-.129.5-.184l.256-.081c.087-.023.168-.049.256-.071-.32.152-.657.282-.977.43s-.647.288-.977.43l-.977.43c-.328.133-.648.275-.975.411h0Zm.213.9s1.993-1.168,2.679-1.544c.359-.2,1.521-.777,1.521-.777Z" transform="translate(-169.985 -900.285)" fill="#cfb66c" fill-rule="evenodd"/>
      <path id="Path_25790" data-name="Path 25790" d="M183.71,934.977c.336-.207.679-.418,1.023-.631l.512-.311c.175-.1.343-.2.521-.3s.343-.207.521-.3a1.866,1.866,0,0,1,.265-.136l.272-.136c.359-.175.719-.353,1.1-.5-.343.217-.7.4-1.049.592-.175.1-.353.185-.528.282s-.343.2-.521.295-.343.2-.521.294l-.528.288-1.065.576h0Zm4.184-2.065s-1.239.951-1.641,1.256-1.583,1.159-1.583,1.159Z" transform="translate(-179.791 -912.753)" fill="#cfb66c" fill-rule="evenodd"/>
      <path id="Path_25791" data-name="Path 25791" d="M684.194,700.518l-.634-1.2.369-1.5,2.631-1.016-1.12-2.3.553-2.32,1.039-2.078,3.21-.5,2.359-2.249,5.094.385,1,5.447-1.926,6.858-1.1,3.55-4.447.168-2.065-1.43-2.417-1.01Z" transform="translate(-668.977 -672.687)" fill="#e2cc85" fill-rule="evenodd"/>
      <path id="Path_25792" data-name="Path 25792" d="M407.681,1089.3a3.756,3.756,0,0,1-1.664.217c-.3-.408-2.43-.6-2.43-.6a1.188,1.188,0,0,0-.735.113,8.168,8.168,0,0,1-1.337.272c-.417.1-.832-.44-1.152-.553a4.491,4.491,0,0,1-.744-.408l-.9-.087-1.8-.761-2.858-2.848-.777,1.216-.24,1.5.864,1.783,2.327,2.12,4.537,1.152,2.689-.792,3.369-1.424.845-.906Z" transform="translate(-384.665 -1061.511)" fill="#f1d789" fill-rule="evenodd"/>
      <path id="Path_25793" data-name="Path 25793" d="M304.568,690.855l.576-1.744.686-1.126,2.21-.185-.663,1.935-1.848,3.288.767,2.935-1.359.679-.418-.641-.336-1.469-.023-1.651Z" transform="translate(-297.671 -673.127)" fill="#f4ecb4" fill-rule="evenodd"/>
      <path id="Path_25794" data-name="Path 25794" d="M311.93,856.985l-.424-.592a.972.972,0,0,1-.048-.528c.064-.249.055-.265.023-.359s-.3-.417-.288-.7-.023-.375.184-.6a.751.751,0,0,0,.152-.592l.282.175.064-.1a.288.288,0,0,1,.1.207c.023-.175-.071-.984.142-1.168s.592.864.592.864l-.233-1.521-.6-1.56-1.065-1.424-.064-1.57v-.136a5.282,5.282,0,0,0-.625,1.344c-.1.408.136.9.087,1.489s-.087.537.055.768.489.706.353,1.049c-.12.295-.528.087-.528.087a.886.886,0,0,1-.191.327.724.724,0,0,0-.159-.32c-.007.055-.023.13-.023.13s-.071-.223-.143-.505c-.1-.375-.2-.87-.294-1.136-.039.152-.136.615-.136.615l.055.712.265.977.256.64.249.783.217.526.175.4.152.9.734.777.392.175.285-.146h0Z" transform="translate(-302.555 -829.312)" fill="#f3e19d" fill-rule="evenodd"/>
      <path id="Path_25795" data-name="Path 25795" d="M299.872,717.253a6.152,6.152,0,0,0-.679,1.8,11.9,11.9,0,0,0-.192,3.087,12.784,12.784,0,0,0,.431,2.544,14.174,14.174,0,0,0,.919,2.159l.023-.049a3.411,3.411,0,0,1-.265-.663c-.087-.343-.12-.751-.2-.935a4.466,4.466,0,0,1-.249-.57,2.435,2.435,0,0,0-.233-.815,1.653,1.653,0,0,1-.185-.647c-.032-.408.016-.864-.023-1.239a4.984,4.984,0,0,1-.055-1.376c.065-.327.4-1.255.609-1.993.136-.473.055-.871.3-1.282a3.619,3.619,0,0,0,.456-1.016c.064-.227-.66,1-.66,1h0Z" transform="translate(-292.59 -700.949)" fill="#f2e8b0" fill-rule="evenodd"/>
      <path id="Path_25796" data-name="Path 25796" d="M376.655,747.42a1.058,1.058,0,0,0-.4.223,5.819,5.819,0,0,0-.359.479,3.756,3.756,0,0,0-.327.705c-.142.282-.456.706-.5.858s-.1.864-.184,1.2a1.616,1.616,0,0,0,.081.751l.184-.039a.581.581,0,0,0,.185.4c.184.159.217-.537.217-.537l.689-2.327,1.039-.706.113-.57-.741-.44h0Z" transform="translate(-366.872 -731.475)" fill="#f5eec0" fill-rule="evenodd"/>
      <path id="Path_25797" data-name="Path 25797" d="M397,784.089a1.74,1.74,0,0,0-.728.207c-.1.071-.136.129-.239.217a1.583,1.583,0,0,0-.479.512,3.4,3.4,0,0,0-.295,1.113c-.032.249-.032.479-.055.68a2.831,2.831,0,0,0-.055.64c.032.311.353.473.384.825l.663-.336.625-2.463,1.327-.832-.751-.841-.4.277h0Z" transform="translate(-386.708 -767.089)" fill="#e6db9d" fill-rule="evenodd"/>
      <path id="Path_25798" data-name="Path 25798" d="M318.17,1215.051l.008-.074c.1-.832.113-1.463.184-1.857a4.875,4.875,0,0,0,.159-.978,4.4,4.4,0,0,1-.016-.841c.048-.343.385-.751.375-1.032a.874.874,0,0,0-.217-.5c-.1-.136-.175-.249-.175-.249s.663-.456.657-2.295a.173.173,0,0,1,.039.016l.327.929.223.272.858,1.6,1.1,1.071,1.631,1.1,1.023,1.113.1,2.968-1.337,1.735-.219.4a19.012,19.012,0,0,1-4.728-3.365Z" transform="translate(-311.382 -1181.466)" fill="#e5cb7a" fill-rule="evenodd"/>
      <path id="Path_25799" data-name="Path 25799" d="M509.56,1312.008a.914.914,0,0,1,.327-.609.364.364,0,0,1,.071.217,1.929,1.929,0,0,1,1.311-.88,1.347,1.347,0,0,0,1.081-.793l1.848-1.68,2.113-1.945,2.57-.9,1.2-.295a.663.663,0,0,1-.023.282,5.856,5.856,0,0,0,1.233-.311c.207-.081.4-.113.5-.006a1.11,1.11,0,0,1,.184.68c.249-.055.537-.294.768-.272.369.039.7.473,1.071.473.5,0,.718-.3,1.065-.544.207-.142.5-.32.673-.44.4-.295,4.647-1.592,4.647-1.592l1.489.1.24,1.6-.128,4.179-.048.046-6.769,3.535-9.382,1.438a18.817,18.817,0,0,1-6-2.063l-.048-.213h0Z" transform="translate(-498.689 -1275.584)" fill="#d8c173" fill-rule="evenodd"/>
      <path id="Path_25800" data-name="Path 25800" d="M344.85,1571.9c.133-.279.253-.512.274-.6.017.168.047.537.109.929q-.193-.165-.383-.334Z" transform="translate(-337.493 -1537.779)" fill="#f1d789" fill-rule="evenodd"/>
      <path id="Path_25801" data-name="Path 25801" d="M666.052,1430.98l1.213-.337.1.032s.055.032.055.142c.152-.087.282-.071.375-.129.048.1.1.447.311.489a.95.95,0,0,0,.705-.281,4.71,4.71,0,0,1,.718-.528,3.859,3.859,0,0,1,.2.43c.272-.217.744-1.1,1.417-1.081a2.554,2.554,0,0,1,.935-1.129,2.034,2.034,0,0,1,1.5-.417,2.573,2.573,0,0,1,.706-.631.65.65,0,0,0,.583.039c.282-.129.6-.631,1.016-.7a.982.982,0,0,1,.647.136,10.562,10.562,0,0,1,2.055-1.609c-.032-.1-.1-.463.887-1.272.055.049.016.185.055.192a2.287,2.287,0,0,0,.56-.337,4.556,4.556,0,0,1,1.1-.657,1.535,1.535,0,0,1,1.055.159.485.485,0,0,1,.152-.071,2,2,0,0,0,.294-.064,2.047,2.047,0,0,1,0,.705,1.57,1.57,0,0,0,.32.136,1.447,1.447,0,0,1-.375.57c.168.081.191.175.43.256a4.737,4.737,0,0,0-.327.512c-.071.152-.327.783-.44,1.022s-.281.68-.359.768a6.161,6.161,0,0,1-.576.647c.192-.071.977-.311,1.311-.4-.1.146-.6.891-1.085,1.609a18.99,18.99,0,0,1-15.546,1.8Z" transform="translate(-651.841 -1392.931)" fill="#e0cd81" fill-rule="evenodd"/>
      <path id="Path_25802" data-name="Path 25802" d="M470.289,704.025a1.171,1.171,0,0,0-.336.039c-.055.039.282.12.385.159a.884.884,0,0,1,.385.359,16.418,16.418,0,0,0,2.023.929l1.392-.071.48-.663-.913-.8.64-1.887-.848.136-2.039,1.216-1.023.392-.146.191Z" transform="translate(-459.921 -687.112)" fill="#dfc57c" fill-rule="evenodd"/>
      <path id="Path_25803" data-name="Path 25803" d="M629.054,793.1a.218.218,0,0,0,.192.1.861.861,0,0,1,.663.217c.185.233.7.977.7.977l1.223.44.079-1.44-1.337-.929-1.521.56v.071h0Z" transform="translate(-615.63 -775.564)" fill="#e5cc7c" fill-rule="evenodd"/>
      <path id="Path_25804" data-name="Path 25804" d="M584.216,831.184a1.329,1.329,0,0,0,.5-.087c.282-.1.744-.327.945-.239.281.12.223.5.528.832.184.207.521.2.712.424s.848.12.848.12l.249,1.344-1,1.282-.327,1.592h-1.352l-1.235-.49-.608-1.472.3-1.489.432-1.816Z" transform="translate(-571.032 -813.113)" fill="#d2c281" fill-rule="evenodd"/>
      <path id="Path_25805" data-name="Path 25805" d="M738.975,760.944a.365.365,0,0,0,.1.016.268.268,0,0,0-.087.288c.032.185.136.417.049.56a.7.7,0,0,1,.152.265c.055.159.071.3.43.327a.754.754,0,0,0-.142.113,2.364,2.364,0,0,1,.375.417,3.091,3.091,0,0,0,.472-.112l.071.049.152-.064s-.142-.055-.039-.4c.1-.3.185-.288.192-.311a3.173,3.173,0,0,0,.071-.473,5.677,5.677,0,0,0,.087-.679l-.1-1.129-.582-.353L739.7,759l-.447.841-.294.293-.023.728.035.081Z" transform="translate(-723.176 -742.808)" fill="#e2c270" fill-rule="evenodd"/>
      <path id="Path_25806" data-name="Path 25806" d="M806.28,519.6a3.959,3.959,0,0,1,.143.521.5.5,0,0,0,.023-.136s.081.447.1.631c.032-.007.064-.016.071.016a2.685,2.685,0,0,1,.064.592,1.614,1.614,0,0,1,.544-.544.951.951,0,0,1,.44-.175c.249-.006.43.159.728.159a5.535,5.535,0,0,0,1.848-.689,2.443,2.443,0,0,0,.87-.4,2.274,2.274,0,0,0,.456-.57c.223-.384.456-.718.689-.76a1.449,1.449,0,0,1-.32.023s.071-.071.192-.168a.746.746,0,0,1,.472-.217c.369,0,.553.055.76.055a1.034,1.034,0,0,0,.327-.055,1.3,1.3,0,0,0,.706.152c.489.006.816.048,1.071.071s1.113-.071,1.359-.064a1.191,1.191,0,0,1,.463.113l-.793-2.3-2.848-2.49-1.7,1.2-2.609,2.608-2.524.935-.528.592v.9Z" transform="translate(-789.079 -502.408)" fill="#ccb360" fill-rule="evenodd"/>
      <path id="Path_25807" data-name="Path 25807" d="M1023.805,549.763s.071-.071.191-.168a.744.744,0,0,1,.473-.217c.369,0,.553.055.76.055a1.031,1.031,0,0,0,.327-.055,1.3,1.3,0,0,0,.705.152c.489.006.816.048,1.071.071s1.113-.071,1.359-.064a1.185,1.185,0,0,1,.463.113l-.359-1.039-.417-.793-1.191-1.3-1.44-.848c-.006-.006-.5-.136-.5-.136l-1.295.783-1.175,3.039-.023.64.76.359c.191-.32.4-.576.6-.608-.178.019-.314.019-.314.019h0Z" transform="translate(-1000.941 -533.892)" fill="#d5b457" fill-rule="evenodd"/>
      <path id="Path_25808" data-name="Path 25808" d="M860.256,733.46c-.113.006-.207-.016-.233-.1-.1-.272-.175-.311-.256-.311s-.191.175-.256.191-.142-.2-.142-.2l-.071-.032a4.337,4.337,0,0,0-.712.592,5.908,5.908,0,0,1-.994.961,10.724,10.724,0,0,1-1.216.185,1.576,1.576,0,0,0-.576.282c-.039.042.114.087.136.129s-.249.023-.272.064a1.045,1.045,0,0,0,.1.311.528.528,0,0,1,.223-.055c.249-.006.431.159.728.159a5.529,5.529,0,0,0,1.848-.69,2.442,2.442,0,0,0,.871-.4,2.29,2.29,0,0,0,.456-.57,4.046,4.046,0,0,1,.363-.518h0Z" transform="translate(-837.408 -717.372)" fill="#d2b257" fill-rule="evenodd"/>
      <path id="Path_25809" data-name="Path 25809" d="M383.85,1245.242a2.705,2.705,0,0,0-.657-.858c-.168-.175-.272-.32-.385-.424a5.19,5.19,0,0,0-.647-.489c-.44-.327-.919-.327-1.288-.728a6.7,6.7,0,0,1-1.1-1.952c-.294-.783-.375-1.032-.375-1.055s.081-.175.185-.152.1.223.129.272a1.608,1.608,0,0,0,.175.223,2.127,2.127,0,0,1,.479.7,3.145,3.145,0,0,0-.113-.56s.57.359,1.055.734.689.505.832.744a11.517,11.517,0,0,0,.64,1.055,18.149,18.149,0,0,0,2.368.88l1.05.783.521,1.142-.408.64-.783.168-1.272-.57-.407-.552h0Z" transform="translate(-371.306 -1213.139)" fill="#d2b159" fill-rule="evenodd"/>
      <path id="Path_25810" data-name="Path 25810" d="M455.55,1277.436a2.967,2.967,0,0,0,.913.825,8.757,8.757,0,0,0,2.327.864,6.513,6.513,0,0,0,1.369.207,19.691,19.691,0,0,0,2.9-.417,13.946,13.946,0,0,0,1.848-.256,9.507,9.507,0,0,0,2.071-.768c.5-.233.968-.408,1.343-.631a5.709,5.709,0,0,1,1.359-.76,1.153,1.153,0,0,1-.553.705c.233-.007.553-.023.553-.023a10.38,10.38,0,0,0-.858.6c-.337.256-.783.689-1.239.977-.295.185-.615.32-.825.431a3.7,3.7,0,0,0-1.055.768.452.452,0,0,1,.129,0,2.519,2.519,0,0,0-.728.217.985.985,0,0,0-.369.032c-.152.048-.353.159-.56.217a.7.7,0,0,1-.391.049l.048.1s-.384-.007-.512.006c.023.006.016.016.016.016a.2.2,0,0,0-.064.023.667.667,0,0,1-.2.087c-.039.006-.071.006-.12.016.016.039.143.256.2.384-.048.032-.777.583-.777.583a.552.552,0,0,1,.055.113c.023.071.032.175.055.223.055.1.087.113.087.113s-.087.016-.24.055a4.231,4.231,0,0,1-.512.12,2.027,2.027,0,0,1-.207.016.565.565,0,0,1-.087.657c-.262.314-.343.359-.424.56a.87.87,0,0,0-.129-.081.543.543,0,0,1-.249-.175,2.078,2.078,0,0,1-.1.3,3.787,3.787,0,0,0-.223.592c-.087-.1-.249-.288-.473-.249s-.4.343-.44.431c0-.055-.039-.1-.048-.032a2.459,2.459,0,0,1-.816,1.417c-.006-.152-.006-.489-.023-.6a1.571,1.571,0,0,1-.608.359c-.456.2-.384.4-.384.4a1,1,0,0,1,.207-.657c.249-.336.4-.5.4-.521a.144.144,0,0,0-.032-.071c-.032-.032-.1-.071-.1-.1a.651.651,0,0,0,.4-.583,1.033,1.033,0,0,0-.272-.647c-.016-.016.152-.136.129-.175-.016-.023-.223-.175-.249-.256a.742.742,0,0,1,.032-.142.4.4,0,0,0,.032-.168,1.345,1.345,0,0,0-.129-.327,1.77,1.77,0,0,0,.184,0,1.605,1.605,0,0,1-.152-.3,3.931,3.931,0,0,0-.1-.4c.055.006.191.016.191,0,.007-.049-.12-.13-.064-.192a.325.325,0,0,1,.184.13.74.74,0,0,0-.24-.385.588.588,0,0,1,.473.032.635.635,0,0,1,.256.272s.113.088.288.217a3.143,3.143,0,0,0,.864.544.9.9,0,0,0,.473.016.722.722,0,0,0,.2-.081.372.372,0,0,1,.071-.032,1.553,1.553,0,0,0-.12-.2c.055,0,.12.007.12.007s.039-.087-.136-.256c.039-.039.087-.064.087-.13a.382.382,0,0,1-.175-.12c.032-.023.081-.1.136-.12-.049-.039-.168-.2-.223-.217a1.013,1.013,0,0,0,.152-.071,1.863,1.863,0,0,1-.359-.13,2.144,2.144,0,0,0-.294-.207c-.081-.032-.223-.048-.282-.113a.883.883,0,0,0,.207,0c.048,0,.071.006.087.006-.006-.023-.006-.071.12-.087a.59.59,0,0,0,.175-.055.447.447,0,0,1-.256-.136.994.994,0,0,0-.327-.249c-.081-.016-.233.055-.327.048a.3.3,0,0,1-.185-.081,2.708,2.708,0,0,1-1.385-.544,4.884,4.884,0,0,1-1.185-.951,1.419,1.419,0,0,1-.223-.1c-.311-.162-.741-.5-.728-.939h0Z" transform="translate(-445.832 -1249.268)" fill="#c2a44d" fill-rule="evenodd"/>
      <path id="Path_25811" data-name="Path 25811" d="M1008.6,390.728a.42.42,0,0,1,.192.129.6.6,0,0,1-.1.858.553.553,0,0,0,.311.048,1.513,1.513,0,0,0-.408.712.272.272,0,0,0,.12.282,1.076,1.076,0,0,0-.217.64,2.593,2.593,0,0,1,.32-.3,8.492,8.492,0,0,1,.793-.544.457.457,0,0,0,.023.168s.417-.343.768-.191c.159.071.087.294.087.294a.37.37,0,0,1,.369.071,6.893,6.893,0,0,1,.477.7,5.092,5.092,0,0,1,.3.417,5.282,5.282,0,0,1,.44.929c.006-.168.048-.43.528-.265a2.939,2.939,0,0,1,1.479,1.216c.456.695.569,1.479.8,1.778a2.534,2.534,0,0,1,.489.968,8.472,8.472,0,0,0,.408,2.6c.136-.544.343-1.751.343-1.751l.113-1.065.13-3.295-3.44-2.858-2.689-1.952-1.751.168.11.249h0Z" transform="translate(-986.976 -381.983)" fill="#caa13e" fill-rule="evenodd"/>
      <path id="Path_25812" data-name="Path 25812" d="M1109.609,240.492s-.049-.32-.858-.864-1.44-.537-2.023-.993c-.447-.359-.913-1.185-1.216-1.456a1.982,1.982,0,0,1-.343-1.045l.994-.832,1.478-2.136,1.249-1.375.6.832.832.977.463,1.961.168,2.871-1.344,2.061Z" transform="translate(-1081.593 -226.845)" fill="#b59544" fill-rule="evenodd"/>
      <path id="Path_25813" data-name="Path 25813" d="M1309.862,520.514a3.648,3.648,0,0,0-.159-1.288,23.7,23.7,0,0,0-.9-2.283c-.087-.489-.023-.528.071-.583a1.431,1.431,0,0,0,.64-.961.912.912,0,0,1,.793-.728l.369-.272.56,1.4.489,1.265.152.968.113.825-.265,1.744-1.31,1.184-.557-1.274h0Z" transform="translate(-1280.846 -503.426)" fill="#c89d3a" fill-rule="evenodd"/>
      <path id="Path_25814" data-name="Path 25814" d="M502.89,1700.607v-.036a.275.275,0,0,0,.071-.064c.023-.032.039-.071.055-.081a.609.609,0,0,1,.265-.049,2.038,2.038,0,0,0,.408.1,2.679,2.679,0,0,1,.935-.1c.647.12.8.56,1.175.809a.744.744,0,0,0,.56.1h.087c.016,0,.136-.136.2-.129.13.006.142.113.223.12a7.273,7.273,0,0,1,.745-.048.356.356,0,0,1,.233.233.359.359,0,0,1-.087.359,1.431,1.431,0,0,0-.43.512,1.815,1.815,0,0,1,.142.12,18.841,18.841,0,0,1-4.582-1.835Z" transform="translate(-492.162 -1664.076)" fill="#ceb052" fill-rule="evenodd"/>
      <path id="Path_25815" data-name="Path 25815" d="M1310.68,700.236a11.189,11.189,0,0,0,.68-1.007,34.82,34.82,0,0,0-.553-4.7l1.463-4.793-.039-1.56a14.342,14.342,0,0,1,.24-2.065c.2.359.825.793.961,1.023a11.907,11.907,0,0,0,.249-2.359,17.674,17.674,0,0,1,.408,2.039l.288,1.249.375,1.327.417,1.4.249.968.142.233.12.408.113.44.327,1.032.192.848.152,1.537a2.353,2.353,0,0,1,.071.359,1.509,1.509,0,0,1-.023.295,3.535,3.535,0,0,1,.032.625.879.879,0,0,1-.233.64,3.874,3.874,0,0,0-.327,1.281l-.359-.239a.975.975,0,0,0-.1-.625.631.631,0,0,0-.68-.311,2.053,2.053,0,0,0-.673.2,2.1,2.1,0,0,1-1.767.841,2.988,2.988,0,0,0-.919.479,5.131,5.131,0,0,1-.809.427h0Z" transform="translate(-1282.719 -670.171)" fill="#cca847" fill-rule="evenodd"/>
      <path id="Path_25816" data-name="Path 25816" d="M1310.68,1291.346s.021.014.063.036a19.009,19.009,0,0,0,6.059-4.491c-.019-.655-.043-1.326-.069-1.575-.055-.528-.016-1.065-.032-1.375s-.191-1.576-.272-1.9a.829.829,0,0,0-.282-.489,3.9,3.9,0,0,0-.159.768c0,.153-.032.521-.032.615-.023-.007-.032-.064-.032-.088-.032.081-.071.223-.087.24s.023-.136,0-.168-.064-.016-.055-.1a.919.919,0,0,1,.023-.142,1.484,1.484,0,0,0-.168.5c-.071.359-.071.369-.1.4s-.152.168-.159.217c-.006.087.12.175.129.223.006.081-.113.456-.152.64s-.023.544-.064.728c-.032.168-.064.265-.175.336.081.016.158.039.158.039a1.2,1.2,0,0,1-.175.887c-.1.142-.129.207-.239.337a1.488,1.488,0,0,0-.4.689,1.16,1.16,0,0,1-.023-.159,7.64,7.64,0,0,0-.479.615c-.184.288-.44.272-.512.343a.341.341,0,0,0-.064.3c-.064.016-.184.039-.265.288a.606.606,0,0,1-.288.343,1.531,1.531,0,0,1-.431.136.52.52,0,0,1,.152.048,2.574,2.574,0,0,1-.521.369,1.089,1.089,0,0,0-.43.521.373.373,0,0,1-.311.24c.064.039.159.129.207.159a.721.721,0,0,0-.408.2c-.227.188-.3.243-.408.259h0Z" transform="translate(-1282.719 -1254.21)" fill="#c39d3c" fill-rule="evenodd"/>
      <path id="Path_25817" data-name="Path 25817" d="M1099.551,1778.177a1.83,1.83,0,0,1,.4-.212,8.554,8.554,0,0,1,1.249-.3,4.552,4.552,0,0,1,.608-.2c-.007.057-.012.11-.018.16a18.866,18.866,0,0,1-2.24.556Z" transform="translate(-1076.093 -1739.541)" fill="#d2ba6b" fill-rule="evenodd"/>
      <path id="Path_25818" data-name="Path 25818" d="M1197.5,808.371a3.974,3.974,0,0,1-.288.913c-.185.353-.384.841-.384.841a1.537,1.537,0,0,1,.039-.327,9.19,9.19,0,0,0-.96.608,3.253,3.253,0,0,0-.473.489,9.775,9.775,0,0,0,.337-1.032,20.8,20.8,0,0,0-1.887,1.657l-1.764,1.427a6.1,6.1,0,0,1-.628.294c-.3.129-.663.239-.929.343a1.472,1.472,0,0,1,.343-.521,3.815,3.815,0,0,0,.751-.96.873.873,0,0,0-.006-.647c-.088.023-.288.032-.424.071a.829.829,0,0,0-.282.184,6.634,6.634,0,0,1,.327-1.152c-.168.006-.456.055-.456.055a4.107,4.107,0,0,1,1.088-1.142,3.535,3.535,0,0,0-.615.191c-.4.168-.841.417-1.168.553a25.755,25.755,0,0,0,2.249-3.825,13.3,13.3,0,0,0,1.223-3.081,14.062,14.062,0,0,0,.087-1.735,11.619,11.619,0,0,0,.049-1.5,3.555,3.555,0,0,1,.977,2.521,9.653,9.653,0,0,1-1.5,4.832c.192.055.689.12,1.2-.768a10.47,10.47,0,0,0,.689-1.5,1.34,1.34,0,0,1,.016.249,6.78,6.78,0,0,0,1.1-2.039,2.81,2.81,0,0,1-.049,1.816,1.8,1.8,0,0,1-.68,1.006,1.529,1.529,0,0,0,.472-.2c.049.12.039.256.12.3s.191.13.207.207a2.368,2.368,0,0,0,.265-.417,8.839,8.839,0,0,0,.064,1.945.658.658,0,0,0,.68-.489,2,2,0,0,0-.039,1.081,1.271,1.271,0,0,0,.252-.252h0Z" transform="translate(-1164.731 -783.011)" fill="#c0993a" fill-rule="evenodd"/>
      <path id="Path_25819" data-name="Path 25819" d="M862.257,350.769a1.907,1.907,0,0,1-.673.1c-.369,0-.265-.142-.841-.142-.887,0-3.984.512-4.528.5a11.935,11.935,0,0,0,1.191.152l3.945.055.793-.064.295-.6Z" transform="translate(-837.898 -343.248)" fill="#a88f33" fill-rule="evenodd"/>
      <path id="Path_25820" data-name="Path 25820" d="M603.228,681.363a4.5,4.5,0,0,0-.719.68,5.011,5.011,0,0,1-.57.728.5.5,0,0,0,.168-.023s0,.064-.039.081a.226.226,0,0,1,.184.064.329.329,0,0,0-.113.463.5.5,0,0,0,.353.191s-.055.159.175.143a13.1,13.1,0,0,1,1.3-.185.714.714,0,0,1,.583.4c.192.311.359.359.359.359a1.837,1.837,0,0,0,.087-.719,2.138,2.138,0,0,0,.152-.728l-.168-1.239-.734-.929-.951.528-.071.184Z" transform="translate(-589.099 -666.13)" fill="#e3c571" fill-rule="evenodd"/>
      <path id="Path_25821" data-name="Path 25821" d="M704.64,480.17s.071.168.369.184a.167.167,0,0,0-.023.136l.016.136a.3.3,0,0,0,.087-.064c.016.071-.016.184,0,.265a.592.592,0,0,0,.048.142.3.3,0,0,1,.016-.032,1.273,1.273,0,0,0,.223.32.132.132,0,0,1,.016-.064.225.225,0,0,0,.039.113.118.118,0,0,1-.032-.023,3.7,3.7,0,0,0,.1.777.358.358,0,0,0,.039-.055c0-.016-.006.142-.023.256a1.117,1.117,0,0,0-.006.272.85.85,0,0,1,.191-.113.691.691,0,0,0,.353-.424,2.836,2.836,0,0,0,.13-.463.647.647,0,0,1,.064.192c.007.081.159.039.159.039l.032-.353.192-.8.175-.5.841-1.311,1.52-1.171,1.327.3,1.12-1.521-1.929-1.159-1.825.191-1.656,2.294-1.327,2.081-.24.343h0Z" transform="translate(-689.608 -465.121)" fill="#d8b65b" fill-rule="evenodd"/>
      <path id="Path_25822" data-name="Path 25822" d="M797.913,405.671a2.108,2.108,0,0,0-.44.192c-.327.169-.553.223-.68.472a1.224,1.224,0,0,0-.136.447,3.092,3.092,0,0,1,.353-.13c.136-.032.288-.023.272.032a.374.374,0,0,1-.064.1s.256-.006.249.12a.668.668,0,0,1-.1.327c-.049.064-.249.159-.272.233-.055.152.023.159-.007.281a1.948,1.948,0,0,1-.479.761,4.084,4.084,0,0,0-.512.7,4.443,4.443,0,0,1-.265-.608c-.064.032-.408.223-.408.223l-.8-2.773.016-.185a.5.5,0,0,0,.087-.249c-.12-.039-.136-.071-.295-.223a1.98,1.98,0,0,0-.553-.463.352.352,0,0,0-.282-.207c-.194-.039-.311-.071-.311-.071a.339.339,0,0,0,.152-.12,2.006,2.006,0,0,1-.479.049,2.005,2.005,0,0,0-.44.006c-.146.023-.32.087-.385-.136-.071-.055-.223-.006-.353.184s-.175.343-.424.418a.868.868,0,0,1-.113.311,3.552,3.552,0,0,1-.337.417c-.24.282-.2.744-.583,1.1s.064-.977.064-.977l.615-1.472,1.751-1.712,2.719-.184.265,1.408,1.327.456.838,1.278h0Z" transform="translate(-773.321 -393.943)" fill="#d3ae4d" fill-rule="evenodd"/>
      <path id="Path_25823" data-name="Path 25823" d="M1012.468,406.216l-1.142-1.647-.8-.615s-.57-1.048-.608-1.081a7.533,7.533,0,0,0-.913-.1l.064.159a.421.421,0,0,1,.192.129.6.6,0,0,1-.1.858.553.553,0,0,0,.311.048,1.512,1.512,0,0,0-.408.712.271.271,0,0,0,.12.281,1.077,1.077,0,0,0-.217.64,2.591,2.591,0,0,1,.32-.3,8.315,8.315,0,0,1,.793-.544.457.457,0,0,0,.023.168s.417-.343.768-.191c.159.071.087.295.087.295a.37.37,0,0,1,.369.071,6.86,6.86,0,0,1,.479.7,5.139,5.139,0,0,1,.3.417,5.279,5.279,0,0,1,.44.929c.006-.129.032-.311.256-.311l-.34-.608Z" transform="translate(-987.445 -394.178)" fill="#caa13e" fill-rule="evenodd"/>
      <path id="Path_25824" data-name="Path 25824" d="M368.5,622.611a1.115,1.115,0,0,1,0-.592,5.962,5.962,0,0,0,.249-1.152,4.107,4.107,0,0,1,.417-1.294l1.039-.472.735.2.217.984-.929.512a.713.713,0,0,1-.311.391c-.262.175-.625.311-.712.489a1.426,1.426,0,0,0-.113.343.486.486,0,0,0-.424.12.621.621,0,0,0-.168.473Z" transform="translate(-360.605 -605.893)" fill="#f4efc8" fill-rule="evenodd"/>
      <path id="Path_25825" data-name="Path 25825" d="M339.873,497.451a.473.473,0,0,0-.152.192,3.9,3.9,0,0,1-.223-1.272c-.006-.553-.039-.691.089-.881s.63-.392.559-.735a.537.537,0,0,0-.735-.369c-.256.064-.447.608-.712.88-.2.207-.44.175-.5.288-.087.152-.007.3-.032.4a1.936,1.936,0,0,1-.233.418,4.178,4.178,0,0,0-.858,1.56,2.669,2.669,0,0,1,.087-.647l-.049-.081.32-1.049.207-.864.463-1.447.815-1.479.793-.887.825.055.1,1.239.473,2.327.993,1.223L340.5,497.4l-.631.055h0Z" transform="translate(-329.879 -480.995)" fill="#ebcc73" fill-rule="evenodd"/>
      <path id="Path_25826" data-name="Path 25826" d="M461.967,704.1a.4.4,0,0,1-.185.007c-.049-.026-.1-.055-.081-.087s.1-.087.1-.113a.091.091,0,0,0-.081-.1.088.088,0,0,0-.1.039.366.366,0,0,0-.129-.064.9.9,0,0,1,.1-.007,1.009,1.009,0,0,0-.282-.081c.081-.048.24-.191.343-.191s.168-.016.152-.071a.33.33,0,0,0-.184-.168c.032-.039.055-.1-.023-.256a.307.307,0,0,1-.023-.3,2.06,2.06,0,0,1,.142-.191.521.521,0,0,1,.136-.168,1.7,1.7,0,0,1,.24-.1c.113-.039.207-.087.272-.039a.089.089,0,0,1,.039.113.584.584,0,0,1,.424.023,3.207,3.207,0,0,0,.69.159l.175.353-1.159.993-.479.24-.1.016h0Z" transform="translate(-451.479 -687.204)" fill="#e5c66b" fill-rule="evenodd"/>
      <path id="Path_25827" data-name="Path 25827" d="M493.709,607.639a4.478,4.478,0,0,0-.44.327c.048.007.129.039.1.087a5.232,5.232,0,0,0-.4.375,2.476,2.476,0,0,0-.311.456,1.641,1.641,0,0,1-.544.375c.265,0,.8-.327,1-.327a.2.2,0,0,0,.168.217,1.258,1.258,0,0,0,.88-.2c.44-.265.295-.463.479-.592.353-.233.5-.44.689-.57a1.258,1.258,0,0,1,.295-.159s.006-.1.064-.087a.087.087,0,0,1,.071.055,1.985,1.985,0,0,1,.768-.3.045.045,0,0,1-.023-.023s.032-.016.039-.032c0,0,.023-.032.039-.016s.039.136.071.185c.071-.032.207-.337.207-.337l.327-.935v-.854l-.256.049-1.92.815-1.165,1.207-.136.288Z" transform="translate(-481.612 -592.367)" fill="#e6bd62" fill-rule="evenodd"/>
      <path id="Path_25828" data-name="Path 25828" d="M706.968,487.3a1.085,1.085,0,0,0,.3-.12,1.335,1.335,0,0,1-.207.463,3.917,3.917,0,0,0-.311.537c-.136.265-.152.647-.282.815a.591.591,0,0,1,.184-.055.854.854,0,0,0-.184.233,1.107,1.107,0,0,1-.391.521,3.113,3.113,0,0,0-.871.608c-.327.353-.664.8-.832.96a2.4,2.4,0,0,0,.24-.657c.032-.2-.007-.44.048-.706a2.306,2.306,0,0,1,.32-.919,15.745,15.745,0,0,0,.719-2.071l.977-.311.295.7h0Z" transform="translate(-689.343 -476.219)" fill="#b6933f" fill-rule="evenodd"/>
      <path id="Path_25829" data-name="Path 25829" d="M772.344,399.8a2.725,2.725,0,0,0-.375.8c-.081.375-.007.343-.055.528a.687.687,0,0,0,0,.343,1.217,1.217,0,0,1,.407-.4,3.341,3.341,0,0,0,.64-.43,2.358,2.358,0,0,1,.544-.592c-.12-.016-.288-.071-.32-.064a7.244,7.244,0,0,1,.841-.592,3.247,3.247,0,0,1,.919-.615,3.979,3.979,0,0,1-.44,0c.064-.136.288-.2.512-.424s-.142-.553-.142-.553l-1.707,1.032-.825.971Z" transform="translate(-755.425 -389.314)" fill="#c49937" fill-rule="evenodd"/>
      <path id="Path_25830" data-name="Path 25830" d="M576,159.073l.039-.311.489-.783.511-1.375v-1.88L577,153.636l.081-.712.061-.226.065-.087.417.217.576.783.055,1.511-.56,2.385-1.6,1.744Z" transform="translate(-563.712 -149.354)" fill="#dfc068" fill-rule="evenodd"/>
      <path id="Path_25831" data-name="Path 25831" d="M342.108,148.142s-.256.007-.311,1.071-.081,1.625-.12,2.152a11.561,11.561,0,0,1-.175,1.159,3.186,3.186,0,0,1-.217.993,2.284,2.284,0,0,1-.521.777,3.212,3.212,0,0,1-.977.544,5.045,5.045,0,0,0-1.159.265,1.761,1.761,0,0,0-.479.3,6.111,6.111,0,0,0-1.288,1.744,24.308,24.308,0,0,0-1.152,4.343l.13-.217a2.056,2.056,0,0,1,.3-.793c.282-.5.2-1.071.592-2.039a11.11,11.11,0,0,1,.576-1.256,4.663,4.663,0,0,1,1.266-1.544,4,4,0,0,1,1.544-.615l.871-.576s.152-.294.353-.631a4.087,4.087,0,0,0,.718-1.767,16.374,16.374,0,0,0-.152-2.553c.016-.673.023-1.168.159-1.288s.039-.074.039-.074h0Z" transform="translate(-328.548 -144.974)" fill="#a88f33" fill-rule="evenodd"/>
      <path id="Path_25832" data-name="Path 25832" d="M631.569,151.314a12.358,12.358,0,0,0,.56-1.783c.032-.168.1-.336.113-.472a4.271,4.271,0,0,0,0-1.553,2.774,2.774,0,0,0-.553-.832c-.159-.233-.233-.32-.2-.369a.358.358,0,0,1,.281-.12.964.964,0,0,1,.689.32,4.172,4.172,0,0,1,.447,1.265l.208,1.29.528,1.625-2.071.631h0Z" transform="translate(-618.009 -143.064)" fill="#c99e3d" fill-rule="evenodd"/>
      <path id="Path_25833" data-name="Path 25833" d="M664.752,157.06a.328.328,0,0,1-.2,0,.289.289,0,0,1-.129.272,10.931,10.931,0,0,0-1.408.055,1.081,1.081,0,0,1-.777-.887c-.129-.521.1-1.239.023-1.712a10.5,10.5,0,0,0-.288-1.049c-.016-.217-.032-.272-.032-.408a.751.751,0,0,0-.184-.039c-.016-.064.016-.12-.055-.233a1.288,1.288,0,0,1,.615.343,1.156,1.156,0,0,1,.295.375,3.008,3.008,0,0,1,.608.719c.168.335.5,1.4.57,1.576a1.158,1.158,0,0,0,.192.3c.188.233.463.619.773.683h0Z" transform="translate(-647.584 -149.795)" fill="#b58634" fill-rule="evenodd"/>
      <path id="Path_25834" data-name="Path 25834" d="M706.47,187.5a8.963,8.963,0,0,1,.527.984,4.466,4.466,0,0,0,.544,1.071c-.13-.375-.359-1.113-.5-1.375a3.153,3.153,0,0,0-.576-.679h0Z" transform="translate(-691.399 -183.5)" fill="#a88f33" fill-rule="evenodd"/>
      <path id="Path_25835" data-name="Path 25835" d="M451.157,436.89a4.732,4.732,0,0,0-.935.4c-.2.1-.391.191-.576.272a10.049,10.049,0,0,1-1.4.528c.032.039.048.055.048.055a.408.408,0,0,0,.087.249c-.048.049-.7.489-.5,1.961.129-.048.281-.113.3-.113.039.007.049.113.1.113a.649.649,0,0,0,.375-.282,2.185,2.185,0,0,0,.417,1.56c.1-.113.343-.489.343-.489l.006-.12a3.249,3.249,0,0,1,.159-.8,2.125,2.125,0,0,1,.4-.663l1.385-1.977-.207-.7h0Z" transform="translate(-438.286 -427.57)" fill="#e6c367" fill-rule="evenodd"/>
      <path id="Path_25836" data-name="Path 25836" d="M532.331,360.218a.765.765,0,0,1-.207.1.8.8,0,0,1,.136-.631,8.451,8.451,0,0,0,.848-1.088,2.36,2.36,0,0,1,.825-1.456c.777-.7,1.081-.935,1.081-.935l1.256-.631,1.544.608-.767,3.006-.6,1.408-2.368-.447-1.752.063h0Z" transform="translate(-520.755 -347.994)" fill="#dcba5a" fill-rule="evenodd"/>
      <path id="Path_25837" data-name="Path 25837" d="M585,439.04l.295-.369v-.262a1.674,1.674,0,0,0,.68-.447c.353-.359.841-1.049,1.272-1.007s.473.935.489,1.185a6.807,6.807,0,0,0,.159,1.12c.1.3-1.049,1.456-1.049,1.456l-.778.592L585,439.04Z" transform="translate(-572.52 -427.632)" fill="#e9ce77" fill-rule="evenodd"/>
      <path id="Path_25838" data-name="Path 25838" d="M627.73,531.577s.24-.375.064-.456a2.766,2.766,0,0,1,.294-.479,2.417,2.417,0,0,1,.576-.751,2.5,2.5,0,0,0,.783-.968,2.55,2.55,0,0,0,.071-.553,1.046,1.046,0,0,0,.152.1.9.9,0,0,1,.359.871,1.43,1.43,0,0,1-.256.793,3.815,3.815,0,0,1-.343.3c-.152.1-.207.223-.463.233a.305.305,0,0,1,.087-.049.6.6,0,0,0-.408.1c-.143.129-.445.528-.6.647-.152.1-.32.207-.32.207h0Z" transform="translate(-614.338 -517.098)" fill="#cdae50" fill-rule="evenodd"/>
      <path id="Path_25839" data-name="Path 25839" d="M689.567,343.227a3.9,3.9,0,0,0-1.191-.233c-.68-.023-1.673.016-2.647.023-1.049.006-2-.359-3.32-.424-.217-.129-.768-.7-2.489.5.1-.006,1.249-.265,1.647.233a2,2,0,0,1,.233,1.537c-.1.447-.44,1.1-.576,1.553s-.1.7-.2,1.016-.311.479-.185.848c.168-.1.256-.1.537-.735s.223-1.081.69-1.615a10.518,10.518,0,0,1,1.5-1.456,5.609,5.609,0,0,1,4.984-.239c.579-.061,1.013-1.013,1.013-1.013h0Z" transform="translate(-665.415 -335.043)" fill="#d2a83e" fill-rule="evenodd"/>
      <path id="Path_25840" data-name="Path 25840" d="M589.4,350.237a.3.3,0,0,0-.016-.071.52.52,0,0,0-.087-.13,4.154,4.154,0,0,0-.858-.071c-.5.055-.961.68-1.175,1a5.91,5.91,0,0,1-.767,1.071.107.107,0,0,0-.016-.071s.016.023-.016.055-.032.048-.016.064l.049.048a3.967,3.967,0,0,0,1.071-.768,5.4,5.4,0,0,1,1.4-1,1.97,1.97,0,0,1,.43-.127h0Z" transform="translate(-573.923 -342.493)" fill="#c29637" fill-rule="evenodd"/>
      <path id="Path_25841" data-name="Path 25841" d="M1082.688,248.94s-.1.129-.233.272c-.288.3-.663.647-.984,1-.3.337-.647.6-1.032,1.039s-.832.929-.945,1.071a1.056,1.056,0,0,0-.184.5c-.055-.039-.12-.081-.12-.081a.818.818,0,0,0,.1.143c.081.113.207.256.272.343a1.046,1.046,0,0,1,.168.369c.039.006.288.055.6-.456s.718-1.071.718-1.071l.647-.961.408-.815.512-.913.078-.434h0Z" transform="translate(-1056.167 -243.629)" fill="#ac8132" fill-rule="evenodd"/>
      <path id="Path_25842" data-name="Path 25842" d="M1225.846,218.3a4.931,4.931,0,0,0-.544.512c-.152.192-.512.7-.512.7l.129-.016.657-.582.256-.456.013-.152Z" transform="translate(-1198.661 -213.643)" fill="#a88f33" fill-rule="evenodd"/>
      <path id="Path_25843" data-name="Path 25843" d="M1268.582,1151.389a.676.676,0,0,1,.143-.424,3.078,3.078,0,0,0,.913-1.266,8.325,8.325,0,0,0,.417-1.071,4.7,4.7,0,0,1-1.088.712c.1-.2.152-.343.2-.447-.055-.048-.288-.1-.311-.129.129-.13.2-.447.463-.657.337-.256.952-.7,1.429-1.088a9.53,9.53,0,0,0,1.537-1.569.585.585,0,0,1,.087.168s-.472.615-.718,1.006a.959.959,0,0,0-.2.528l.447-.192s.129.479-.456,1.207c.256-.1.359-.039.5-.12a2.27,2.27,0,0,0-.88.929,4,4,0,0,1-1.417,1.647,11.754,11.754,0,0,0-1.071.764h0Z" transform="translate(-1241.517 -1121.014)" fill="#a67a2e" fill-rule="evenodd"/>
      <path id="Path_25844" data-name="Path 25844" d="M1129.271,296.7a3.57,3.57,0,0,0-.3.984c-.006.1-.032.185-.032.3a3.722,3.722,0,0,1-.064,1.016.534.534,0,0,0-.081-.168c-.048.136-.136.56-.207.718a3.378,3.378,0,0,1-.1-.887c.007-.424.016-.5.016-.592a2.6,2.6,0,0,1-.136.408c-.048-.087-.1-.2-.168-.294a1.836,1.836,0,0,1-.129.207c-.007-.039-.023-.142-.032-.288a4.091,4.091,0,0,1-.006-.431,1.95,1.95,0,0,1,.44-.744,6.22,6.22,0,0,0,.8-1.32c.1-.223.544-1.152.544-1.152h.337l-.489,1.113s-.294.608-.447.832-.472.864-.615,1.113c.1-.136.191-.207.295-.337a5.338,5.338,0,0,0,.378-.482h0Z" transform="translate(-1103.96 -288.178)" fill="#8c6228" fill-rule="evenodd"/>
      <path id="Path_25845" data-name="Path 25845" d="M1203.785,216.32a1.392,1.392,0,0,1-.256.463c-.2.24-.631.56-.841.815a2.205,2.205,0,0,0-.4,1.735,2.908,2.908,0,0,1,.505-.913,7.005,7.005,0,0,0,.832-1.191,2,2,0,0,0,.191-.631l.064-.081-.039-.185-.055-.013Z" transform="translate(-1176.594 -211.705)" fill="#cba94c" fill-rule="evenodd"/>
      <path id="Path_25846" data-name="Path 25846" d="M1396.753,519.581a3.542,3.542,0,0,1-.168-.673c-.039-.32.064-.384-.055-.751-.071-.223-.2-.192-.233-.223a1.906,1.906,0,0,1-.049-.553,2.078,2.078,0,0,0-.039-.528c-.048-.039-.081-.071-.152-.311a3.444,3.444,0,0,0-.159-.43c-.039-.071-.152-.136-.152-.207,0-.143.13-.217.13-.256-.006-.081-.1-.016-.13-.039-.032-.039.081-.272.039-.3-.016-.016-.13.12-.159.081s-.071-.424-.13-.68-.113-.43-.12-.5-.447-1.327-.553-1.631a7.69,7.69,0,0,1-.217-.783,4.044,4.044,0,0,0-.071-.431c-.016.032-.006.191-.032.185s-.1-.56-.129-.647a4.51,4.51,0,0,1-.192-.6c-.032-.217-.1-.783-.152-1.168s-.071-.544-.071-.64a4,4,0,0,0-.039-.705,6.585,6.585,0,0,0-.3-1.191c-.217-.544-.793-1.935-.9-2.282,0-.087.113-.039.113-.039s.281.705.489,1.249a8.351,8.351,0,0,0,.44,1.071,4.02,4.02,0,0,1,.479,1.456c.136.874.184,1.68.265,2.217a5.767,5.767,0,0,0,.152.8c.087.295.223.6.4,1.065a7.027,7.027,0,0,1,.327,1c.071.359.071.631.113.809.039.152.1.456.233.9s.336,1.006.472,1.359a7.518,7.518,0,0,1,.424,1.609,15.454,15.454,0,0,1,.123,1.78h0Z" transform="translate(-1363.009 -493.5)" fill="#a88f33" fill-rule="evenodd"/>
      <path id="Path_25847" data-name="Path 25847" d="M1250.355,213.032l-.016.039a.068.068,0,0,1,.039.081,1.929,1.929,0,0,1-.016.265c-.016.113-.048.2-.055.272a1.363,1.363,0,0,1-.192.761c-.064.12-.1.223-.136.294a.871.871,0,0,1-.168.282c.113-.064.521-.32.728-.282a1.518,1.518,0,0,0-.5.447,1.113,1.113,0,0,0,.384,0,5.342,5.342,0,0,1,1.113-.159c.385.023.233-.463.233-.463l-.445-.977-.841-.592-.133.032Z" transform="translate(-1223.147 -208.456)" fill="#be9c44" fill-rule="evenodd"/>
      <path id="Path_25848" data-name="Path 25848" d="M1277.681,196.6a2.994,2.994,0,0,1-.528-1.664,29.952,29.952,0,0,1-.12-3.2l-.3-.744a1.737,1.737,0,0,0-.223-.679c-.159-.184-.472-.5-.615-.647s-.3-.359-.4-.392a1.11,1.11,0,0,1,1.1-.544,1.162,1.162,0,0,1,1.175.625,6.108,6.108,0,0,1,.625,2.283,7.83,7.83,0,0,1-.136,3.5,3.571,3.571,0,0,1-.57,1.46Z" transform="translate(-1248.28 -184.701)" fill="#a17c34" fill-rule="evenodd"/>
      <path id="Path_25849" data-name="Path 25849" d="M1316.665,588.446a.636.636,0,0,0,.359-.081,1.011,1.011,0,0,0,.887-.375.756.756,0,0,1-.071.592,1.358,1.358,0,0,1,.217-.136,2.041,2.041,0,0,1-.359,1.385.565.565,0,0,1,.417-.152,1.647,1.647,0,0,1-.142,1.039.422.422,0,0,1-.417.142.814.814,0,0,0,0-.136c-.006-.087-.039-.175-.016-.233a1.159,1.159,0,0,1-.337-.233,2.1,2.1,0,0,1-.673-1.055.416.416,0,0,1,.3-.456.361.361,0,0,1-.071-.087.491.491,0,0,0-.1-.213Z" transform="translate(-1288.441 -575.446)" fill="#8c6228" fill-rule="evenodd"/>
      <path id="Path_25850" data-name="Path 25850" d="M1201.254,297.215s-.016-.023-.1.081c.016-.1.032-.2.039-.295a1.019,1.019,0,0,1,.159-.239c-.049.1-.081.184-.081.184a1.305,1.305,0,0,1,.295-.359c.12-.1.272-.142.336-.233a.6.6,0,0,0,.071-.129,2.014,2.014,0,0,0,.4-.408c.032-.039.081-.081.113-.12.055-.023.184-.081.336-.159s.337-.207.447-.256c.217-.1.447-.087.553-.24.081-.023.168-.265.152-.472a1.96,1.96,0,0,1,.945,1.265,4.585,4.585,0,0,1-.233,1.945,2.978,2.978,0,0,1-.288.967c-.2.266-.848.64-1.006.825-.136.152-.544.537-.528.815.016.207.272.32.327.359s.055.087.158.064.142-.071.185-.071.048.016.071.016a.235.235,0,0,0,.049-.007s-.016.295-.706.384c-.049.007-.1.023-.159.032a.4.4,0,0,0,.217-.159c-.1-.016-.375-.032-.447-.055a.861.861,0,0,1,.158-.191c.055-.048-.006-.064-.055-.039a2.589,2.589,0,0,0-.24.184,2.345,2.345,0,0,1-.282.256.631.631,0,0,1,.12-.553c-.039.006-.114.12-.185.1a1.034,1.034,0,0,1,.023-.353,1.614,1.614,0,0,1,.249-.4l1.016-1.816.217-1.375-2.327.452h0Z" transform="translate(-1175.526 -288.286)" fill="#92723a" fill-rule="evenodd"/>
      <path id="Path_25851" data-name="Path 25851" d="M1165.125,409.829s-.055.039.055.113a1.232,1.232,0,0,1-.1.159c-.055.064-.113.1-.136.159a.883.883,0,0,0-.087.24,1.18,1.18,0,0,1-.152.56,2.4,2.4,0,0,0-.142.272,2.01,2.01,0,0,0-.168.32,3.351,3.351,0,0,0-.055.424l.1-.12a.909.909,0,0,1-.143.233c.039-.032.152-.113.343-.282a8.516,8.516,0,0,1,1.185-.9,1.732,1.732,0,0,1-.385.071c.081-.081.809-.935,1.191-1.016a.153.153,0,0,0,.032-.1l-.327-.032-.663.142-.1-.512-.443.269Z" transform="translate(-1139.452 -400.823)" fill="#b18e3e" fill-rule="evenodd"/>
      <path id="Path_25852" data-name="Path 25852" d="M1198.965,387.972a.9.9,0,0,0-.168.3,1.02,1.02,0,0,1-.159-.217.557.557,0,0,0-.734-.311,1.358,1.358,0,0,1,0-.3,1.675,1.675,0,0,0,.5-.447,2.065,2.065,0,0,0,.392-.631c.064-.049.175-.129.32-.223.207-.142.456-.337.5-.553a1.323,1.323,0,0,1-.615.12c.12-.055.3-.113.282-.353.049-.032.087-.055.087-.055a.32.32,0,0,0-.113-.016c-.007-.023-.016-.055-.071-.039s-.064.016-.071.039a.345.345,0,0,0-.152.039,2.343,2.343,0,0,1-.265.191c.023-.039.055-.1.055-.1a1.125,1.125,0,0,0-.272.064,5.649,5.649,0,0,0-.689.327c.023-.039.032-.064.048-.071s.055-.016.055-.023a.233.233,0,0,1-.006-.087,2.975,2.975,0,0,1,.256-.44.857.857,0,0,0,.136-.369l.5-.249,1.391-.32.9.055-.113.625-.533,1.091-.456.993-.521.609-.479.349h0Z" transform="translate(-1172.237 -376.053)" fill="#543e26" fill-rule="evenodd"/>
      <path id="Path_25853" data-name="Path 25853" d="M1205.633,356.467a8.093,8.093,0,0,1-.7.777c.1-.207.7-1.44.913-1.783-.048-.039-.113-.039.039-.64-.129.3-.175.463-.281.544a.2.2,0,0,1-.192.055.136.136,0,0,0,.016-.081s-.456-.055-.768-.055a4.585,4.585,0,0,0-1.272.3,5.2,5.2,0,0,0-.521.184c-.1.081-.152.168-.2.191s-.223.081-.265.142-.1.136-.1.152-.016.039.032.023c.016-.006.136-.071.272-.152.184-.1.408-.223.57-.294a2.637,2.637,0,0,1,.815-.191,5.077,5.077,0,0,1,.734-.13,6.16,6.16,0,0,1,.689.016c-.039.032-.071.071-.055.207a1,1,0,0,1-.064.175c-.1.265-.281.705-.384.929-.142.3-.3.56-.384.718a5.242,5.242,0,0,1-.43.8c-.174.223-.265.359-.32.408s-.447.336-.417.44a2.16,2.16,0,0,0,.848-.56,6.813,6.813,0,0,1,.647-.793,2.162,2.162,0,0,0,.576-.815,3.57,3.57,0,0,1,.2-.57h0Z" transform="translate(-1176.649 -347.251)" fill="#806031" fill-rule="evenodd"/>
      <path id="Path_25854" data-name="Path 25854" d="M776.806,664.8a1.017,1.017,0,0,1-.233.44c-.159.143-.44.265-.472.5s.282.359.282.359a1.245,1.245,0,0,0-.175.5,3.346,3.346,0,0,0,.016.479.213.213,0,0,0-.064.064.528.528,0,0,0,.175.336c.159.129.294.207.375.175a.761.761,0,0,1,.032.081s.12-.3.2-.57.152-.233.184-.6a3.507,3.507,0,0,1,.384-.994l.24-.536-.391-.3-.553.058Z" transform="translate(-759.54 -650.559)" fill="#b6903c" fill-rule="evenodd"/>
      <path id="Path_25855" data-name="Path 25855" d="M806.769,692.2a2.35,2.35,0,0,0-.223.265.778.778,0,0,1-.336.327c-.152.055-.249.055-.24.207s.152.217.233.294a.379.379,0,0,1,.12.369.37.37,0,0,0,.217-.223c.081-.175.646-1.239.646-1.239h-.417Z" transform="translate(-788.775 -677.433)" fill="#685026" fill-rule="evenodd"/>
      <path id="Path_25856" data-name="Path 25856" d="M805.875,539.967a.32.32,0,0,0,0-.223c-.049-.1-.343-.13-.489-.24a.579.579,0,0,0-.489-.142c.023-.055.113-.175.039-.2a.879.879,0,0,0-.408.152c-.071.055-.233.12-.265.159s-.087.113-.12.081-.048-.081-.1-.049a1.315,1.315,0,0,0-.369.375,1.922,1.922,0,0,1-.489.728c-.33.32-.473.528-.375.647s.143.032.159.136a.873.873,0,0,1-.016.3c-.039.168-.1.327-.016.359.223.071.44-.064.489-.023.1.087-.055.4.175.463a.714.714,0,0,0,.463-.055l.848-.456.816-.43.417-.825-.224-.689-.043-.071Z" transform="translate(-785.651 -527.656)" fill="#d4b968" fill-rule="evenodd"/>
      <path id="Path_25857" data-name="Path 25857" d="M907.99,553.909a.34.34,0,0,1,.032-.408c.175-.191.424-.272.521-.391a.149.149,0,0,0-.071-.048.644.644,0,0,1,.282-.266.27.27,0,0,0-.184-.087c-.159,0-.256.1-.4.1s-.159-.071-.159-.071.24-.023.217-.129-.064-.113-.064-.113a2.428,2.428,0,0,0,.544-.294.591.591,0,0,0,.087-.272c.055,0,.375-.168.5-.1s.039.265.039.265a3.192,3.192,0,0,0,.592-.583c.175.016.256-.12.384-.12.159,0,.408.217.456.679a2.908,2.908,0,0,1,.032.887,4.09,4.09,0,0,0,.064,1.113c.055.223.184.2.184.2a.363.363,0,0,1-.113.175.541.541,0,0,0-.087.375,1.614,1.614,0,0,0,.049.175.809.809,0,0,0-.129.2.227.227,0,0,1-.207.136,1,1,0,0,0-.142,0c-.1.007-.136.023-.2,0s-.113-.049-.087-.256-.8-.689-.8-.689l-1.344-.479h0Z" transform="translate(-888.566 -539.627)" fill="#cca849" fill-rule="evenodd"/>
      <path id="Path_25858" data-name="Path 25858" d="M838.091,707.128s.294.392,1.5.392a3.046,3.046,0,0,0,.9-.087,2.445,2.445,0,0,0,1.1-.8c.44-.521.343-.734.343-.734l-.256-.039-.832.113-2.462,1.049-.3.107Z" transform="translate(-820.211 -690.802)" fill="#585136" fill-rule="evenodd"/>
      <path id="Path_25859" data-name="Path 25859" d="M832.359,672.023s-1.049.233-1.049-.43a2.307,2.307,0,0,1,.809-1.447,3.04,3.04,0,0,1,.57-.256h.968l.184.489-.081,1.055-1.4.589Z" transform="translate(-813.575 -655.599)" fill="#252211" fill-rule="evenodd"/>
      <path id="Path_25860" data-name="Path 25860" d="M856.739,676.137s-.2-.185-.657.064a1.643,1.643,0,0,0-.848,1.24c-.023.417.343.728.913.744a2.9,2.9,0,0,0,.809-.064c-.032-.039-.2-.249-.2-.249l-.016-1.735h0Z" transform="translate(-836.989 -661.648)" fill="#c3b378" fill-rule="evenodd"/>
      <path id="Path_25861" data-name="Path 25861" d="M865.445,683.555s-.048-.039-.192.039a3.142,3.142,0,0,0-.43.353,1.744,1.744,0,0,0-.192.159c-.2.24-.369.631-.272.825s.417.417,1.233.265l-.149-1.641h0Z" transform="translate(-845.892 -668.963)" fill="#e6d89c" fill-rule="evenodd"/>
      <path id="Path_25862" data-name="Path 25862" d="M869.534,659.923a1.031,1.031,0,0,0-.129.521.858.858,0,0,0,.864.887c.521.032.87-.751,1.249-1.055a.908.908,0,0,1,.463-.24,4.3,4.3,0,0,0-1.081-.734,1.593,1.593,0,0,0-2.12.168c.223-.016.945-.2.945-.2l.353.113-.544.541h0Z" transform="translate(-850.246 -644.929)" fill="#252211" fill-rule="evenodd"/>
      <path id="Path_25863" data-name="Path 25863" d="M943.83,694.632c-.023-.048-.039-.113.055-.129s.136-.007.168.064.064.13.016.159a.224.224,0,0,1-.24-.094Zm-.152-.456s-.032.023-.016-.023.049-.152.152-.129.081.136.064.168a.168.168,0,0,1-.168.064.054.054,0,0,1-.032-.081Z" transform="translate(-923.526 -679.214)" fill="#6f674d" fill-rule="evenodd"/>
      <path id="Path_25864" data-name="Path 25864" d="M534,663.045a1,1,0,0,0,.553.185,1.5,1.5,0,0,0,.848-.5c.1-.113.192-.233.288-.327a1.725,1.725,0,0,0,.175-.175c.055-.064.113-.184.142-.223a2.96,2.96,0,0,1-.282.217,3.337,3.337,0,0,1-.418.217c-.087.032-.993.512-.993.512l-.314.1Z" transform="translate(-522.608 -647.877)" fill="#ac924c" fill-rule="evenodd"/>
      <path id="Path_25865" data-name="Path 25865" d="M552.34,586.432a1.3,1.3,0,0,1,.417-.159,7.783,7.783,0,0,1,.8-.113l.44.192.175.664-.32.689-.408.256-.463-.744-.64-.783h0Z" transform="translate(-540.557 -573.655)" fill="#9f8e57" fill-rule="evenodd"/>
      <path id="Path_25866" data-name="Path 25866" d="M518.352,532.272l-.152.114a.988.988,0,0,0,.071-.288,2.666,2.666,0,0,1,.447-1.049,3.318,3.318,0,0,1,.24-.288.162.162,0,0,0-.13.032,1.55,1.55,0,0,1,.447-.456c.207-.128.288-.168.5-.064s.272.159.43.152a.486.486,0,0,0,.294-.175s.032.1-.087.343a4.827,4.827,0,0,1-.592.728l-.984.673-.489.277h0Z" transform="translate(-507.145 -518.903)" fill="#eac970" fill-rule="evenodd"/>
      <path id="Path_25867" data-name="Path 25867" d="M559.421,532.919s.712.1.929-.1c.006.023.032.023.032.039a.057.057,0,0,1-.016.032.537.537,0,0,1,.071-.006.422.422,0,0,0,.087.016.507.507,0,0,0,.071-.007.121.121,0,0,1-.049.081c.032,0,.064.006.064.032s.006.1-.032.12a.147.147,0,0,1-.1-.007.4.4,0,0,0,.049.175.365.365,0,0,0,.384.217s.1.233-.311.751c-.055.071-.113.168-.184.249a.945.945,0,0,0-.064.191,1.618,1.618,0,0,0,.887-.871,4.57,4.57,0,0,0,.2-1.767.91.91,0,0,0-.071-.353.306.306,0,0,0-.479-.055,5.846,5.846,0,0,1-.793.825,2.7,2.7,0,0,1-.68.44h0Z" transform="translate(-547.486 -520.223)" fill="#d7bc6b" fill-rule="evenodd"/>
      <path id="Path_25868" data-name="Path 25868" d="M509,634.142a.6.6,0,0,0-.207.384,1.255,1.255,0,0,0,.142.809.816.816,0,0,0,.625.463.684.684,0,0,0,.265-.055,1.677,1.677,0,0,0,.359-.223c.159-.12.288-.223.272-.233-.039-.016-.977-.793-.977-.793l-.353-.394-.126.043Z" transform="translate(-497.915 -620.573)" fill="#585136" fill-rule="evenodd"/>
      <path id="Path_25869" data-name="Path 25869" d="M544.519,653.849a.821.821,0,0,0,.3-.087c.113-.071-.663-.841-.663-.841l.055.832Z" transform="translate(-532.551 -638.991)" fill="#453a25" fill-rule="evenodd"/>
      <path id="Path_25870" data-name="Path 25870" d="M517.7,613.434a1.121,1.121,0,0,0-.1.233,4.082,4.082,0,0,0,.071.815.591.591,0,0,0,.521.424.738.738,0,0,0,.4-.129c0-.032-.24-.064-.3-.185a1.089,1.089,0,0,1-.064-.384c-.006-.1-.006-.217.032-.256a.832.832,0,0,0,.1-.375l.311-.577h-.409l-.489.3Z" transform="translate(-506.558 -599.923)" fill="#84754b" fill-rule="evenodd"/>
      <path id="Path_25871" data-name="Path 25871" d="M516.69,596.975a1.774,1.774,0,0,1,.608-.521.624.624,0,0,1,.417-.039l-.168.43-.24.265.016.136a.829.829,0,0,0,.2.608.627.627,0,0,0,.521.24.678.678,0,0,0,.553-.447,1.256,1.256,0,0,0-.023-1.2.978.978,0,0,0-.825-.447,1.155,1.155,0,0,0-1.061.974h0Z" transform="translate(-505.667 -583.285)" fill="#252211" fill-rule="evenodd"/>
      <path id="Path_25872" data-name="Path 25872" d="M899.514,675.464c-.12-.055-.006-.391.113-.5a.844.844,0,0,1,.537-.24c.1-.006.191.055.175.12a.962.962,0,0,1-.343.408C899.786,675.422,899.649,675.525,899.514,675.464Z" transform="translate(-880.274 -660.334)" fill="#f7f7e7" fill-rule="evenodd"/>
      <path id="Path_25873" data-name="Path 25873" d="M588.947,623.161a.231.231,0,0,1,.223.159c.023.1-.055.311-.223.311-.136,0-.207-.168-.207-.217a.247.247,0,0,1,.032-.113A.185.185,0,0,1,588.947,623.161Z" transform="translate(-576.18 -609.867)" fill="#f8f6de" fill-rule="evenodd"/>
      <path id="Path_25874" data-name="Path 25874" d="M520.7,626.67a.751.751,0,0,0-.327.32.849.849,0,0,0-.064.512,1.252,1.252,0,0,0,.152.353.243.243,0,0,0,.185.113.327.327,0,0,0,.168-.239,1.707,1.707,0,0,1,.113-.657c.094-.2-.227-.4-.227-.4h0Z" transform="translate(-509.196 -613.301)" fill="#d4c38b" fill-rule="evenodd"/>
      <path id="Path_25875" data-name="Path 25875" d="M536.683,614.32c-.039.023-.1.055-.087.1s.152.064.2.159a.339.339,0,0,1,.039.249.394.394,0,0,0,.113-.081c.071-.081.159-.191.233-.191.049,0,.1.023.143.023.071,0,.142-.023.152-.1.016-.1-.136-.185-.223-.168a.212.212,0,0,0-.032-.223c-.071-.065-.294.049-.343.081s-.194.152-.194.152h0Z" transform="translate(-525.146 -600.968)" fill="#e2d59d" fill-rule="evenodd"/>
      <path id="Path_25876" data-name="Path 25876" d="M684.767,938.141l.479-.141.136.1s.1.207.249.233c-.049.1-.175.192-.168.265a.224.224,0,0,0,.071.13,1.114,1.114,0,0,0,.418,1.429c-.2.081-.456.192-.592.256a1.049,1.049,0,0,1,.391.143c.088.078.088.1.168.152s.129.113.113.142c-.055-.032-.24-.129-.272-.039s-.8.055-.8.055l-1.295.249a.234.234,0,0,0-.087-.249c-.159-.142-.353.006-.56-.152-.272-.207-.282-.447-.369-.537a1.711,1.711,0,0,1,.689-.192.285.285,0,0,1-.039-.217c.039-.113.2-.185.152-.32.071-.016.1-.016.282-.24s.272-.272.4-.288a.591.591,0,0,0,.447-.223c.168-.159.113-.294.113-.294s.11-.036.071-.259h0Z" transform="translate(-668.087 -917.989)" fill="#cbac5a" fill-rule="evenodd"/>
      <path id="Path_25877" data-name="Path 25877" d="M715.088,940.616c.006-.032.032-.049.207-.032s1.281-.1,1.583-.12a9.91,9.91,0,0,1,1.9.1c.521.11,1.049.24,1.3.3s.337.1.327.129a.094.094,0,0,1-.1.055c-.032-.006-.88-.265-1.142-.32a10.338,10.338,0,0,0-1.664-.192,8.713,8.713,0,0,0-1.039.039,8.332,8.332,0,0,1-1.233.087c-.192-.023-.152-.023-.143-.055h0Z" transform="translate(-699.822 -920.392)" fill="#d6bc6f" fill-rule="evenodd"/>
      <path id="Path_25878" data-name="Path 25878" d="M456.44,1064.385a2.633,2.633,0,0,1,.9.8.347.347,0,0,1-.1.489s.375,0,.327.207a3.12,3.12,0,0,1-1.065.663,1.725,1.725,0,0,1-.615.207c-.2.032-.751-.064-.864.1a.316.316,0,0,0-.032.353,1.818,1.818,0,0,0,.295.055s-.055.152-.6.168-.68.055-.712.113.1.023.353.064.6.064.6.064a1.1,1.1,0,0,1-.408.175,6.777,6.777,0,0,0-1.023.265.945.945,0,0,0,.256.142,1.614,1.614,0,0,0-.359.13c.048.032.113.071.113.071a2.237,2.237,0,0,1-.431.408,3.518,3.518,0,0,1-1.385.424c-.783-.207-.88-1.065-1.071-1.129-.288-.1-.424.1-.68-.039a1.593,1.593,0,0,1,.295-.184c-.129-.064-.8-.489-.8-.489a4.967,4.967,0,0,0-.233-.447c-.129-.223-.32-.521-.463-.783a6.371,6.371,0,0,0-.608-1.168c.049-.064.217-.055.217-.055l2.359.777,4.184.121,1.088-1.553.463.055Z" transform="translate(-438.57 -1041.624)" fill="#dfc677" fill-rule="evenodd"/>
      <path id="Path_25879" data-name="Path 25879" d="M547.18,1121.383a.369.369,0,0,0,.087.071,1.267,1.267,0,0,1,.282.217c.032-.048.113-.136.256,0s.32.039.43.071.12.055.12.055a.809.809,0,0,1,.207-.113c.087-.032.191-.055.3-.087a1.705,1.705,0,0,1,.295-.055c.071.048.327.32,1.353-.081.968-.375,1.191-.417,1.353-.359.016-.039.032-.113.282-.1a1.928,1.928,0,0,0-.207-.456l-1.142-.391h-.625l-1.874.343-1.038.592-.081.3Z" transform="translate(-535.507 -1096.253)" fill="#c4a859" fill-rule="evenodd"/>
      <path id="Path_25880" data-name="Path 25880" d="M517.9,1077.684a.606.606,0,0,0,.282.359,1.621,1.621,0,0,1,.336.294s.049-.064.087-.129.071-.152.136-.175c.13-.055.424.048.489.032s.039-.129.1-.129c.136-.007.223.087.272.087s.168-.006.184-.032.023-.295.207-.424a.553.553,0,0,1,.512-.048c0,.048.006.168.136.175a.661.661,0,0,1,.256.023c.114.039.249-.006.311.184.055-.016.185-.032.152-.217a.941.941,0,0,0,.256-.272c.032-.048.087-.1.13-.175a.528.528,0,0,1,.43.136c-.055.039-.087.064-.1.1a1.16,1.16,0,0,1,.129.152c.049.064.081.143.142.159a5.362,5.362,0,0,0,.608,0,1.224,1.224,0,0,1,.528.159c.032-.016.032-.023.113-.006s.142.023.055-.081c.048.023.1.071.152.023a.318.318,0,0,1,.223-.136c.136-.016.185.006.24-.136.071-.175-.175-.175-.175-.175s.113-.1.24-.24a1.092,1.092,0,0,0,.369-.553.39.39,0,0,0-.336-.472l-1.977.609-2.417-.12-2.061,1.026h0Z" transform="translate(-506.852 -1053.212)" fill="#927d49" fill-rule="evenodd"/>
      <path id="Path_25881" data-name="Path 25881" d="M412.909,849.539a.693.693,0,0,0-.1.272c-.039.191-.023.168-.055.3a5.676,5.676,0,0,0-.281,1.945c.149.456.408.625.57.993a1.439,1.439,0,0,1,.081.2c.055.239.007.424.071.664a.734.734,0,0,0,.168.272c.192.2.5.391.64.527.191.2.463.609.809.647a1.166,1.166,0,0,0,.663-.184,5.519,5.519,0,0,1,.512-.384,1.913,1.913,0,0,1,.43-.13,1.95,1.95,0,0,1,.69-.032,6.642,6.642,0,0,0,1.088.217,2.961,2.961,0,0,0,.706-.1c.463-.136,1.022-.369,1.392-.473.217-.064.391-.081.57-.12a1.228,1.228,0,0,0,.705-.353c-.1-.113-.217-.288-.864-.282a11.422,11.422,0,0,0-2,.489,1.682,1.682,0,0,1-1.065-.049c-.457-.17-.472-.282-.472-.282a2.047,2.047,0,0,1-.681-1.191,2.132,2.132,0,0,1,.521-2.071.342.342,0,0,0,.1-.288,1.3,1.3,0,0,0,.249-.9c-.1-.431-.767-.343-.767-.343l-3.68.644h0Z" transform="translate(-403.637 -830.778)" fill="#6e6342" fill-rule="evenodd"/>
      <path id="Path_25882" data-name="Path 25882" d="M458.758,946.91a.335.335,0,0,0-.039.175c.006.087.032.2.294.456a.559.559,0,0,1,.175.472.817.817,0,0,0,.417-.12c.24-.113.32.087.32.087a.676.676,0,0,1,.223-.071.488.488,0,0,0,.2-.064,2.886,2.886,0,0,0,.528.424c.223.12.353.2.463.12a.306.306,0,0,0,.1-.282.841.841,0,0,0-.1-.168c-.071-.1-.185-.223-.192-.32-.016-.223.168-.489.129-.553s-.184-.081-.544.049a8.1,8.1,0,0,1-1.977-.2h0Z" transform="translate(-448.933 -926.709)" fill="#39331f" fill-rule="evenodd"/>
      <path id="Path_25883" data-name="Path 25883" d="M494.179,967.8s-.184-.175-.12-1.023a1.052,1.052,0,0,1,.233.023A1.837,1.837,0,0,1,494.179,967.8Z" transform="translate(-483.506 -946.15)" fill="#292311" fill-rule="evenodd"/>
      <path id="Path_25884" data-name="Path 25884" d="M432.258,810.422a.506.506,0,0,0,.071-.064,1.607,1.607,0,0,0-.12,1.353,1.794,1.794,0,0,0,1.582,1.337,1.814,1.814,0,0,0,1.576-.88c.175-.217.375-.489.553-.673.265-.288.473-.369.473-.647,0-.57-.583-.825-1.44-1.081a3.271,3.271,0,0,0-2.032-.049,1.111,1.111,0,0,0-.663.705h0Z" transform="translate(-422.898 -792.308)" fill="#252211" fill-rule="evenodd"/>
      <path id="Path_25885" data-name="Path 25885" d="M567.781,1013.775l.064-.032s.016-.256.12-.249a.2.2,0,0,1,.142.2.12.12,0,0,1-.136.12.319.319,0,0,1-.191-.039Z" transform="translate(-555.667 -991.872)" fill="#3f3824" fill-rule="evenodd"/>
      <path id="Path_25886" data-name="Path 25886" d="M554.31,975.589s.064-.023.142.055a1.16,1.16,0,0,1,.43.023.327.327,0,0,1,.113.1,1.125,1.125,0,0,1-.5,0C554.31,975.709,554.31,975.589,554.31,975.589Z" transform="translate(-542.485 -954.774)" fill="#2d2815" fill-rule="evenodd"/>
      <path id="Path_25887" data-name="Path 25887" d="M596.449,968.194a.8.8,0,0,0-.359-.175c-.032-.006-.039.016-.064.016s-.023-.055-.023-.055l-.1.055s-.016.023.039.064.13.071.152.136a.556.556,0,0,0,.032.1.346.346,0,0,0,.175-.032c.055-.032.159-.085.152-.107h0Z" transform="translate(-583.183 -947.33)" fill="#82764f" fill-rule="evenodd"/>
      <path id="Path_25888" data-name="Path 25888" d="M545.21,998.073a.272.272,0,0,1,.249-.233.25.25,0,0,1,.265.2l-.129.129s-.1-.139-.384-.1Z" transform="translate(-533.579 -976.552)" fill="#2d2816" fill-rule="evenodd"/>
      <path id="Path_25889" data-name="Path 25889" d="M591.823,956.958a.676.676,0,0,1-.385.168.153.153,0,0,1,0-.2c.071-.1.152-.136.233-.1A.189.189,0,0,1,591.823,956.958Z" transform="translate(-578.784 -936.398)" fill="#574f35" fill-rule="evenodd"/>
      <path id="Path_25890" data-name="Path 25890" d="M631.585,952.918c.007-.032-.016-.039,0-.055s.1-.048.12-.032,0,.032,0,.064a.154.154,0,0,1-.016.087.131.131,0,0,1-.12.039c-.032-.01-.039-.055-.039-.064C631.546,952.95,631.585,952.934,631.585,952.918Zm.553-.349c0-.016.055-.049.087-.049.048,0,.048.039.055.049s.016-.007.032.023.039.081.023.113a.118.118,0,0,1-.1.048A.863.863,0,0,1,632.137,952.569Z" transform="translate(-618.057 -932.2)" fill="#82764f" fill-rule="evenodd"/>
      <path id="Path_25891" data-name="Path 25891" d="M607.86,974.66a.451.451,0,0,1,.168.1c-.032.023-.081.048-.081.048a.243.243,0,0,0-.087-.146Z" transform="translate(-594.892 -953.867)" fill="#6e6342" fill-rule="evenodd"/>
      <path id="Path_25892" data-name="Path 25892" d="M600.313,897.009c-.016-.016.048-.055.087-.048s.055.032.1.039.049-.016.064-.032.071-.006.081,0a.179.179,0,0,1,.016.023.09.09,0,0,1,.032-.064.1.1,0,0,1,.087-.016.48.48,0,0,1,.032.12c-.006.016-.1.039-.12.023a1.157,1.157,0,0,0,.1.136c.01.016-.071.055-.1.049a1.319,1.319,0,0,1-.372-.227Zm.424-.537a.075.075,0,0,0-.032-.039c-.023-.006-.1,0-.1.039a1.2,1.2,0,0,0,.136.369c.081.113.136.207.191.233a.075.075,0,0,0,.1-.032,1.961,1.961,0,0,0,.016-.417,3.836,3.836,0,0,0-.032-.57.086.086,0,0,0-.1.016,3.024,3.024,0,0,0-.175.4h0Z" transform="translate(-587.503 -876.928)" fill="#585136" fill-rule="evenodd"/>
      <path id="Path_25893" data-name="Path 25893" d="M592.1,991.963a.262.262,0,0,0-.223-.023c-.1.049-.1.24-.1.24a.153.153,0,0,0,.143-.016.435.435,0,0,0,.178-.2Z" transform="translate(-579.152 -970.763)" fill="#574f35" fill-rule="evenodd"/>
      <path id="Path_25894" data-name="Path 25894" d="M613.874,940.806c-.006-.064-.064-.064-.064-.1a.073.073,0,0,1,.071-.055c.032,0,.064.039.1.064s.1.064.1.113-.064.184-.142.184-.055-.146-.071-.21Zm.625-.087s-.13.039-.12,0,.039-.048.081-.048a.128.128,0,0,1,.081-.039.07.07,0,0,1,.048.016s.087-.039.113-.016.007.023.023.049a.228.228,0,0,1,.039.1c0,.026-.1.081-.175.071S614.515,940.735,614.5,940.719Zm.754-.146s.039.023.007.049a.527.527,0,0,1-.233.071c-.1,0-.184.016-.184-.016s.081-.1.129-.113a.1.1,0,0,1,.081-.039c.039,0,.191-.016.233-.023s.071.016.048.048S615.253,940.573,615.253,940.573Zm.223-1s-.049.1-.1.1-.055-.023-.055-.039.055-.081.048-.1c-.016,0-.055,0-.048-.039s.055-.071.1-.064a.213.213,0,0,1,.129-.048c.055,0,.1.016.1.048s-.064.1-.087.12-.058.043-.09.016Zm-.738,1.913s-.064.007-.064.039c0,.016.016.016.039.007a.175.175,0,0,0,.039-.007c.006.007.006.039.055.039a.307.307,0,0,0,.113-.039c.039-.016.071-.032.071-.064a.1.1,0,0,0-.1-.081.129.129,0,0,0-.071.016s-.016-.032-.071,0-.049.032-.032.049.019.043.019.043Zm-.366.337c0-.016.081-.049.1-.039a.413.413,0,0,1,.087.142c0,.016-.081.055-.113.055a.15.15,0,0,1-.087-.064c0-.006.039-.016.039-.023s-.029-.055-.029-.071Zm-.256-.473c.016-.006.016-.023.039-.039a.056.056,0,0,1,.049-.006.079.079,0,0,1,.055-.039c.039-.006.071,0,.064.016,0,.049.032.081.032.12s-.023.087-.1.12a.573.573,0,0,1-.207.016.107.107,0,0,1-.016-.1.268.268,0,0,1,.087-.084h0Z" transform="translate(-600.715 -919.35)" fill="#82764f" fill-rule="evenodd"/>
      <path id="Path_25895" data-name="Path 25895" d="M630.176,1032.31s-.055.032-.055.049a.143.143,0,0,0-.006.048c0,.01.071-.006.081-.016S630.176,1032.327,630.176,1032.31Z" transform="translate(-616.672 -1010.287)" fill="#6e6342" fill-rule="evenodd"/>
      <path id="Path_25896" data-name="Path 25896" d="M603.887,1024.4a.676.676,0,0,1,.129.016c.032.016.055.049.023.087s-.064.1-.136.087-.159-.048-.159-.081a.155.155,0,0,1,.039-.113c.032-.026.048-.01.1,0h0Z" transform="translate(-590.864 -1002.533)" fill="#585136" fill-rule="evenodd"/>
      <path id="Path_25897" data-name="Path 25897" d="M587.8,1026.7a.913.913,0,0,0-.13.12c-.032.039-.191.239-.239.281a.609.609,0,0,1,.055-.081.33.33,0,0,0-.136.175c-.039.12.217.185.385.233s.233.064.233.064a1.809,1.809,0,0,1-.159-.294c-.064-.152-.1-.168-.055-.24s.081-.12.081-.175C587.815,1026.732,587.8,1026.7,587.8,1026.7Z" transform="translate(-574.815 -1004.797)" fill="#574f35" fill-rule="evenodd"/>
      <path id="Path_25898" data-name="Path 25898" d="M435.66,1031.225a.2.2,0,0,0,.071,0,3.3,3.3,0,0,1,1.081-.159,5.789,5.789,0,0,1,1.168.192c.663.175,1.489.521,2.023.719.142.055.282.152.384.191a2.443,2.443,0,0,0,.663.2,2.6,2.6,0,0,0,.871-.12c.369-.081,1-.12,1.553-.2a3.174,3.174,0,0,0,.528-.12,2.778,2.778,0,0,1-1.5.6,4.682,4.682,0,0,1-1.288.016,3.941,3.941,0,0,1-.728-.13c-.191-.055-.583-.2-1.065-.32-.337-.087-.712-.152-1.142-.233a13.509,13.509,0,0,1-2.624-.634Z" transform="translate(-426.366 -1009.067)" fill="#252211" fill-rule="evenodd"/>
      <line id="Line_247" data-name="Line 247" x1="2.696" y1="2.518" transform="translate(6.048 15.537)" fill="none"/>
      <path id="Path_25899" data-name="Path 25899" d="M231.523,944.94c-.256.217-.528.424-.793.624l-.8.614c-.272.2-.537.408-.809.608s-.544.391-.832.576c.256-.217.528-.418.8-.615s.554-.391.816-.591l.8-.615c.275-.2.54-.408.819-.6Zm-1.414,2.265s.288-.24.647-.576a13.866,13.866,0,0,1,1.168-1.048l-1.816,1.625Z" transform="translate(-223.42 -924.781)" fill="#cfb66c" fill-rule="evenodd"/>
      <path id="Path_25900" data-name="Path 25900" d="M313.56,976.291c.143-.142.295-.281.447-.417l.233-.2c.071-.064.152-.136.223-.207.142-.142.282-.295.424-.44a2.72,2.72,0,0,1,.223-.207.6.6,0,0,1,.129-.087.378.378,0,0,1,.136-.071c-.032.049-.071.071-.1.113s-.071.071-.1.1c-.071.071-.152.136-.223.2-.152.129-.311.256-.463.391s-.294.282-.447.418-.317.275-.476.405ZM315.5,975s-1.055,1.033-1.272,1.2Z" transform="translate(-306.871 -953.867)" fill="#cfb66c" fill-rule="evenodd"/>
      <path id="Path_25901" data-name="Path 25901" d="M345.932,990.44a3.451,3.451,0,0,1-.3.311l-.32.3c-.1.1-.2.207-.311.311s-.217.192-.337.282l.311-.3c.1-.1.217-.191.327-.294l.311-.3C345.715,990.638,345.819,990.534,345.932,990.44Zm.048.56a6.72,6.72,0,0,1-.343.793c-.272.544-.679,1.223-.858,1.57Z" transform="translate(-337.307 -969.311)" fill="#cfb66c" fill-rule="evenodd"/>
      <path id="Path_25902" data-name="Path 25902" d="M351.617,1016.69a.908.908,0,0,1-.071.327,3.218,3.218,0,0,1-.129.3c-.049.1-.1.2-.159.295s-.12.191-.168.288l-.327.576c-.113.192-.223.385-.343.57a5.281,5.281,0,0,1,.295-.592c.113-.192.217-.384.32-.583a3.286,3.286,0,0,0,.136-.3c.048-.1.1-.2.136-.295s.087-.2.136-.294a1.9,1.9,0,0,1,.175-.291Z" transform="translate(-342.944 -995)" fill="#cfb66c" fill-rule="evenodd"/>
      <path id="Path_25903" data-name="Path 25903" d="M447.245,1141.08a1.6,1.6,0,0,0-.288.961C447.044,1141.76,447.154,1141.329,447.245,1141.08Zm.3.425s-.113,1.152-.207,1.719A6.939,6.939,0,0,0,447.549,1141.5Zm2.12,1.786a12.17,12.17,0,0,0-.489,1.8c.1-.4.3-1.224.489-1.8Z" transform="translate(-437.42 -1116.737)" fill="#dec270" fill-rule="evenodd"/>
      <path id="Path_25904" data-name="Path 25904" d="M626.67,1137s.777,1.281,1.359,2.375A5.389,5.389,0,0,0,626.67,1137Z" transform="translate(-613.301 -1112.744)" fill="#cbaf59" fill-rule="evenodd"/>
      <path id="Path_25905" data-name="Path 25905" d="M724.52,1225.43a23.567,23.567,0,0,1,1.152,2.327A3.557,3.557,0,0,0,724.52,1225.43Z" transform="translate(-709.064 -1199.288)" fill="#e3c677" fill-rule="evenodd"/>
      <path id="Path_25906" data-name="Path 25906" d="M875.376,990.708c.129-.081.385-.521.608-.631a1.53,1.53,0,0,0,.592-.359,1.426,1.426,0,0,1,.7-.56c.615-.266.192-.609.192-.609a1.981,1.981,0,0,1,.217-.184.614.614,0,0,0,.327-.521,2.267,2.267,0,0,0-.456-1.417c.343-.071,1-.12,1.408-.223a2.012,2.012,0,0,0,.689-.288.786.786,0,0,1,.168-.929,5.413,5.413,0,0,0,1.065-1.266,3.108,3.108,0,0,0-1.952.249,1.493,1.493,0,0,1,.185.1,3.659,3.659,0,0,0-.993.424c-.463.391-.521.712-1.023.951s-1.006.175-1.424.369a3.754,3.754,0,0,0-.631.431c.032.039-.006.1.055.159-.039.055-.265.424-.5.424.023.087.217.152.217.152a1.044,1.044,0,0,1-.5.129,3.674,3.674,0,0,0,.841.706c-.039.081-.2.2-.136.353s.256.359.993.528a6.523,6.523,0,0,1-1.408.023,2.331,2.331,0,0,0-1.055-.023c.039.039.142.039.233.142-.1.006-.706-.071-.913.2a1.765,1.765,0,0,0-.294,1.055.275.275,0,0,0-.168.353c.055.2.343.265.528.391s.2.184.375.152.456-.223.615-.223a.413.413,0,0,1,.272.12s.431-.207.473-.168.006.288.048.327a3.1,3.1,0,0,0,.657-.34Z" transform="translate(-853.784 -962.676)" fill="#ecd592" fill-rule="evenodd"/>
      <path id="Path_25907" data-name="Path 25907" d="M476.528,422.911a10.181,10.181,0,0,0-7.023-6.191H455.24l.055,5.32h2.841v11.88h-2.9v5.311h13.871c3.343,0,6.023-3.359,6.023-3.359,4.291-6.09,1.395-12.961,1.395-12.961Zm-7.343,9.382s-1.088,1.57-2.272,1.57h-2.368l-.056-11.809h3.039s1.408.294,2.392,3.081C469.92,425.134,471.224,429.123,469.185,432.293Z" transform="translate(-445.528 -407.83)" fill="rgba(255,255,255,0.8)" fill-rule="evenodd"/>
    </g>
  </g>
</svg>
