<svg id="Layer_2" data-name="Layer 2" xmlns="http://www.w3.org/2000/svg" xmlns:xlink="http://www.w3.org/1999/xlink" width="40" height="40" viewBox="0 0 40 40">
  <defs>
    <linearGradient id="linear-gradient" x1="0.5" y1="1.003" x2="0.5" y2="0.003" gradientUnits="objectBoundingBox">
      <stop offset="0" stop-color="#4fa89b"/>
      <stop offset="1" stop-color="#6acebb"/>
    </linearGradient>
  </defs>
  <g id="Layer_1" data-name="Layer 1">
    <circle id="Ellipse_22" data-name="Ellipse 22" cx="20" cy="20" r="20" fill="url(#linear-gradient)"/>
    <path id="Path_25784" data-name="Path 25784" d="M126.823,222.07v-9.413l7.139,5.373v4.041h1.822v-4.42a1.063,1.063,0,0,0-.423-.847l-8.657-6.518a1.067,1.067,0,0,0-1.7.851V222.07Zm19.743,0v-9.413l-7.139,5.373v4.041H137.6v-4.42a1.063,1.063,0,0,1,.423-.847l8.657-6.515a1.067,1.067,0,0,1,1.7.849V222.07Z" transform="translate(-116.667 -196.07)" fill="#fff"/>
  </g>
</svg>
