<svg xmlns="http://www.w3.org/2000/svg" width="30" height="26.352" viewBox="0 0 30 26.352">
  <g id="e417322365436f4d3730a563e1d1e343" transform="translate(-0.26 -1.99)">
    <path id="Path_26192" data-name="Path 26192" d="M23.085,23.961a3.005,3.005,0,0,1-.864-.13,33.5,33.5,0,0,1-4.145-1.77c-2.125-1.019-4.534-2.168-5.959-2.219a1.08,1.08,0,0,1-1.036-1.123A1.062,1.062,0,0,1,12.2,17.682c1.874.069,4.387,1.27,6.805,2.427a31.419,31.419,0,0,0,3.852,1.658.8.8,0,0,0,.682-.1.328.328,0,0,0,.147-.25V4.538a.294.294,0,0,0-.147-.242.769.769,0,0,0-.674-.112A31.167,31.167,0,0,0,18.9,5.911c-2.375,1.131-4.836,2.289-6.676,2.4a1.062,1.062,0,0,1-1.149-1.045,1.08,1.08,0,0,1,1.054-1.149c1.425-.086,3.791-1.209,5.881-2.2a33.681,33.681,0,0,1,4.275-1.8,2.979,2.979,0,0,1,2.591.449,2.461,2.461,0,0,1,1.01,1.978V21.413A2.47,2.47,0,0,1,24.864,23.4,2.91,2.91,0,0,1,23.085,23.961Zm-17.5-5.009H4.578c-2.384,0-4.318-1.615-4.318-3.6V10.635c0-1.986,1.943-3.6,4.318-3.6h1.01a1.08,1.08,0,0,1,0,2.159H4.578c-1.175,0-2.168.665-2.168,1.442v4.75c0,.786.993,1.442,2.168,1.442h1.01a1.08,1.08,0,1,1,0,2.159Z" transform="translate(0 0)" fill="#29c1e1"/>
    <path id="Path_26193" data-name="Path 26193" d="M10.409,21.307H8.2A2.867,2.867,0,0,1,5.34,18.44v-9.9A2.859,2.859,0,0,1,8.2,5.65h2.211a2.867,2.867,0,0,1,2.867,2.893v9.932A2.867,2.867,0,0,1,10.409,21.307ZM8.2,7.809a.7.7,0,0,0-.7.734v9.932a.708.708,0,0,0,.7.708h2.211a.708.708,0,0,0,.708-.708V8.543a.708.708,0,0,0-.708-.7Z" transform="translate(-0.693 -0.499)" fill="#29c1e1"/>
    <path id="Path_26194" data-name="Path 26194" d="M11.418,29.238a2.781,2.781,0,0,1-2.7-1.727L5.848,20.317a1.079,1.079,0,0,1,2-.8l2.876,7.22c.112.3.622.458,1.149.268l.242-.086c.527-.2.812-.648.708-.915l-1.969-5.38a1.081,1.081,0,1,1,2.03-.743l1.969,5.38a2.971,2.971,0,0,1-1.978,3.679l-.242.086A3.454,3.454,0,0,1,11.418,29.238ZM25.5,19.169a1.08,1.08,0,0,1,0-2.159,3.135,3.135,0,1,0,0-6.261,1.08,1.08,0,1,1,0-2.159,5.294,5.294,0,1,1,0,10.579Z" transform="translate(-0.751 -0.899)" fill="#29c1e1"/>
  </g>
</svg>
