<svg xmlns="http://www.w3.org/2000/svg" xmlns:xlink="http://www.w3.org/1999/xlink" width="151.375" height="44.5" viewBox="0 0 151.375 44.5">
  <defs>
    <linearGradient id="linear-gradient" y1="0.5" x2="1" y2="0.5" gradientUnits="objectBoundingBox">
      <stop offset="0" stop-color="#29c1e1"/>
      <stop offset="1" stop-color="#1ae2a0"/>
    </linearGradient>
  </defs>
  <g id="Group_14954" data-name="Group 14954" transform="translate(589.504 -927.733)">
    <g id="Group_14955" data-name="Group 14955" transform="translate(-589.504 927.733)">
      <g id="Group_14954-2" data-name="Group 14954">
        <path id="Path_26212" data-name="Path 26212" d="M-551.009,972.233h-25.664l-12.831-22.25,12.831-22.25h25.664l12.831,22.25Zm-23.96-2.949h22.257l11.13-19.3-11.13-19.3h-22.257l-11.13,19.3Z" transform="translate(589.504 -927.733)" fill="#fff"/>
      </g>
      <path id="Path_26213" data-name="Path 26213" d="M-532.382,977.966l6.073-10.632H-547.8l-10.743,18.607h7.085l7.2-12.471h7.436l-13.32,23.1h20.171l10.743-18.607Zm-1.128,12.471h-6.063l3.653-6.335h6.068Z" transform="translate(565.097 -958.946)" fill="url(#linear-gradient)"/>
    </g>
    <path id="Path_26214" data-name="Path 26214" d="M-304.457,985.949h-4.967v19.806h-2.78V985.949h-4.936v-2.062h12.683Z" transform="translate(-214.675 -44.26)" fill="#edecec"/>
    <path id="Path_26215" data-name="Path 26215" d="M-240.151,990.883a1.68,1.68,0,0,1,1.687-1.687,1.68,1.68,0,0,1,1.687,1.687,1.68,1.68,0,0,1-1.687,1.687A1.68,1.68,0,0,1-240.151,990.883Zm.406,3.311h2.561v15.745h-2.561Z" transform="translate(-275.357 -48.444)" fill="#edecec"/>
    <path id="Path_26216" data-name="Path 26216" d="M-187.02,983.887v21.868h-2.249l-.25-1.531a4.466,4.466,0,0,1-3.593,1.687c-2.874,0-5.155-.75-5.155-4.655v-6.81c0-3.9,2.281-4.624,4.967-4.624a4.81,4.81,0,0,1,3.717,1.374v-7.31Zm-2.562,17.432V994.54c0-1.5-.968-2.749-3.061-2.749s-3.061.781-3.061,2.655v6.81c0,1.874.968,2.655,3.061,2.655S-189.581,1002.881-189.581,1001.319Z" transform="translate(-308.37 -44.26)" fill="#edecec"/>
    <path id="Path_26217" data-name="Path 26217" d="M-115.326,1020.751v2.562c0,1.875,1,2.656,3.093,2.656s3.03-.594,3.03-2.156v-.687h2.562v.687c0,3.593-2.249,4.124-5.592,4.124s-5.654-.719-5.654-4.624v-6.779c0-3.9,2.249-4.624,5.592-4.624s5.654.719,5.654,4.624v4.217Zm0-4.217v2.249h6.123v-2.249c0-1.874-1-2.655-3.093-2.655S-115.326,1014.659-115.326,1016.534Z" transform="translate(-371.723 -66.347)" fill="#edecec"/>
    <path id="Path_26218" data-name="Path 26218" d="M-23.444,998.757v2.593c0,3.749-2.437,4.4-5.4,4.4h-7.185V983.887h6.873c2.968,0,5.4.656,5.4,4.4v2.124c0,2.624-.906,3.686-2.406,4.124C-24.475,994.915-23.444,995.977-23.444,998.757Zm-5.717-12.809h-4.092v7.56h4.092c1.718,0,2.624-.781,2.624-2.343v-2.874C-26.537,986.73-27.443,985.949-29.161,985.949Zm2.937,11.871c0-1.562-.906-2.343-2.624-2.343h-4.405v8.216h4.405c1.718,0,2.624-.781,2.624-2.343Z" transform="translate(-436.24 -44.26)" fill="url(#linear-gradient)"/>
    <path id="Path_26219" data-name="Path 26219" d="M50.1,990.883a1.687,1.687,0,1,1,1.687,1.687A1.68,1.68,0,0,1,50.1,990.883Zm.406,3.311h2.562v15.745H50.505Z" transform="translate(-504.129 -48.444)" fill="url(#linear-gradient)"/>
    <path id="Path_26220" data-name="Path 26220" d="M95.525,996.628H92.838V1010.4H90.277V996.628H87.559V994.66h2.718v-4.874h2.561v4.874h2.687Z" transform="translate(-533.655 -48.91)" fill="url(#linear-gradient)"/>
  </g>
</svg>
