<svg xmlns="http://www.w3.org/2000/svg" width="23.229" height="27" viewBox="0 0 23.229 27">
  <g id="notifications-outline" transform="translate(-4.585 -2.375)">
    <path id="Path_25746" data-name="Path 25746" d="M26.517,21.61c-1.543-1.889-2.632-2.85-2.632-8.058,0-4.768-2.435-6.468-4.439-7.292a1.073,1.073,0,0,1-.6-.634A2.912,2.912,0,0,0,16.2,3.375a2.907,2.907,0,0,0-2.644,2.252,1.06,1.06,0,0,1-.6.632c-2.007.826-4.439,2.52-4.439,7.292,0,5.208-1.092,6.169-2.635,8.058a1.212,1.212,0,0,0,1.038,1.957H25.484A1.213,1.213,0,0,0,26.517,21.61Z" transform="translate(0 0)" fill="none" stroke="#edecec" stroke-linecap="round" stroke-linejoin="round" stroke-width="2"/>
    <path id="Path_25747" data-name="Path 25747" d="M21.192,27v.962a3.846,3.846,0,0,1-7.692,0V27" transform="translate(-1.146 -3.433)" fill="none" stroke="#edecec" stroke-linecap="round" stroke-linejoin="round" stroke-width="2"/>
  </g>
</svg>
