<svg xmlns="http://www.w3.org/2000/svg" xmlns:xlink="http://www.w3.org/1999/xlink" width="44" height="31.089" viewBox="0 0 44 31.089">
  <defs>
    <linearGradient id="linear-gradient" x1="0.776" y1="1.186" x2="0.129" y2="-0.111" gradientUnits="objectBoundingBox">
      <stop offset="0" stop-color="#11c4d1"/>
      <stop offset="1" stop-color="#0062ad"/>
    </linearGradient>
  </defs>
  <path id="Path_25918" data-name="Path 25918" d="M43.886,1.217C45.336,20.873,32.7,30.163,21.379,31.155,10.849,32.075.938,25.6.068,15.662-.65,7.449,4.426,3.953,8.415,3.6c4.1-.36,7.547,2.47,7.848,5.895.288,3.292-1.768,4.792-3.2,4.916a2.4,2.4,0,0,1-2.68-2.059c-.11-1.267.371-1.438.254-2.783C10.431,7.179,8.343,6.9,7.2,7c-1.382.121-3.892,1.735-3.541,5.756C4.014,16.811,7.9,20.017,13,19.57c5.5-.481,9.331-4.765,9.619-10.773a2.149,2.149,0,0,1,.2-.922l0-.007a2.572,2.572,0,0,1,.207-.362,4.805,4.805,0,0,1,.463-.583l.005-.005c.14-.16.311-.333.5-.518C26.4,4.133,35.055-1.214,43.239.478a.83.83,0,0,1,.446.263.81.81,0,0,1,.2.477" transform="translate(0 -0.152)" fill="url(#linear-gradient)"/>
</svg>
