<svg xmlns="http://www.w3.org/2000/svg" xmlns:xlink="http://www.w3.org/1999/xlink" width="99.264" height="34.032" viewBox="0 0 99.264 34.032">
  <defs>
    <linearGradient id="linear-gradient" x1="0.567" y1="1" x2="0.568" gradientUnits="objectBoundingBox">
      <stop offset="0" stop-color="#29c1e1"/>
      <stop offset="1" stop-color="#1ae2a0"/>
    </linearGradient>
  </defs>
  <path id="Path_25939" data-name="Path 25939" d="M-30.336-33.12a.424.424,0,0,1,.48-.48h3.648a.424.424,0,0,1,.48.48V-.48a.424.424,0,0,1-.48.48h-3.648a.424.424,0,0,1-.48-.48V-14.736a.17.17,0,0,0-.192-.192h-13.68a.17.17,0,0,0-.192.192V-.48a.424.424,0,0,1-.48.48h-3.648a.424.424,0,0,1-.48-.48V-33.12a.424.424,0,0,1,.48-.48h3.648a.424.424,0,0,1,.48.48V-19.1a.17.17,0,0,0,.192.192h13.68a.17.17,0,0,0,.192-.192ZM1.152-15.264A38.124,38.124,0,0,1,1.3-10.848a.424.424,0,0,1-.48.48H-14.5a.17.17,0,0,0-.192.192,8.308,8.308,0,0,0,.288,2.5,5.131,5.131,0,0,0,2.136,3A7.123,7.123,0,0,0-8.208-3.6,6.165,6.165,0,0,0-2.736-6.528q.24-.48.624-.144L.624-4.848a.455.455,0,0,1,.144.624A9.317,9.317,0,0,1-3.048-.816,12.235,12.235,0,0,1-8.64.432a10.735,10.735,0,0,1-5.9-1.536,9.368,9.368,0,0,1-3.6-4.368A18.223,18.223,0,0,1-19.3-12.336a20.356,20.356,0,0,1,.528-5.328A9.173,9.173,0,0,1-15.312-22.9a10.268,10.268,0,0,1,6.288-1.92q4.848,0,7.248,2.424A11.665,11.665,0,0,1,1.152-15.264ZM-9.024-20.832A5.434,5.434,0,0,0-12.432-19.8a5.091,5.091,0,0,0-1.824,2.76,11.221,11.221,0,0,0-.432,2.688.17.17,0,0,0,.192.192H-3.5a.17.17,0,0,0,.192-.192A14.053,14.053,0,0,0-3.6-16.7a5.445,5.445,0,0,0-1.9-3A5.484,5.484,0,0,0-9.024-20.832ZM7.584,0A.424.424,0,0,1,7.1-.48V-33.12a.424.424,0,0,1,.48-.48h3.648a.424.424,0,0,1,.48.48V-.48a.424.424,0,0,1-.48.48Zm11.28,0a.424.424,0,0,1-.48-.48V-33.12a.424.424,0,0,1,.48-.48h3.648a.424.424,0,0,1,.48.48V-.48a.424.424,0,0,1-.48.48ZM39.648.384a10.724,10.724,0,0,1-6.192-1.8,9.439,9.439,0,0,1-3.7-5.016,18.468,18.468,0,0,1-.864-5.856,17.707,17.707,0,0,1,.816-5.76,9.444,9.444,0,0,1,3.7-4.968,10.89,10.89,0,0,1,6.288-1.8,10.228,10.228,0,0,1,6.024,1.8,9.845,9.845,0,0,1,3.672,4.92,17.319,17.319,0,0,1,.864,5.76,18.358,18.358,0,0,1-.864,5.9,9.525,9.525,0,0,1-3.648,5.016A10.419,10.419,0,0,1,39.648.384Zm0-3.984a5.445,5.445,0,0,0,3.36-1.08,5.912,5.912,0,0,0,2.064-3.048A16.466,16.466,0,0,0,45.6-12.24a17.45,17.45,0,0,0-.48-4.464,5.912,5.912,0,0,0-2.064-3.048,5.673,5.673,0,0,0-3.5-1.08,5.52,5.52,0,0,0-3.408,1.08A5.912,5.912,0,0,0,34.08-16.7a15.327,15.327,0,0,0-.528,4.464,15.839,15.839,0,0,0,.528,4.512A5.608,5.608,0,0,0,36.12-4.68,5.778,5.778,0,0,0,39.648-3.6Z" transform="translate(49.008 33.6)" fill="url(#linear-gradient)"/>
</svg>
