<svg xmlns="http://www.w3.org/2000/svg" width="45" height="50.347" viewBox="0 0 45 50.347">
  <path id="Path_25917" data-name="Path 25917" d="M46.135,16.661v2.53a1.379,1.379,0,0,1-.188.7,1.4,1.4,0,0,1-.515.509l-8.241,4.7,7.361,4.189a3.15,3.15,0,0,1,1.157,1.147A3.084,3.084,0,0,1,46.132,32v6.741a3.1,3.1,0,0,1-.422,1.566,3.164,3.164,0,0,1-1.159,1.147L25.19,52.442a3.188,3.188,0,0,1-3.164,0L15.7,48.824a.707.707,0,0,1-.257-.255.686.686,0,0,1-.095-.347.7.7,0,0,1,.095-.349.7.7,0,0,1,.257-.254L36.614,35.712a.348.348,0,0,0,.131-.128.344.344,0,0,0,0-.349.359.359,0,0,0-.131-.128l-7.765-4.436a1.418,1.418,0,0,0-1.406,0L6.186,42.776a1.068,1.068,0,0,1-1.054,0L2.727,41.412a3.148,3.148,0,0,1-1.166-1.146A3.108,3.108,0,0,1,1.135,38.7v-2.76a1.048,1.048,0,0,1,.141-.522,1.069,1.069,0,0,1,.386-.382l30.468-17.31a.345.345,0,0,0,.129-.128.344.344,0,0,0,0-.349.355.355,0,0,0-.129-.128l-7.778-4.451a1.418,1.418,0,0,0-1.406,0L2.2,24.474a.7.7,0,0,1-.7,0,.685.685,0,0,1-.258-.254.694.694,0,0,1-.093-.349V16.63a3.113,3.113,0,0,1,.426-1.569,3.154,3.154,0,0,1,1.165-1.146L22.091,2.931a3.2,3.2,0,0,1,3.155,0L44.56,13.948A3.157,3.157,0,0,1,45.715,15.1,3.1,3.1,0,0,1,46.135,16.661Z" transform="translate(-1.135 -2.515)" fill="#7524f9" fillRule="evenodd"/>
</svg>
