<svg xmlns="http://www.w3.org/2000/svg" width="22.222" height="20" viewBox="0 0 22.222 20">
  <g id="bx-receipt" transform="translate(-3 -4.5)">
    <path id="Path_1786" data-name="Path 1786" d="M24.111,13.389H20.778V5.611A1.111,1.111,0,0,0,19.667,4.5H4.111A1.111,1.111,0,0,0,3,5.611V21.167A3.337,3.337,0,0,0,6.333,24.5H21.889a3.337,3.337,0,0,0,3.333-3.333V14.5A1.111,1.111,0,0,0,24.111,13.389ZM6.333,22.278a1.111,1.111,0,0,1-1.111-1.111V6.722H18.556V21.167a3.321,3.321,0,0,0,.19,1.111ZM23,21.167a1.111,1.111,0,0,1-2.222,0V15.611H23Z" transform="translate(0)" fill="#f2f2f2"/>
    <path id="Path_1787" data-name="Path 1787" d="M9,10.5H21v1.2H9Zm0,2.4H21v1.2H9Zm7.5,2.4H21v1.2H16.5Z" transform="translate(-3.333 1)" fill="#f2f2f2"/>
  </g>
</svg>
