<svg xmlns="http://www.w3.org/2000/svg" width="65" height="25" viewBox="0 0 65 25">
  <g id="Testnet_icon" data-name="Testnet icon" transform="translate(-209 -403)">
    <rect id="Rectangle_1565" data-name="Rectangle 1565" width="65" height="25" rx="3" transform="translate(209 403)" fill="#29c1e1"/>
    <g id="Group_15863" data-name="Group 15863" transform="translate(211 404.785)">
      <path id="Path_28590" data-name="Path 28590" d="M15.814,10.911a.62.62,0,0,0,1.077-.615l-.942-1.686V3.231h.308a.615.615,0,1,0,0-1.231h-.615a.615.615,0,0,0-.154.031.581.581,0,0,0-.769.585V8.769a.615.615,0,0,0,.074.3Zm4.443,5.5L16.9,10.291a.62.62,0,1,0-1.077.615l1.909,3.481s.582,1.128.609,1.114l.862,1.557.037.062a.449.449,0,0,1,.043.5.843.843,0,0,1-.769.406L9.283,18a.615.615,0,0,0,0,1.231l9.226.026a2.055,2.055,0,0,0,1.846-1.071A1.68,1.68,0,0,0,20.257,16.412Z" transform="translate(-1.796)" fill="#fff"/>
      <path id="Path_28591" data-name="Path 28591" d="M7.692,18H6.055a.843.843,0,0,1-.769-.406.449.449,0,0,1,.043-.5l.037-.062,4.4-8a.615.615,0,0,0,.08-.265V6.308a.615.615,0,0,0-1.231,0v2.3l-4.308,7.8a1.68,1.68,0,0,0-.117,1.748A2.055,2.055,0,0,0,6.037,19.23H7.692a.615.615,0,1,0,0-1.231ZM8.307,3.231h.308V4.461a.615.615,0,1,0,1.231,0V2.615a.581.581,0,0,0-.769-.585A.615.615,0,0,0,8.923,2H8.307a.615.615,0,1,0,0,1.231Z" fill="#fff"/>
      <path id="Path_28592" data-name="Path 28592" d="M8.467,19.78a3.735,3.735,0,0,1,2.518-.866c1.639,0,1.844,1.149,3.75,1.187a3.078,3.078,0,0,0,2.68-1.187" transform="translate(-1.718 -6.506)" fill="none" stroke="#fff" stroke-width="1"/>
      <g id="Ellipse_496" data-name="Ellipse 496" transform="translate(9 15.215)" fill="none" stroke="#fff" stroke-width="1">
        <circle cx="0.5" cy="0.5" r="0.5" stroke="none"/>
        <circle cx="0.5" cy="0.5" r="1" fill="none"/>
      </g>
      <circle id="Ellipse_497" data-name="Ellipse 497" cx="1" cy="1" r="1" transform="translate(11 10.215)" fill="#fff"/>
    </g>
    <text id="Testnet" transform="translate(268 419)" fill="#fff" font-size="10" font-family="Barlow-BoldItalic, Barlow" font-weight="700" font-style="italic"><tspan x="-32" y="0">Testnet</tspan></text>
  </g>
</svg>
