<svg xmlns="http://www.w3.org/2000/svg" xmlns:xlink="http://www.w3.org/1999/xlink" width="50" height="50" viewBox="0 0 50 50">
  <defs>
    <linearGradient id="linear-gradient" x1="1.044" y1="0.248" x2="0.5" y2="1" gradientUnits="objectBoundingBox">
      <stop offset="0" stop-color="#eea27b"/>
      <stop offset="0.063" stop-color="#eea27d"/>
      <stop offset="0.125" stop-color="#773e31"/>
      <stop offset="0.143" stop-color="#7e4435"/>
      <stop offset="0.169" stop-color="#925441"/>
      <stop offset="0.199" stop-color="#b37056"/>
      <stop offset="0.234" stop-color="#e09672"/>
      <stop offset="0.244" stop-color="#eea27b"/>
      <stop offset="0.357" stop-color="#eea581"/>
      <stop offset="0.663" stop-color="#eea27b"/>
      <stop offset="0.701" stop-color="#e19773"/>
      <stop offset="0.771" stop-color="#c07b5e"/>
      <stop offset="0.865" stop-color="#8b4f3d"/>
      <stop offset="0.898" stop-color="#773e31"/>
      <stop offset="0.912" stop-color="#7e4435"/>
      <stop offset="0.934" stop-color="#925542"/>
      <stop offset="0.959" stop-color="#b37157"/>
      <stop offset="0.982" stop-color="#d7906e"/>
      <stop offset="1" stop-color="#d7906e"/>
    </linearGradient>
    <linearGradient id="linear-gradient-2" x1="0.5" y1="0" xlink:href="#linear-gradient"/>
  </defs>
  <g id="Group_15290" data-name="Group 15290" transform="translate(21525 -4927)">
    <path id="Polygon_19" data-name="Polygon 19" d="M16.71,3.588a2,2,0,0,1,3.579,0l3.479,6.974a2,2,0,0,0,1.5,1.086l7.726,1.133a2,2,0,0,1,1.1,3.412l-5.567,5.42a2,2,0,0,0-.576,1.769l1.3,7.651a2,2,0,0,1-2.895,2.11l-6.941-3.611a2,2,0,0,0-1.846,0l-6.941,3.611a2,2,0,0,1-2.895-2.11l1.3-7.651a2,2,0,0,0-.576-1.769L2.9,16.193a2,2,0,0,1,1.1-3.412l7.726-1.133a2,2,0,0,0,1.5-1.086Z" transform="translate(-21518.5 4934)" fill="url(#linear-gradient)"/>
    <path id="Path_27283" data-name="Path 27283" d="M25,3.175a21.832,21.832,0,0,0-8.494,41.937A21.832,21.832,0,0,0,33.494,4.888,21.686,21.686,0,0,0,25,3.175M25,0A25,25,0,1,1,0,25,25,25,0,0,1,25,0Z" transform="translate(-21525 4927)" fill="url(#linear-gradient-2)"/>
  </g>
</svg>
