<svg xmlns="http://www.w3.org/2000/svg" xmlns:xlink="http://www.w3.org/1999/xlink" width="50" height="50" viewBox="0 0 50 50">
  <defs>
    <linearGradient id="linear-gradient" x1="1.044" y1="0.248" x2="0.5" y2="1" gradientUnits="objectBoundingBox">
      <stop offset="0" stop-color="#ffc76b"/>
      <stop offset="0.063" stop-color="#ffcf80"/>
      <stop offset="0.125" stop-color="#8c4f1f"/>
      <stop offset="0.143" stop-color="#925623"/>
      <stop offset="0.168" stop-color="#a66a30"/>
      <stop offset="0.199" stop-color="#c58a44"/>
      <stop offset="0.233" stop-color="#f0b761"/>
      <stop offset="0.244" stop-color="#ffc76b"/>
      <stop offset="0.357" stop-color="#ffe8c1"/>
      <stop offset="0.663" stop-color="#ffc76b"/>
      <stop offset="0.704" stop-color="#f3ba63"/>
      <stop offset="0.778" stop-color="#d3994e"/>
      <stop offset="0.877" stop-color="#a0642c"/>
      <stop offset="0.913" stop-color="#8c4f1f"/>
      <stop offset="0.928" stop-color="#8e5221"/>
      <stop offset="0.941" stop-color="#985d29"/>
      <stop offset="0.954" stop-color="#a76f36"/>
      <stop offset="0.966" stop-color="#bd8848"/>
      <stop offset="0.977" stop-color="#d8a860"/>
      <stop offset="1" stop-color="#e6b86c"/>
    </linearGradient>
    <linearGradient id="linear-gradient-2" x1="0.5" y1="0" xlink:href="#linear-gradient"/>
  </defs>
  <g id="Group_15288" data-name="Group 15288" transform="translate(21525 -4927)">
    <path id="Polygon_19" data-name="Polygon 19" d="M16.71,3.588a2,2,0,0,1,3.579,0l3.479,6.974a2,2,0,0,0,1.5,1.086l7.726,1.133a2,2,0,0,1,1.1,3.412l-5.567,5.42a2,2,0,0,0-.576,1.769l1.3,7.651a2,2,0,0,1-2.895,2.11l-6.941-3.611a2,2,0,0,0-1.846,0l-6.941,3.611a2,2,0,0,1-2.895-2.11l1.3-7.651a2,2,0,0,0-.576-1.769L2.9,16.193a2,2,0,0,1,1.1-3.412l7.726-1.133a2,2,0,0,0,1.5-1.086Z" transform="translate(-21518.5 4934)" fill="url(#linear-gradient)"/>
    <path id="Path_27283" data-name="Path 27283" d="M25,3.175a21.832,21.832,0,0,0-8.494,41.937A21.832,21.832,0,0,0,33.494,4.888,21.686,21.686,0,0,0,25,3.175M25,0A25,25,0,1,1,0,25,25,25,0,0,1,25,0Z" transform="translate(-21525 4927)" fill="url(#linear-gradient-2)"/>
  </g>
</svg>
