<?xml version="1.0" standalone="no"?>
<!DOCTYPE svg PUBLIC "-//W3C//DTD SVG 20010904//EN"
 "http://www.w3.org/TR/2001/REC-SVG-20010904/DTD/svg10.dtd">
<svg version="1.0" xmlns="http://www.w3.org/2000/svg"
 width="1024.000000pt" height="1024.000000pt" viewBox="0 0 1024.000000 1024.000000"
 preserveAspectRatio="xMidYMid meet">
<metadata>
Created by potrace 1.14, written by Peter Selinger 2001-2017
</metadata>
<g transform="translate(0.000000,1024.000000) scale(0.100000,-0.100000)"
fill="#000000" stroke="none">
<path d="M2552 9548 c-7 -7 -12 -18 -12 -25 0 -7 -4 -13 -10 -13 -5 0 -10 -7
-10 -15 0 -9 -5 -21 -10 -28 -17 -19 -170 -288 -170 -298 0 -5 -4 -9 -9 -9 -5
0 -13 -10 -17 -22 -3 -13 -15 -34 -24 -48 -10 -14 -31 -50 -48 -80 -16 -30
-62 -110 -101 -177 -39 -67 -71 -126 -71 -132 0 -6 -3 -11 -8 -11 -4 0 -18
-21 -32 -47 -14 -27 -41 -75 -61 -108 -20 -33 -39 -70 -43 -82 -4 -13 -11 -23
-15 -23 -4 0 -18 -22 -31 -50 -13 -27 -27 -50 -31 -50 -4 0 -11 -10 -15 -22
-3 -13 -26 -56 -50 -95 -24 -40 -44 -77 -44 -83 0 -5 -4 -10 -8 -10 -4 0 -13
-12 -20 -27 -7 -16 -23 -46 -36 -68 -13 -22 -74 -128 -136 -235 -62 -107 -121
-210 -131 -227 -11 -18 -29 -50 -40 -70 -12 -21 -30 -51 -40 -68 -10 -16 -23
-39 -29 -50 -5 -11 -23 -42 -40 -70 -17 -27 -33 -58 -37 -67 -3 -10 -10 -18
-16 -18 -6 0 -8 -3 -4 -6 3 -4 -6 -25 -21 -48 -15 -22 -41 -66 -57 -96 -16
-30 -35 -61 -42 -68 -7 -7 -13 -17 -13 -22 0 -12 -73 -134 -82 -138 -5 -2 -8
-12 -8 -23 0 -10 -4 -19 -9 -19 -5 0 -14 -12 -20 -27 -6 -16 -20 -41 -30 -58
-11 -16 -29 -47 -40 -67 -35 -65 -46 -83 -51 -88 -3 -3 -13 -21 -24 -40 -10
-19 -28 -51 -39 -70 -11 -19 -29 -52 -41 -72 -12 -21 -53 -93 -93 -160 -39
-68 -80 -139 -91 -158 -10 -19 -51 -90 -91 -157 -39 -68 -71 -127 -71 -133 0
-5 -4 -10 -10 -10 -5 0 -10 -4 -10 -8 0 -8 -45 -87 -193 -342 -11 -19 -27 -48
-35 -65 -9 -16 -19 -32 -22 -35 -4 -3 -20 -30 -35 -60 -15 -30 -30 -57 -34
-60 -3 -3 -14 -19 -23 -36 -19 -34 -20 -32 45 -144 18 -30 37 -63 42 -72 6
-10 55 -96 109 -190 55 -95 104 -182 110 -193 6 -11 13 -22 16 -25 5 -5 26
-41 57 -100 10 -19 20 -37 23 -40 3 -3 11 -16 18 -29 8 -13 22 -38 31 -55 10
-17 60 -103 111 -191 107 -184 115 -199 160 -280 19 -33 36 -62 39 -65 6 -5
48 -81 65 -117 6 -13 14 -23 19 -23 4 0 7 -6 7 -13 0 -7 16 -37 36 -67 20 -30
36 -57 36 -60 0 -3 15 -31 34 -63 19 -32 34 -62 34 -68 0 -5 5 -9 10 -9 6 0
10 -4 10 -9 0 -7 30 -62 65 -119 6 -9 23 -39 38 -67 15 -27 41 -72 58 -100 16
-27 33 -58 36 -67 3 -10 9 -18 14 -18 5 0 9 -5 9 -10 0 -6 17 -38 37 -73 21
-34 45 -76 53 -92 8 -17 18 -32 21 -35 3 -3 19 -30 35 -60 24 -44 219 -383
314 -545 85 -147 120 -207 120 -210 0 -3 105 -181 120 -205 6 -8 17 -28 25
-45 9 -16 24 -43 34 -60 52 -86 72 -122 78 -137 3 -10 9 -18 14 -18 5 0 9 -4
9 -10 0 -5 75 -139 166 -297 92 -159 180 -313 197 -343 16 -30 34 -61 40 -68
5 -7 17 -27 27 -45 l17 -32 2563 0 2562 0 89 153 c49 84 89 157 89 163 0 5 3
9 8 9 4 0 16 18 26 40 11 22 23 40 28 40 4 0 7 3 6 8 -2 6 28 66 52 102 8 13
63 108 132 230 56 99 73 125 80 128 4 2 8 12 8 23 0 10 4 19 9 19 5 0 11 8 15
18 3 9 14 31 24 47 10 17 33 57 52 90 19 33 43 74 53 90 9 17 25 46 35 65 9
19 23 41 31 49 7 8 18 27 23 43 6 15 14 28 19 28 5 0 9 4 9 9 0 8 72 138 150
271 5 8 27 46 50 84 22 37 40 69 40 70 0 2 39 70 86 152 48 82 97 167 109 189
13 22 46 81 75 130 50 86 90 157 114 200 6 11 13 22 16 25 3 3 12 19 21 35 9
17 49 86 89 155 40 69 84 145 98 170 14 25 34 59 44 75 10 17 22 39 28 50 5
11 22 41 37 67 15 26 57 98 92 160 36 62 67 115 70 118 4 3 13 19 21 35 8 17
21 36 28 43 6 7 12 18 12 23 0 5 20 43 45 83 25 41 45 79 45 85 0 6 5 11 10
11 6 0 10 5 10 11 0 5 29 60 65 120 36 60 65 113 65 117 0 4 6 14 13 20 13 14
70 111 89 155 7 15 16 27 20 27 4 0 8 9 8 20 0 11 4 20 9 20 5 0 13 10 17 23
4 12 10 24 13 27 7 5 115 190 157 269 l24 44 -74 126 c-40 69 -83 143 -95 163
-11 21 -30 54 -41 73 -11 19 -29 51 -40 70 -50 87 -59 103 -89 153 -17 29 -31
57 -31 62 0 6 -4 10 -10 10 -5 0 -10 5 -10 10 0 6 -18 40 -40 76 -22 36 -40
70 -40 74 0 4 -7 13 -15 20 -9 7 -13 15 -10 18 3 3 -1 12 -8 21 -8 9 -35 54
-62 101 -26 47 -73 128 -104 180 -30 52 -55 98 -53 103 1 4 -2 7 -7 7 -5 0
-14 14 -20 30 -5 17 -15 30 -20 30 -6 0 -11 7 -11 16 0 9 -8 28 -19 42 -10 15
-29 47 -43 72 -47 85 -70 125 -138 240 -37 63 -93 160 -124 215 -31 55 -61
107 -66 115 -33 54 -90 153 -90 155 0 2 -21 39 -47 82 -25 43 -56 96 -68 118
-11 22 -33 59 -48 82 -15 24 -27 45 -27 48 0 2 -18 34 -40 70 -22 36 -40 70
-40 75 0 6 -4 10 -10 10 -5 0 -10 5 -10 11 0 6 -17 39 -37 73 -21 33 -38 63
-38 66 0 3 -8 16 -17 30 -15 24 -100 170 -156 270 -14 25 -32 57 -41 72 -9 15
-45 78 -80 140 -36 62 -80 137 -98 166 -18 29 -34 58 -36 65 -1 7 -5 14 -8 17
-4 3 -30 48 -60 100 -29 52 -57 97 -61 98 -5 2 -8 7 -8 12 0 8 -134 248 -168
300 -9 14 -15 28 -14 33 1 4 -3 7 -8 7 -6 0 -10 4 -10 9 0 5 -36 70 -80 145
-44 76 -80 141 -80 146 0 16 -5123 13 -5138 -2z m4789 -585 c14 -14 249 -424
249 -433 0 -6 5 -10 10 -10 6 0 10 -4 10 -9 0 -6 32 -64 70 -130 39 -66 70
-124 70 -130 0 -6 5 -11 10 -11 6 0 10 -7 10 -15 0 -8 5 -15 10 -15 6 0 10 -4
10 -9 0 -5 23 -48 50 -96 28 -48 50 -88 50 -90 0 -2 23 -40 50 -85 28 -45 50
-83 50 -85 0 -2 27 -49 60 -105 33 -56 60 -104 60 -106 0 -3 16 -30 35 -60 19
-30 35 -57 35 -60 0 -3 16 -30 35 -60 19 -30 35 -56 35 -59 0 -5 44 -82 144
-250 39 -66 71 -123 71 -127 0 -4 6 -13 13 -20 6 -6 12 -18 12 -25 0 -7 5 -13
10 -13 6 0 10 -5 10 -11 0 -12 76 -145 98 -171 8 -10 11 -18 7 -18 -4 0 -1 -8
7 -17 9 -10 27 -38 40 -63 37 -66 68 -121 89 -155 11 -16 22 -37 26 -45 4 -8
27 -49 51 -90 55 -91 76 -129 115 -200 16 -30 38 -67 48 -82 11 -14 19 -28 19
-31 0 -3 29 -54 65 -115 36 -60 65 -114 65 -120 0 -6 3 -12 8 -14 10 -4 102
-165 102 -178 0 -5 4 -10 8 -10 5 0 14 -16 22 -35 8 -19 17 -35 21 -35 4 0 9
-8 12 -17 4 -10 18 -38 33 -63 14 -25 69 -119 121 -208 l95 -164 -31 -50 c-17
-27 -31 -53 -31 -58 0 -5 -3 -10 -8 -12 -4 -1 -17 -21 -28 -43 -12 -22 -70
-123 -128 -224 -58 -101 -106 -185 -106 -187 0 -1 -21 -38 -48 -81 -26 -43
-53 -89 -60 -103 -7 -14 -23 -43 -37 -65 -13 -22 -30 -51 -37 -65 -7 -14 -15
-27 -18 -30 -5 -5 -12 -16 -58 -99 -14 -25 -34 -59 -44 -76 -10 -16 -21 -37
-25 -45 -4 -8 -24 -43 -45 -78 -21 -34 -38 -67 -38 -72 0 -6 -4 -10 -10 -10
-5 0 -10 -5 -10 -11 0 -6 -17 -39 -37 -73 -42 -68 -65 -109 -84 -146 -7 -14
-27 -47 -44 -75 -17 -27 -39 -67 -50 -87 -11 -21 -23 -38 -27 -38 -5 0 -7 -4
-6 -8 2 -5 -16 -41 -39 -80 -24 -39 -43 -76 -43 -82 0 -5 -4 -10 -9 -10 -5 0
-11 -8 -15 -17 -9 -29 -66 -127 -77 -134 -6 -3 -9 -8 -8 -10 5 -6 -63 -123
-73 -127 -4 -2 -8 -11 -8 -21 0 -9 -9 -27 -20 -39 -11 -12 -20 -25 -20 -30 0
-4 -13 -28 -28 -53 -16 -24 -42 -69 -59 -99 -50 -91 -184 -323 -201 -350 -9
-14 -15 -28 -14 -32 1 -5 -2 -8 -8 -8 -5 0 -10 -4 -10 -9 0 -7 -90 -168 -140
-251 -9 -14 -35 -59 -93 -162 -15 -26 -66 -113 -113 -195 -48 -81 -96 -164
-107 -183 -29 -51 -90 -158 -103 -182 -7 -11 -16 -24 -22 -30 -6 -6 -782 -9
-2223 -9 l-2213 0 -16 21 c-9 12 -27 43 -41 68 -13 26 -27 48 -31 50 -5 2 -8
8 -8 14 0 6 -14 30 -30 55 -17 24 -30 46 -30 49 0 3 -26 49 -58 102 -31 53
-63 108 -69 122 -7 14 -24 43 -38 65 -14 22 -28 47 -32 55 -4 8 -24 43 -45 78
-21 34 -38 67 -38 72 0 6 -4 10 -10 10 -5 0 -10 5 -10 11 0 6 -16 38 -36 70
-19 32 -35 62 -35 66 0 4 -6 15 -13 23 -12 13 -71 114 -163 280 -14 25 -29 50
-33 55 -4 6 -18 30 -32 55 -62 113 -123 216 -133 222 -5 4 -6 8 -1 8 5 0 4 6
-2 12 -9 12 -108 178 -166 281 -13 23 -56 98 -95 165 -39 68 -71 128 -71 133
0 5 -4 9 -9 9 -5 0 -11 8 -14 18 -4 9 -18 37 -33 62 -66 113 -161 276 -167
290 -4 8 -16 29 -27 45 -11 17 -23 37 -27 45 -4 8 -51 91 -105 183 -54 93 -98
170 -98 173 0 2 -11 21 -24 42 -13 20 -59 100 -104 177 -44 77 -90 156 -101
175 -11 19 -24 42 -28 50 -3 8 -9 17 -12 20 -3 3 -14 21 -24 40 -10 19 -29 53
-42 75 -14 22 -28 47 -32 55 -4 8 -34 60 -66 115 -79 133 -79 133 -52 180 72
127 155 268 165 280 7 8 10 15 6 15 -3 0 9 24 28 53 18 28 44 72 58 97 83 148
112 196 122 202 6 4 8 8 3 8 -4 0 15 36 43 80 27 44 49 81 48 83 -1 1 5 13 14
27 39 62 88 152 88 161 0 5 3 9 8 9 4 0 18 23 31 50 14 28 29 50 33 50 4 0 7
3 6 8 -3 12 24 62 34 62 4 0 8 9 8 19 0 11 3 21 8 23 4 2 52 82 107 178 55 96
102 177 105 180 3 3 15 23 27 45 22 42 24 46 111 195 28 50 52 95 52 100 0 6
5 10 10 10 6 0 10 4 10 9 0 5 20 44 45 85 25 42 45 81 45 86 0 6 4 10 9 10 5
0 14 12 20 28 6 15 15 34 20 42 20 31 91 152 91 156 0 2 18 33 40 69 22 36 40
70 40 75 0 6 5 10 10 10 6 0 10 9 10 20 0 11 4 20 9 20 5 0 17 18 27 40 10 22
21 40 24 40 3 0 12 16 19 35 7 19 17 35 22 35 5 0 9 4 9 8 0 7 80 154 111 202
44 70 259 452 259 460 0 5 3 10 8 10 4 0 12 10 18 23 5 12 45 83 89 157 43 74
89 155 103 180 36 65 40 69 80 72 87 7 4395 -1 4403 -9z"/>
<path d="M3440 7867 c-7 -11 -24 -41 -38 -66 -14 -25 -33 -59 -43 -76 -10 -16
-38 -66 -64 -110 -64 -114 -93 -164 -124 -215 -14 -25 -35 -62 -46 -82 -11
-21 -23 -38 -28 -38 -4 0 -5 -4 -2 -10 3 -5 1 -10 -4 -10 -6 0 -11 -4 -11 -10
0 -5 -19 -42 -43 -82 -24 -40 -46 -80 -50 -88 -4 -8 -13 -24 -20 -35 -97 -162
-117 -197 -124 -217 -3 -10 -8 -18 -12 -18 -4 0 -13 -16 -21 -35 -8 -19 -18
-35 -22 -35 -5 0 -6 -4 -3 -10 3 -5 3 -10 -2 -10 -4 0 -13 -10 -19 -23 -6 -12
-62 -110 -124 -217 -107 -185 -125 -216 -169 -292 -10 -18 -75 -131 -145 -252
-69 -120 -126 -222 -126 -227 0 -5 -5 -9 -11 -9 -5 0 -7 -4 -4 -10 3 -5 2 -10
-2 -10 -5 0 -17 -17 -28 -37 -11 -21 -29 -54 -41 -73 -11 -19 -32 -55 -46 -80
-14 -25 -41 -72 -60 -105 -19 -33 -44 -76 -54 -95 -10 -19 -22 -36 -26 -38 -5
-2 -8 -7 -8 -11 0 -5 -23 -48 -52 -97 -28 -49 -56 -99 -62 -111 -6 -13 -14
-23 -18 -23 -5 0 -8 -5 -8 -11 0 -7 -20 -45 -45 -87 -25 -41 -45 -78 -45 -81
0 -4 -10 -18 -22 -31 -13 -14 -22 -25 -20 -25 7 0 -14 -43 -55 -109 -24 -39
-43 -76 -43 -82 0 -7 -3 -14 -7 -16 -7 -3 -73 -105 -73 -113 0 -2 -27 -50 -61
-107 -34 -57 -69 -119 -79 -139 l-18 -35 704 0 705 1 49 80 c27 44 49 86 50
93 0 6 5 12 10 12 6 0 10 4 10 9 0 5 23 49 51 98 72 122 232 401 256 443 11
19 53 91 93 160 39 69 101 177 137 240 36 63 76 131 88 150 12 19 35 60 51 90
16 30 31 57 34 60 7 6 53 84 128 220 14 25 33 57 43 72 11 14 19 29 19 32 0 4
32 59 93 161 9 17 20 38 23 48 4 9 10 17 15 17 5 0 9 9 9 20 0 11 3 20 8 20 4
0 18 21 32 48 14 26 30 53 37 60 7 7 13 17 13 22 0 8 29 59 79 140 9 14 14 28
13 33 -1 4 3 7 8 7 6 0 10 4 10 9 0 5 16 34 35 66 19 32 36 62 37 67 3 7 251
10 728 10 399 0 733 -1 743 -1 18 -1 18 -3 -1 -33 -11 -18 -29 -49 -40 -68
-10 -19 -33 -59 -51 -88 -17 -29 -31 -57 -31 -62 0 -6 -4 -10 -10 -10 -5 0
-10 -9 -10 -20 0 -11 -3 -20 -8 -20 -4 0 -25 -34 -47 -75 -22 -41 -43 -75 -47
-75 -5 0 -8 -4 -8 -10 0 -5 -34 -69 -76 -142 -42 -73 -119 -207 -171 -298 -52
-91 -104 -177 -114 -192 -10 -15 -19 -34 -19 -43 0 -8 -4 -15 -8 -15 -4 0 -23
-28 -41 -62 -18 -35 -53 -96 -77 -136 -24 -41 -44 -78 -44 -83 0 -5 -4 -9 -8
-9 -5 0 -16 -18 -25 -39 -10 -22 -29 -56 -43 -76 -13 -20 -26 -42 -27 -48 -1
-7 -5 -14 -8 -17 -3 -3 -17 -25 -31 -50 -34 -62 -55 -97 -130 -226 -36 -61
-68 -117 -71 -125 -4 -8 -16 -27 -27 -44 -11 -16 -23 -37 -26 -45 -4 -8 -38
-68 -76 -132 -37 -64 -68 -121 -68 -127 0 -6 -4 -11 -9 -11 -5 0 -11 -8 -15
-17 -5 -18 -12 -29 -49 -85 -10 -16 -15 -28 -10 -28 4 0 4 -4 -2 -8 -11 -8
-30 -36 -45 -67 -5 -11 -23 -42 -40 -70 -17 -27 -33 -58 -36 -67 -4 -10 -10
-18 -15 -18 -5 0 -9 -5 -9 -10 0 -6 -43 -86 -97 -178 -96 -167 -137 -238 -358
-622 -65 -113 -129 -222 -142 -242 -12 -21 -23 -42 -23 -47 0 -5 -7 -14 -15
-21 -8 -7 -15 -21 -15 -30 0 -10 -4 -20 -9 -22 -4 -1 -33 -46 -62 -98 -30 -52
-59 -104 -66 -115 -7 -11 -15 -27 -19 -35 -4 -8 -33 -58 -64 -110 -31 -52 -67
-115 -81 -140 -13 -25 -27 -46 -31 -48 -5 -2 -8 -8 -8 -12 0 -5 -16 -36 -35
-69 -19 -32 -35 -62 -35 -65 0 -3 904 -5 2010 -5 l2009 1 32 56 c17 32 37 60
43 64 6 4 8 8 4 8 -4 0 9 28 30 63 21 34 54 90 72 124 19 35 38 63 42 63 5 0
8 8 8 19 0 10 7 24 15 31 8 7 15 16 15 21 0 4 32 60 70 125 39 64 70 118 70
119 0 2 20 38 45 79 25 42 45 81 45 86 0 6 5 10 10 10 6 0 10 4 10 10 0 5 38
74 85 154 47 80 85 148 85 152 0 4 6 15 14 23 8 9 26 39 41 66 14 28 37 68 51
90 14 22 31 54 39 70 9 17 21 39 28 49 43 68 77 126 77 131 0 3 12 24 27 48
14 23 40 67 56 97 17 30 33 57 36 60 4 3 15 24 26 47 11 24 23 43 28 43 4 0 7
4 7 9 0 5 39 75 86 157 47 82 96 167 108 189 11 22 24 42 29 43 4 2 7 8 7 13
0 5 15 32 33 61 48 79 65 109 84 151 10 20 21 37 25 37 5 0 8 4 8 10 0 5 18
39 40 75 22 36 40 70 40 75 0 6 3 10 8 10 4 0 13 15 21 33 8 17 17 34 20 37 5
4 18 26 65 115 6 11 14 22 17 25 3 3 12 17 20 32 8 15 33 61 57 102 23 42 42
79 41 82 0 4 3 10 8 13 8 6 28 37 74 118 10 18 68 119 129 223 60 105 110 192
110 193 0 1 -586 2 -1302 1 -717 0 -1306 1 -1311 4 -8 4 23 65 36 70 4 2 7 8
7 13 0 4 20 42 44 83 24 41 47 84 51 95 3 12 10 21 14 21 4 0 13 16 21 35 8
19 17 35 22 35 4 0 8 4 8 9 0 5 23 48 50 96 28 48 50 91 50 96 0 5 4 9 8 9 4
0 13 12 20 28 6 15 28 54 47 87 20 33 41 71 48 85 6 14 17 31 24 38 7 7 13 20
13 28 0 8 5 14 10 14 6 0 10 4 10 10 0 13 202 364 212 368 4 2 8 11 8 21 0 9
5 22 10 27 6 6 18 26 28 45 10 19 72 126 137 239 65 113 129 225 143 250 14
25 58 102 99 172 40 70 73 131 73 136 0 4 -962 8 -2139 8 -2126 0 -2138 0
-2151 -19z m3587 -3334 c-45 -83 -92 -159 -99 -161 -4 -2 -8 -12 -8 -22 0 -10
-6 -25 -13 -32 -14 -15 -130 -214 -211 -363 -6 -11 -14 -22 -17 -25 -4 -3 -19
-30 -34 -60 -15 -30 -31 -57 -35 -60 -3 -3 -13 -18 -22 -35 -29 -58 -71 -130
-84 -146 -8 -9 -11 -19 -7 -22 3 -4 2 -7 -4 -7 -6 0 -16 -12 -22 -27 -6 -16
-20 -41 -30 -58 -11 -16 -32 -52 -47 -80 -14 -27 -35 -61 -45 -74 -10 -13 -16
-27 -13 -32 3 -5 1 -9 -4 -9 -5 0 -13 -10 -19 -22 l-10 -23 -601 0 c-331 0
-602 3 -602 7 0 7 81 150 89 158 3 3 7 12 9 20 2 8 9 22 16 30 7 8 25 38 41
65 42 76 69 124 140 245 36 61 65 115 65 120 0 4 3 10 8 12 9 4 36 50 58 101
9 20 20 37 24 37 5 0 12 10 16 23 4 12 22 46 40 75 19 28 30 52 26 52 -4 0 -2
4 4 8 6 4 30 41 53 82 23 41 46 82 51 90 5 8 26 43 45 78 l36 62 605 0 c333 0
603 -3 601 -7z"/>
</g>
</svg>
